/* XPM */
static char *result[] = {
/* columns rows colors chars-per-pixel */
"64 16 149 2 ",
"   c #4934A5",
".  c #4935A5",
"X  c #4937A6",
"o  c #4A37A6",
"O  c #4A39A6",
"+  c #4B3BA7",
"@  c #4A3DA6",
"#  c #4B3CA7",
"$  c #4B3EA7",
"%  c #4B3CA8",
"&  c #4C3FA9",
"*  c #4D45A9",
"=  c #4E45AB",
"-  c #4D47AA",
";  c #4F4AAC",
":  c #4F4BAE",
">  c #504BAE",
",  c #504CAD",
"<  c #504FAC",
"1  c #504DAE",
"2  c #514EAE",
"3  c #5051AE",
"4  c #5258AF",
"5  c #5050B0",
"6  c #5252B1",
"7  c #5457B2",
"8  c #5656B4",
"9  c #5766AE",
"0  c #5461B1",
"q  c #5B63BA",
"w  c #5C65BA",
"e  c #5A68B9",
"r  c #5A69B9",
"t  c #5F6FBD",
"y  c #5D71BF",
"u  c #5E74BD",
"i  c #6171C1",
"p  c #6173C1",
"a  c #617BC3",
"s  c #6086C0",
"d  c #6186C0",
"f  c #6187C0",
"g  c #6288C1",
"h  c #6489C1",
"j  c #668AC2",
"k  c #668BC2",
"l  c #678CC3",
"z  c #688CC3",
"x  c #698DC3",
"c  c #698DC4",
"v  c #6C8FC5",
"b  c #6D90C5",
"n  c #7193C7",
"m  c #7294C7",
"M  c #7798C9",
"N  c #7899CA",
"B  c #7B9ACB",
"V  c #7B9BCB",
"C  c #7D9CCB",
"Z  c #7F9DCC",
"A  c #7F9ECC",
"S  c #809ECD",
"D  c #84A2CE",
"F  c #87A3CF",
"G  c #87A4D0",
"H  c #89A5D0",
"J  c #8AA6D1",
"K  c #8BA7D1",
"L  c #8EA9D2",
"P  c #8FAAD3",
"I  c #91ABD4",
"U  c #92ACD4",
"Y  c #93ACD4",
"T  c #93ADD4",
"R  c #94ADD5",
"E  c #94AED5",
"W  c #95AED5",
"Q  c #96AFD5",
"!  c #99B1D6",
"~  c #9CB4D8",
"^  c #9DB5D8",
"/  c #9EB5D9",
"(  c #A2B8DA",
")  c #A3B9DA",
"_  c #A5BBDB",
"`  c #A6BBDC",
"'  c #A6BCDC",
"]  c #A7BCDC",
"[  c #A8BDDD",
"{  c #AABEDD",
"}  c #ABBFDE",
"|  c #ADC0DE",
" . c #AFC2DF",
".. c #B0C3E0",
"X. c #B2C5E1",
"o. c #B3C5E1",
"O. c #B5C7E2",
"+. c #B8C9E3",
"@. c #B9C9E3",
"#. c #BFCFE6",
"$. c #C1D0E7",
"%. c #C2D0E7",
"&. c #C3D1E7",
"*. c #C4D2E8",
"=. c #C8D5E9",
"-. c #C9D6EA",
";. c #CAD7EA",
":. c #CCD8EB",
">. c #CEDAEB",
",. c #CEDAEC",
"<. c #D0DBEC",
"1. c #D1DCED",
"2. c #D3DDED",
"3. c #D4DEEE",
"4. c #D5DFEE",
"5. c #D6E0EF",
"6. c #D7E1EF",
"7. c #D8E1EF",
"8. c #D8E2F0",
"9. c #DBE3F1",
"0. c #DBE4F1",
"q. c #DCE4F1",
"w. c #DDE5F1",
"e. c #DDE5F2",
"r. c #DEE6F2",
"t. c #DFE6F2",
"y. c #E1E8F3",
"u. c #EAEFF7",
"i. c #EBF0F7",
"p. c #ECF0F7",
"a. c #EEF2F8",
"s. c #EFF3F9",
"d. c #F1F5FA",
"f. c #F2F5FA",
"g. c #F3F6FA",
"h. c #F4F6FB",
"j. c #F4F7FB",
"k. c #F6F8FB",
"l. c #F6F8FC",
"z. c #F7F9FC",
"x. c #F8F9FC",
"c. c #F8FAFC",
"v. c #FAFBFD",
"b. c #FCFDFE",
"n. c #FDFEFE",
"m. c #FEFEFF",
"M. c #FEFFFF",
"N. c white",
"B. c None",
/* pixels */
"B.B.i B.B.B.i B.i B.i i i B.B.B.B.B.i i B.i i i B.B.B.B.B.B.B.B.i i B.t B.B.B.B.B.B.B.B.i B.B.B.B.B.B.B.B.B.B.B.B.B.B.B.B.i B.B.",
"B.i 6 s i . s : O 1 s s s 7 & i i s s , s s 1 5 i i i i i X i p s s = s i i i i i i a s i s i i i i i i i i i i   i 6 = s 2 i B.",
"B.i y s s s s s s s s s s s s s s s s s s s s s s s s s s s s s s s s s s s s s s s s s s s s s s s s s s s s s s s s s s s i B.",
"B.i % <.j.j.@.I j.j.j.z M 1.a.u.$.l @.j.,.L j.h.H j.j.j.9.f #.a.f.5.b s s s s s s s s s s s s s s s s s s s s s s s s s s s i i ",
"B.i s 7.N.N.3._ N.N.N.x 5.N.q.d.N...{ N.a.) N.f.G N.N.x.q.D N.g.e.N.] s s s s s s s s s s s s s s s s s s s s s s s s s s s 8 i ",
"B.i s 7.N.N.i.@.N.N.N.x g.N...7.N.;.E N.m.+.N.t.G N.N.S s T N.0.Q =.W s s s s s s s s s s s s s s s s s s s s s s s s s s s i B.",
"B.i s 7.N.c.m.2.k.N.N.x l.N...6.N.,.Z N.N.4.N.:.G N.N.( A Z N.M...g s s s s s s s s s s s s s s s s s s s s s s s s s s s r B.B.",
"B.i s 7.N.t.N.v.w.N.N.x z.N...6.N.<.c N.N.p.N.@.F N.N.N.4.s -.N.N.6.j s s s s s s s s s s s s s s s s s s s s s s s s s s q i B.",
"i i s 7.N.*.N.N.*.N.N.x z.N...6.N.<.s g.N.x.N.` F N.N.&.^ s f X.M.N.{ s s s s s s s s s s s s s s s s s s s s s s s s s s i i B.",
"B.2 s 7.N.{ N.N.} N.N.x j.N...6.N.>.s e.N.m.N.Y G N.N.S s B *. .O.N.=.s s s s s s s s s s s s s s s s s s s s s s s s s s * i B.",
"B.i s 7.N.~ g.N.U N.N.x u.N.O.r.N.%.s =.N.N.N.A G N.N.o./ D N.y.[ N.:.s s s s s s s s s s s s s s s s s s s s s s s s s s - i B.",
"B.> s 7.N.~ 8.N.N N.N.x ..N.b.N.n.K s X.N.N.N.v F N.N.N.b.k s.N.m.N.' s s s s s s s s s s s s s s s s s s s s s s s s s s s i i ",
"B.i + ! } C P [ j } } h s J } ' V s s A } } { s m } } } { s n [ | R d s s s s s s s s s s s s s s s s s s s s s s s s s s w i B.",
"B.i i s s s s s s s s s s s s s s s s s s s s s s s s s s s s s s s s s s s s s s s s s s s s s s s s s s s s s s s s s s e i B.",
"B.B.i s i 0 s s # i s 4 O s s s s s s 3 $ i @ i s s s ; s s s o s s . < s s s s s s s s s @ s s s s s s s s s s s s s s s w i B.",
"B.B.B.B.B.i i i B.B.i B.B.i i i B.i B.i B.B.B.B.B.B.i i i i i B.i i B.B.i i B.i i i i i i i B.i B.i i i u i i i i i B.9 i i B.B."
};
