/* XPM */
static char *result[] = {
/* columns rows colors chars-per-pixel */
"32 32 150 2 ",
"   c #000000",
".  c #090600",
"X  c #040B04",
"o  c #0B0A01",
"O  c #0C0B08",
"+  c #100A00",
"@  c #021B02",
"#  c #031602",
"$  c #131401",
"%  c #1A1A02",
"&  c #121109",
"*  c #1C1C0A",
"=  c gray9",
"-  c #1F1E1C",
";  c #201701",
":  c #032402",
">  c #042D03",
",  c #1F2002",
"<  c #162908",
"1  c #043305",
"2  c #262703",
"3  c #2C2C2C",
"4  c gray22",
"5  c #443004",
"6  c #054207",
"7  c #064809",
"8  c #075B0E",
"9  c #06530B",
"0  c #07600F",
"q  c #076510",
"w  c #086C12",
"e  c #1C6610",
"r  c #097815",
"t  c #1B7E20",
"y  c #454207",
"u  c #5E4809",
"i  c #6C530B",
"p  c #705F0F",
"a  c #78570D",
"s  c #636510",
"d  c #796611",
"f  c #676767",
"g  c gray43",
"h  c #9D7314",
"j  c #947E17",
"k  c #9D7B16",
"l  c #A17514",
"z  c #A07815",
"x  c #2B861E",
"c  c #2A862B",
"v  c #379936",
"b  c #3FA13F",
"n  c #3D8854",
"m  c #458F5A",
"M  c #49AE48",
"N  c #57A06B",
"B  c #55CD52",
"V  c #57D155",
"C  c #5BD95A",
"Z  c #63E762",
"A  c #77ED63",
"S  c #6BFA6A",
"D  c #868719",
"F  c #8D8218",
"G  c #878919",
"H  c #8B8B1A",
"J  c #9D8017",
"K  c #948418",
"L  c #9D8318",
"P  c #978B1A",
"I  c #92941D",
"U  c #96991E",
"Y  c #9C9E1F",
"T  c #9C931C",
"R  c #A38C1A",
"E  c #AC921C",
"W  c #B0971D",
"Q  c #98942A",
"!  c #9EA120",
"~  c #A3A521",
"^  c #A6AA22",
"/  c #AAAD23",
"(  c #BCA922",
")  c #AEB124",
"_  c #B3B625",
"`  c #B5B926",
"'  c #BABC27",
"]  c #BDBF28",
"[  c #C7B224",
"{  c #BFC128",
"}  c #C3C429",
"|  c #C6C82A",
" . c #C9CD2C",
".. c #D2C62A",
"X. c #CED12C",
"o. c #D4D52E",
"O. c #DED72E",
"+. c #D6D82E",
"@. c #D9DB2F",
"#. c #DBDE30",
"$. c #E6D42D",
"%. c #DEE331",
"&. c #E2E532",
"*. c #E5E932",
"=. c #E9EC33",
"-. c #EDF235",
";. c #F1F737",
":. c #F2F937",
">. c #F7FE38",
",. c #FFFF39",
"<. c #FFFB37",
"1. c #8CB945",
"2. c #FFFF57",
"3. c #FFFF59",
"4. c #FFFF6D",
"5. c #FFFF72",
"6. c #FFFF7D",
"7. c #4FBF9A",
"8. c #74C087",
"9. c #5DCBA6",
"0. c #29A9D6",
"q. c #30ADDA",
"w. c #818181",
"e. c #959595",
"r. c #9B9B9B",
"t. c gray64",
"y. c #ACACAB",
"u. c #B5B5B5",
"i. c gray75",
"p. c #FFCB9E",
"a. c #FFFF81",
"s. c #FFFF96",
"d. c #C3C3B8",
"f. c #FFFFAF",
"g. c #FFFFB5",
"h. c #C5C5C4",
"j. c #CDCDCB",
"k. c #C9C9C7",
"l. c #D2D2D2",
"z. c #D9D9D8",
"x. c #FFFFC2",
"c. c #FFFFCF",
"v. c #FFFFDD",
"b. c gray88",
"n. c #EEEEEE",
"m. c #F0F0EF",
"M. c #F6F6F5",
"N. c #FCFDF5",
"B. c #FDFEFC",
"V. c None",
/* pixels */
"V.V.V.V.V.V.V.V.V.V.V.V.V.V.V.V.V.V.V.V.V.V.V.V.V.V.V.V.V.V.V.V.",
"V.V.V.V.V.V.V.V.V.V.V.V.V.V.V.V.V.V.V.V.V.V.V.V.V.V.V.V.V.V.V.V.",
"V.V.V.V.V.V.V.V.V.V.V.V.V.V.V.V.V.V.V.V.V.V.V.V.V.V.V.V.V.V.V.V.",
"V.V.V.V.V.V.V.V.V.V.V.V.V.V.V.V.V.V.V.V.V.V.V.V.V.V.V.V.V.V.V.V.",
"V.V.V.V.V.V.V.V.V.V.V.V.V.V.V.V.V.V.V.V.V.V.V.V.V.V.V.9.p.q.V.V.",
"V.V.V.V.V.V.V.V.V.V.V.V.L E R R R J J V.V.V.V.j U n 0.8.7.N V.V.",
"V.V.V.V.V.V.V.V.V.V.V.L W ( ..<.,.O.[ R R V.V.' %._ Q 8.m V.V.V.",
"V.V.V.V.V.V.V.V.V.E $.,.v.c.g.5.4.4.3.,.-.} R ,.*. .{ Q V.V.V.V.",
"V.V.V.V.V.V.V.V.z ,.6.x.g.5.,.,.,.,.,.,.,.-. .L X.{ / ~ V.V.V.V.",
"V.V.V.V.V.V.V.[ ,.g.6.,.,.,.,.,.>.*.*.*.%.#.o.) T ^ ' F V.V.V.V.",
"V.V.V.V.V.V.k ,.s.a.,.,.,.,.,.:.-.-.=.&.#.o.X.` ^ K I F V.V.V.V.",
"V.V.V.V.V.V.R 6.6.,.,.,.,.,.>.-.-.=.*.%.#.o.X.{ ) k j V.V.V.V.V.",
"V.V.V.V.V.p   2.,.,.,.,.>.:.-.-.} ^ =.&.+.X.| ' _ ! l V.V.V.V.V.",
"V.V.V.V.J O r.#.,.,.,.,.:.-.-. .$ & =.*.X. .} ` / ~ k V.V.V.V.V.",
"V.V.V.V.k   h.  o.,.,.>.-.-.=.  u.  X.%.X.| ] ` / ~ H l V.V.V.V.",
"V.V.V.V.& u.B.M.k.) ;.-.-.~   M.B.u.% %.| [ ' / ^ ~ ~ l V.V.V.V.",
"V.V.V.V.. m.B.B.B.  Y -.Q   k.B.B.z.$ +.{ { ` / ~ ^ ~ k V.V.V.V.",
"V.V.V.V.+ n.B.B.  l.% -.% B.  B.B.M.% | { ' ) ~ ~ ` ~ h V.V.V.V.",
"V.V.V.V.o u.N.B.  M.  -.  N.  N.B.y.% } ' ) ) ~ ^ ' Q h V.V.V.V.",
"V.V.V.V.u - B.B.N.B.  =.  m.M.B.B.* G } ` ) ^ ! / s X - X O V.V.",
"V.V.V.V.% i . M.B.* I +.I % j.M.d.G { _ / ^ ! ) H e.B.w.B.B.w.V.",
"V.V.V.V.Z 1.d   o H } o.{ G $   % ` _ / ~ ! ! ` 2 3 4 r.n.B.b.V.",
"V.V.V.  S A k / ) [ } | } } ] _ _ _ / ^ ~ ! ~ ' O g t.n.M.n.l.V.",
"V.V.V.      X F ^ ^ / _ _ _ / / ^ ~ ! ! ^ _ ! .   h.l.j.k.u.y.V.",
"V.V.V.  1 1 1 h K ~ ~ ~ ^ ^ ~ ^ ~ ! ~ ~ ` ! 2 x e f r.t.r.t.4 V.",
"V.V.V.V.: > 1 1 y l I ! ! ! ! ~ ^ _ ^ o B B v >   q @ X =   V.V.",
"V.V.V.V.  > 1 1 1 a l j E ! ! / / / , c S C b 9   8 6 : V.V.V.V.",
"V.V.V.V.V.  : 1 1 > 5 d j H I Y ! U < B Z V v 8 > 9 1   V.V.V.V.",
"V.V.V.V.V.V.V.  > > >     V.V.V.V.V.# v M v c 8 1 6     V.V.V.V.",
"V.V.V.V.V.V.V.          V.V.V.V.V.V.  r c t w 6 > @   V.V.V.V.V.",
"V.V.V.V.V.V.V.V.V.V.V.V.V.V.V.V.V.V.  7 w q 0 > @   V.V.V.V.V.V.",
"V.V.V.V.V.V.V.V.V.V.V.V.V.V.V.V.V.V.V.V.V.V.V.V.V.V.V.V.V.V.V.V."
};
