/* XPM */
static char *result[] = {
/* columns rows colors chars-per-pixel */
"32 32 181 2 ",
"   c #010101",
".  c #00070C",
"X  c #000A0C",
"o  c #090A0A",
"O  c #1B0000",
"+  c #110000",
"@  c #000D14",
"#  c #001214",
"$  c #0D151A",
"%  c #05181C",
"&  c gray8",
"*  c #1C1C1D",
"=  c #16191B",
"-  c #230000",
";  c #2C0000",
":  c #320000",
">  c #3B0000",
",  c #3C1414",
"<  c #011624",
"1  c #011B24",
"2  c #011B2B",
"3  c #001E31",
"4  c #012329",
"5  c #00292E",
"6  c #162129",
"7  c #012234",
"8  c #002C33",
"9  c #00233A",
"0  c #003135",
"q  c #003639",
"w  c #00383D",
"e  c #222323",
"r  c #2C2C2C",
"t  c #302F2F",
"y  c #333232",
"u  c #3A3A3A",
"i  c #4B0000",
"p  c #440000",
"a  c #5B0000",
"s  c #560404",
"d  c #640000",
"f  c #6A0000",
"g  c #760303",
"h  c #6A1819",
"j  c #73191A",
"k  c #4A2324",
"l  c #502727",
"z  c #002A46",
"x  c #002D4B",
"c  c #002740",
"v  c #003D43",
"b  c #01374A",
"n  c #002F52",
"m  c #013254",
"M  c #01355A",
"N  c #03385D",
"B  c #063E5A",
"V  c #003B64",
"C  c #003F6B",
"Z  c #0A3D61",
"A  c #004247",
"S  c #004349",
"D  c #014A53",
"F  c #005259",
"G  c #00416C",
"H  c #0A446D",
"J  c #024D62",
"K  c #13476B",
"L  c #005B68",
"P  c #014473",
"I  c #014C7D",
"U  c #054876",
"Y  c #005075",
"T  c #04627B",
"R  c #5E6C6D",
"E  c #6B6B6B",
"W  c #810203",
"Q  c #801819",
"!  c #881F20",
"~  c #862828",
"^  c #843132",
"/  c #9C3738",
"(  c #8D4344",
")  c #B54A4C",
"_  c #B94C4E",
"`  c #C65758",
"'  c #D96566",
"]  c #E76D6E",
"[  c #EA6F71",
"{  c #EF7374",
"}  c #004E81",
"|  c #00548C",
" . c #035589",
".. c #005993",
"X. c #005E9C",
"o. c #0D5B91",
"O. c #016C8A",
"+. c #00619F",
"@. c #136094",
"#. c #0063A3",
"$. c #0066A9",
"%. c #0069AC",
"&. c #0E67A2",
"*. c #1B6DAB",
"=. c #0A75A9",
"-. c #006CB4",
";. c #006EB9",
":. c #0072BD",
">. c #277CB5",
",. c #0075C3",
"<. c #007CCD",
"1. c #0077CA",
"2. c #187EC3",
"3. c #007ED1",
"4. c #1781B5",
"5. c #0497B8",
"6. c #498BB9",
"7. c #1782C1",
"8. c #0A92CB",
"9. c #0081D4",
"0. c #0084DC",
"q. c #0089DF",
"w. c #0A85D6",
"e. c #2A8CCF",
"r. c #3A9DDA",
"t. c #0086E1",
"y. c #018AE3",
"u. c #0E8CE1",
"i. c #138FE6",
"p. c #0D92EC",
"a. c #1D95EC",
"s. c #1A95EC",
"d. c #2097EE",
"f. c #259CF2",
"g. c #2B9EF4",
"h. c #3EA4EB",
"j. c #39ABEB",
"k. c #3BA1E7",
"l. c #34A1F5",
"z. c #3CA7F6",
"x. c #4AAADD",
"c. c #50A4DE",
"v. c #44A5E8",
"b. c #5CB2ED",
"n. c #43AAF3",
"m. c #4CA9F8",
"M. c #52A9F9",
"N. c #5AB3F2",
"B. c #5EB7F8",
"V. c #78B9E9",
"C. c #63AFFA",
"Z. c #67B4FA",
"A. c #72B3FB",
"S. c #7DBAFB",
"D. c #76BBF8",
"F. c #77C1F8",
"G. c #959595",
"H. c #9A9A9A",
"J. c #A1A1A1",
"K. c #AAACAC",
"L. c #AFB0B0",
"P. c #B6B6B6",
"I. c gray75",
"U. c #82BAFB",
"Y. c #89C0FB",
"T. c #99C3FB",
"R. c #93C6FA",
"E. c #A1C3FB",
"W. c #AACDFA",
"Q. c #A6CCFA",
"!. c #B3CCFB",
"~. c #B9CDFA",
"^. c gray78",
"/. c #C8C8C8",
"(. c #D2D2D2",
"). c #D6D7D8",
"_. c gray86",
"`. c gray93",
"'. c #F4F4F4",
"]. c #FCFDFD",
"[. c None",
/* pixels */
"[.[.[.[.[.[.[.[.[.[.[.[.[.[.[.[.[.[.[.[.[.[.[.[.[.[.[.[.[.[.[.[.",
"[.[.[.[.[.[.[.[.[.[.[.[.[.[.[.[.[.[.[.[.[.[.[.[.[.[.[.[.[.[.[.[.",
"[.[.[.[.[.[.[.[.[.[.[.[.[.[.[.[.[.[.[.[.[.[.[.[.[.[.[.[.[.[.[.[.",
"[.[.[.[.[.[.[.[.[.[.[.[.[.[.[.[.[.[.[.[.[.[.[.[.[.[.[.[.y [.[.[.",
"[.[.[.[.[.[.[.[.[.[.[.[.A F F S S q q [.[.[.[.2 x   e y t * [.[.",
"[.[.[.[.[.[.[.[.[.[.[.S L T =.r.x.4.Y D S [.[.} 2.K 6 y o [.[.[.",
"[.[.[.[.[.[.[.[.[.S 0 T j.F.Q.~.W.V.x.r.J w 8 k.b.%.P 2 [.[.[.[.",
"[.[.[.[.[.[.[.[.q j.R.~.!.R.D.b.N.x.r.h.v.e.@.8 &. .V M [.[.[.[.",
"[.[.[.[.[.[.[.v 5.E.!.W.D.Z.B.n.v.y.y.q.9.w.e.n 5 V M P [.[.[.[.",
"[.[.[.[.[.[.0 B.E.E.S.A.m.z.z.f.p.q.q.3.:.-.#.H M 2 9 < [.[.[.[.",
"[.[.[.[.[.[.D T.U.S.A.N.z.l.l.s.y.y.0.<.:.-.#.} N % # [.[.[.[.[.",
"[.[.[.[.[.A 5.Y.U.A.C.M.g.f.d.y.y.t.0.<.;.%.X.} Z 7 # [.[.[.[.[.",
"[.[.[.[.w L n.S.U.M.l.f.d.i.y.y.y.t.0.3.-.X.| K D m # [.[.[.[.[.",
"[.[.[.[.0 O.z.* e l.f.d.o.e = y.y.0.0.3.%...} C Z m 2 @ [.[.[.[.",
"[.[.[.[.w 8.6.P.).*.d.a.o ).P.>.y.0.3.3.#.| } V M n 9 # [.[.[.[.",
"[.[.[.[.w 7.$ ].* o u.u.  * ].$ t.3.<.;.| | U Z n M m # [.[.[.[.",
"[.[.[.[.8 =.= ].    y.y.    ].$ t.<.:.$.| } P n n V N @ [.[.[.[.",
"[.[.[.[.5 Y m L.  @ y.y.    P.G 3.-.+...} C V n n I c . [.[.[.[.",
"[.[.[.[.4 D ..X   ;.y.y..   . 1.,.$.X.| C C V n V V 2 . [.[.[.[.",
"[.[.[.[.[.8 I #.:.<.<.9.3.<.,.;.-.X...} C V n 3   = o o [.[.[.[.",
"[.[.[.[.[.# 8 G } $.%.$.X.X.X...| } C V n n 3 G.]._.].].& [.[.[.",
"[.[.[.[.  K.4 N G |  .+...| | } I C V M x x @ t u ^.`.].& [.[.[.",
"[.[.[.[.  '.R M N G I I I I I P C M n n x m o E J.'.].`.* [.[.[.",
"[.[.[.[.& K.].% % m m M N M M m n x n n H U   I.(.).^.P.  [.[.[.",
"[.[.[.[.[.        z x z x x x x x n N C H n % E G.J.H.J.  [.[.[.",
"[.[.[.[.' [ { / h   d p . 9 x N Z N x x @   ,     o &   [.[.[.[.",
"[.[.[.  ' ] ` ^ s -   a     3 z x 9 2 @ l ^ ~ ; s :     [.[.[.[.",
"[.[.[.  ) ` ) j s ; : ; -   X X . o k ( _ / j > > :     [.[.[.[.",
"[.[.[.[.  +       ; > a ;   [.[.[.  W Q Q g d : >   [.[.[.[.[.[.",
"[.[.[.[.  - : ; ;   > a -   [.[.[.  i f f d i O   [.[.[.[.[.[.[.",
"[.[.[.[.[.    : : ;     +   [.[.[.                [.[.[.[.[.[.[.",
"[.[.[.[.[.[.[.[.[.[.[.[.[.[.[.[.[.[.[.[.[.[.[.[.[.[.[.[.[.[.[.[."
};
