/* XPM */
static char *result[] = {
/* columns rows colors chars-per-pixel */
"32 32 180 2 ",
"   c #010102",
".  c #000B0D",
"X  c #0B0B0C",
"o  c #010D14",
"O  c #080E11",
"+  c #011113",
"@  c #0C1316",
"#  c #0F171C",
"$  c #0F181E",
"%  c #00171D",
"&  c #121212",
"*  c #18191A",
"=  c #2A0000",
"-  c #250000",
";  c #330000",
":  c #390000",
">  c #011A2B",
",  c #001922",
"<  c #131F20",
"1  c #00262A",
"2  c #00262A",
"3  c #1A2125",
"4  c #002D33",
"5  c #00263D",
"6  c #012838",
"7  c #003539",
"8  c #00383C",
"9  c #003236",
"0  c gray16",
"q  c #343434",
"w  c #3A3939",
"e  c #450001",
"r  c #490000",
"t  c #5C0000",
"y  c #650000",
"u  c #780000",
"i  c #7D1112",
"p  c #012F4B",
"a  c #062B45",
"s  c #003D42",
"d  c #01374A",
"f  c #002F51",
"g  c #003254",
"h  c #01355A",
"j  c #04395D",
"k  c #063F5B",
"l  c #013B63",
"z  c #003E6A",
"x  c #093E65",
"c  c #004349",
"v  c #00484E",
"b  c #004247",
"n  c #014A53",
"m  c #004160",
"M  c #01416A",
"N  c #064867",
"B  c #13476B",
"V  c #005C69",
"C  c #004473",
"Z  c #004877",
"A  c #014B7C",
"S  c #094C78",
"D  c #04627B",
"F  c #4C4C4C",
"G  c gray34",
"H  c #666666",
"J  c gray43",
"K  c gray49",
"L  c #821112",
"P  c #8C2021",
"I  c #942B2C",
"U  c #902525",
"Y  c #9E3535",
"T  c #AD4243",
"R  c #B94B4C",
"E  c #C85658",
"W  c #D55F60",
"Q  c #DF6A6B",
"!  c #E66E6F",
"~  c #E97173",
"^  c #F27576",
"/  c #F8797A",
"(  c #004E82",
")  c #015186",
"_  c #00548C",
"`  c #035B8D",
"'  c #005994",
"]  c #015E9C",
"[  c #016C8A",
"{  c #136094",
"}  c #005FA0",
"|  c #0064A4",
" . c #0065AA",
".. c #0169AE",
"X. c #0E67A2",
"o. c #0A75A9",
"O. c #006CB3",
"+. c #006EB9",
"@. c #0071B7",
"#. c #0072BC",
"$. c #2671AD",
"%. c #267CB5",
"&. c #0075C4",
"*. c #0078C7",
"=. c #0077CA",
"-. c #007CCD",
";. c #187EC3",
":. c #007DD1",
">. c #00879F",
",. c #1781B5",
"<. c #0497B8",
"1. c #4D8FBB",
"2. c #1782C1",
"3. c #0A92CB",
"4. c #0182D5",
"5. c #0084DB",
"6. c #0088DE",
"7. c #0A85D6",
"8. c #108AD5",
"9. c #2A8CCF",
"0. c #3A9DDA",
"q. c #0087E1",
"w. c #018AE3",
"e. c #0D8FE7",
"r. c #138FE7",
"t. c #1E95EB",
"y. c #1F98EF",
"u. c #1591E9",
"i. c #2097EE",
"p. c #279BEE",
"a. c #259CF3",
"s. c #2C9FF4",
"d. c #2CAEE9",
"f. c #3EA3E9",
"g. c #39ABEB",
"h. c #3BA1E7",
"j. c #34A2F3",
"k. c #3BA4F6",
"l. c #4AAADD",
"z. c #50A4DE",
"x. c #44A5E8",
"c. c #5CB2ED",
"v. c #4BA9F7",
"b. c #51AFF7",
"n. c #57AAFA",
"m. c #5AB3F2",
"M. c #5CB1F8",
"N. c #78B9E9",
"B. c #63AFFA",
"V. c #66B7F7",
"C. c #61B4FA",
"Z. c #73B4FA",
"A. c #74BCF9",
"S. c #78BBF9",
"D. c #77C1F8",
"F. c #8A8A8A",
"G. c #8F9192",
"H. c #9D9D9D",
"J. c #A2A2A2",
"K. c #A9A9A9",
"L. c #AFB0B0",
"P. c #B6B6B6",
"I. c #BEBFBF",
"U. c #82BAFB",
"Y. c #89C0FB",
"T. c #95C5FB",
"R. c #99C3FB",
"E. c #ACCBFA",
"W. c #A3C7FB",
"Q. c #B3CCFB",
"!. c #B9CDFA",
"~. c #CACACA",
"^. c #D3D3D3",
"/. c #D7D8D8",
"(. c #EEEEEE",
"). c gray88",
"_. c #F6F7F8",
"`. c #FCFDFE",
"'. c #F6F6F6",
"]. c None",
/* pixels */
"].].].].].].].].].].].].].].].].].].].].].].].].].].].].].].].].",
"].].].].].].].].].].].].].].].].].].].].].].].].].].].].].].].].",
"].].].].].].].].].].].].].].].].].].].].].].].].].].].].].].].].",
"].].].].].].].].].].].].].].].].].].].].].].].].].].].].].].].].",
"].].].].].].].].].].].].].].].].].].].].].].].].].].].].].].].].",
"].].].].].].].].].].].].].].].].].].].].].].].].].].].].q ].].].",
"].].].].].].].].].].].].].].].].].].].].].].].].].].].w G 0 ].].",
"].].].].].].].].].].].v V D o.0.l.,.D n v ].].) ;.B < q X ].].].",
"].].].].].].].].].v 7 D g.A.W.!.E.N.z.0.N 8 4 h.c.O.C > ].].].].",
"].].].].].].].].7 g.R.!.Q.T.D.c.c.x.0.g.h.9.{ 1 X.) l h ].].].].",
"].].].].].].].s <.W.Q.E.A.V.n.v.f.w.w.6.4.7.9.p 2 l h C ].].].].",
"].].].].].].].>.C.E.R.A.M.b.v.k.j.3.4.4.*.#.O.M a g A , ].].].].",
"].].].].].].n R.U.U.Z.n.k.j.s.u.w.w.5.-.#.+.| A j % + ].].].].].",
"].].].].].s <.Y.U.S.B.n.s.a.i.w.w.q.5.-.+. .] S k 6 + ].].].].].",
"].].].].].v d.U.S.B.v.k.a.t.r.w.w.q.5.-.+.| ' S x a + ].].].].].",
"].].].].9 [ 1.P./.$.p.i.X /.P.%.w.6.5.:. .' ( B k g > o ].].].].",
"].].].].8 3.@ `.`.& i.t.I.`.`.o q.q.:.:.} _ ( x h f 5 . ].].].].",
"].].].].8 2.# `.    e.w.    `.$ q.:.-.+.' ) Z l f h g o ].].].].",
"].].].].9 o.$ _.    w.w.    _.$ 6.-.&. ._ ( z h f l l o ].].].].",
"].].].].2 ` j L.  o w.w.    L.C 5.&. .] ) A z f f C f o ].].].].",
"].].].].1 k _ =.5.6.w.w.w.5.4.=.&. .] _ C l l f h z > . ].].].].",
"].].].].].4 A | #.-.-.:.:.=.*.+.O.] ' ( l l > 3 * O . ].].].].].",
"].].].].].1 n _ | @.@.@.O... .| } _ ) C l o X ^.(.K   ].].].].].",
"].].].].].].> j M _ ' ] ' ` _ ( A z l h o X 0 H.~._.).& ].].].].",
"].].].].].].+ g j C A ( A A A C z h g f   F.J (.'.(.^.* ].].].].",
"].].].].].].& 3 %   ! ~ Q T e       5 g   F ~.~.^.P.K.  ].].].].",
"].].].].].].].G.& E ^ ^ W Y e   y     x a   H K.H.J.w   ].].].].",
"].].].].].].].  X ! / / E I e   t =   l p >   H F.q   ].].].].].",
"].].].].].].].].  R E R P i t ; r =   .   ].].].].].].].].].].].",
"].].].].].].].].  I I U L u t : e -     ].].].].].].].].].].].].",
"].].].].].].].].  y t t t t r ; ;     ].].].].].].].].].].].].].",
"].].].].].].].].].].].].].].].].].].].].].].].].].].].].].].].]."
};
