/* XPM */
static char *result[] = {
/* columns rows colors chars-per-pixel */
"32 32 167 2 ",
"   c #020202",
".  c #0B050B",
"X  c #0D0B0D",
"o  c #130D13",
"O  c #1C0C1B",
"+  c #151215",
"@  c #1D141D",
"#  c #191919",
"$  c #200B1F",
"%  c #240723",
"&  c #220822",
"*  c #2E0C2C",
"=  c #300D2E",
"-  c #231523",
";  c #261C26",
":  c #2C132B",
">  c #2C1C2B",
",  c #30162F",
"<  c #301F2F",
"1  c #330A31",
"2  c #361735",
"3  c #321C31",
"4  c #381F37",
"5  c #3C173A",
"6  c #3C1C3B",
"7  c #252525",
"8  c #2D222D",
"9  c #352434",
"0  c #382437",
"q  c #342C34",
"w  c #3B253A",
"e  c #3D2B3C",
"r  c #353235",
"t  c #3C333C",
"y  c #400F3F",
"u  c #401F3F",
"i  c #40253E",
"p  c #402C3F",
"a  c #431343",
"s  c #451D43",
"d  c #4C174A",
"f  c #4B1849",
"g  c #51194F",
"h  c #531B51",
"j  c #591E56",
"k  c #442443",
"l  c #482646",
"z  c #442B42",
"x  c #482C47",
"c  c #4F244E",
"v  c #4C294A",
"b  c #453344",
"n  c #483347",
"m  c #433A43",
"M  c #4C374B",
"N  c #4E3A4D",
"B  c #50364F",
"V  c #542653",
"C  c #582556",
"Z  c #562F54",
"A  c #5C2C5B",
"S  c #543353",
"D  c #553D54",
"F  c #5D365C",
"G  c #5C3E5B",
"H  c #60235E",
"J  c #60385E",
"K  c #672C64",
"L  c #692C66",
"P  c #6D2E6A",
"I  c #663663",
"U  c #693F67",
"Y  c #6E366B",
"T  c #6C3D6A",
"R  c #743371",
"E  c #763F73",
"W  c #783C76",
"Q  c #7C3A79",
"!  c #454445",
"~  c #4B444B",
"^  c #4D4C4D",
"/  c #554254",
"(  c #544A54",
")  c #594458",
"_  c #5D4B5C",
"`  c #5F525F",
"'  c #604B5F",
"]  c #634D62",
"[  c #684D67",
"{  c #6A4E69",
"}  c #71426F",
"|  c #724B6F",
" . c #655364",
".. c #685267",
"X. c #6C556B",
"o. c #6C596B",
"O. c #70536F",
"+. c #754573",
"@. c #744F72",
"#. c #7C4A7A",
"$. c #775375",
"%. c #735C72",
"&. c #7D567B",
"*. c #626262",
"=. c #6A666A",
"-. c #6C6B6C",
";. c #766275",
":. c #786277",
">. c #706C70",
",. c #7B657A",
"<. c #7E697D",
"1. c #797779",
"2. c #7E7D7E",
"3. c #81427E",
"4. c #824C7E",
"5. c #806B7F",
"6. c #844681",
"7. c #864A83",
"8. c #8A4D87",
"9. c #885685",
"0. c #845D82",
"q. c #8D5689",
"w. c #8E5E8A",
"e. c #945991",
"r. c #9B5F98",
"t. c #826C81",
"y. c #886E87",
"u. c #867185",
"i. c #887387",
"p. c #8B768A",
"a. c #8D7A8C",
"s. c #907B8F",
"d. c #946491",
"f. c #9B6497",
"g. c #976F96",
"h. c #986B96",
"j. c #9D629A",
"k. c #9F699C",
"l. c #937D92",
"z. c #9A7B99",
"x. c #A0699D",
"c. c #A1709D",
"v. c #A57FA4",
"b. c #868686",
"n. c #888588",
"m. c #8D8B8D",
"M. c #968295",
"N. c #9B879A",
"B. c #9D899C",
"V. c #979797",
"C. c #9E9C9E",
"Z. c #A08C9F",
"A. c #A18EA0",
"S. c #AF87AE",
"D. c #B08EAF",
"F. c #BB95BA",
"G. c gray67",
"H. c #B0AFB0",
"J. c #BBBBBB",
"K. c #C3C2C3",
"L. c gray84",
"P. c gainsboro",
"I. c gray89",
"U. c #EDEDED",
"Y. c #F2F2F2",
"T. c gray99",
"R. c None",
/* pixels */
"R.R.R.R.R.R.R.  R.R.R.R.R.R.R.R.R.R.R.R.R.R.R.R.R.R.R.R.R.R.R.R.",
"R.R.R.R.R.R.R.o @ R.R.R.R.R.R.R.R.R.R.R.R.R.R.R.R.R.R.R.R.R.R.R.",
"R.R.R.R.R.R.R.$.$.; o R.R.R.. + + X R.R.R.@ b b R.R.R.R.R.R.R.R.",
"R.R.R.R.R.R.R.0.h.q 8 R.o 8 N ) / b 8 . ; 9 M 8   R.R.R.R.R.R.R.",
"R.R.R.R.R.R.R.&.x.b ; - ) %.;.;.%. .N q ; ) W ;   R.R.R.R.R.R.R.",
"R.R.R.R.R.R.R.i 3.4 ] ,.<.<.5.<.,.:._ 9 d.e.9.8   R.R.R.R.R.R.R.",
"R.R.R.R.R.R.R.: c _ ,.,.<.<.<.5.t.,./ b k.r.7.8   R.R.R.R.R.R.R.",
"R.R.R.R.R.R.R.: e :.<.u.a.a.a.i.y.,.) 0.j.e.7.9   R.R.R.R.R.R.R.",
"R.R.R.R.R.R.R.  X.i.M.N.B.B.N.M.l.p.%.{ T } +.q   R.R.R.R.R.R.R.",
"R.R.R.R.R.R.R.  X.5.N.N.B.B.B.,._ t.,.O.U G +.b   R.R.R.R.R.R.R.",
"R.R.R.R.R.R.R.   .q  .B.B.A.M.=.2.r 5.X.[ D U n X R.R.R.R.R.R.R.",
"R.x S x < .     1.T.U.` B.B.H.V.T.K.,.%.[ D b z   R.R.R.R.  @ R.",
"R.. O O 6 k i   K.L.7 r N.M.I.^ J.Y.<.;.{ D b q O R.R.O : x 3 R.",
"R.. % % = : l o P.! *.! N.l.m.*.! I.p.<.X.D z 0 < v S G S : . R.",
"R.  1 a g d d ] =.G.+ t D.p.=.# I.t l.t.X.N w * w : & : 3 2 R.R.",
"R.% a d j g s %.~ P.J.;.F.z.q n.>.a.M.t.X.M z * 5 : : s s l R.R.",
"R.a * j H d : %.o.q m  .S.y.X.( %.M.M.<.X.N n 2 6 3 k V I F R.R.",
"R.a h P Y K O %.o.;.<.` v.%.<.t.a.M.l.<.X.N n 6 5 l A Y +.#.R.R.",
"R.R.P R 3.8.- o.q m ;.<.u.y.i.m.a.q + ,.[ N e ; G Y #.4.E c.. R.",
"R.R.P 3.6.8.; ..- + r 8 m o. .t o > # %.] N w 0 0 #.9.r.q.@.R.R.",
"R.R.P 7.8.7.@  .- ! K.X + # o # C.; t %.] b w 3   q.9.w.f.9 R.R.",
"R.R.E R.k J X ' M ^ m.4 - + @ *.Y.X %.X.D e 0 ;   T D R.@.O R.R.",
"R.R.v R.0 v . ) _ m l.C C w k + Y.+ :.[ M w 9 ;   V @ R.S R.R.R.",
"R.R.R.R.R.;   N  .r g.R c Q V @ U.] %.] b w 3 - R.Z R.R.R.R.R.R.",
"R.R.R.R.R.R.R.; ] ( r  .m.n.^   J.o.[ M 0 9 3   R.a R.R.R.R.R.R.",
"R.R.R.R.R.R.R.+ / X.t X       8 o.X.) p 0 > - R.R.R.R.R.R.R.R.R.",
"R.R.R.R.R.R.R.R.q X.;.) t q m ;.o._ b 0 9 >   R.R.R.R.R.R.R.R.R.",
"R.R.R.R.R.R.R.R.R.; o.t.N.l.<.[ n w 9 > >   R.R.R.R.R.R.R.R.R.R.",
"R.R.R.R.R.R.R.R.R.R.e %.;.:.%.) 0 0 > >   R.R.R.R.R.R.R.R.R.R.R.",
"R.R.R.R.R.R.R.R.R.R.7 e X.X.[ 0 < > >   R.R.R.R.R.R.R.R.R.R.R.R.",
"R.R.R.R.R.R.R.R.R.R.R.  . + @ X   R.R.R.R.R.R.R.R.R.R.R.R.R.R.R.",
"R.R.R.R.R.R.R.R.R.R.R.R.R.R.R.R.R.R.R.R.R.R.R.R.R.R.R.R.R.R.R.R."
};
