/* XPM */
static char *result[] = {
/* columns rows colors chars-per-pixel */
"32 32 170 2 ",
"   c #0A0600",
".  c #1E1203",
"X  c #251703",
"o  c #351D04",
"O  c #342205",
"+  c #3C2305",
"@  c #402505",
"#  c #492E08",
"$  c #432C06",
"%  c #45310A",
"&  c #543708",
"*  c #5D3909",
"=  c #6C3F07",
"-  c #603809",
";  c #5D400B",
":  c #62430D",
">  c #6B4B0E",
",  c #744B0E",
"<  c #794B0B",
"1  c #78500F",
"2  c #654610",
"3  c #6C4E12",
"4  c #684C18",
"5  c #704E10",
"6  c #745214",
"7  c #795314",
"8  c #7D5A15",
"9  c #875610",
"0  c #825D15",
"q  c #805E19",
"w  c #915F11",
"e  c #8E6414",
"r  c #8F6A17",
"t  c #866019",
"y  c #8C6519",
"u  c #8E681A",
"i  c #846215",
"p  c #916414",
"a  c #926A14",
"s  c #9A6E14",
"d  c #90671B",
"f  c #946B1A",
"g  c #996F1B",
"h  c #9E7413",
"j  c #96711C",
"k  c #9D731C",
"l  c #A26E0D",
"z  c #A37314",
"x  c #AA7716",
"c  c #A27B14",
"v  c #AB7D15",
"b  c #A2761D",
"n  c #A4791D",
"m  c #AA7D1F",
"M  c #9E7B25",
"N  c #AC7C20",
"B  c #A38B0B",
"V  c #A58315",
"C  c #AD8616",
"Z  c #A5801E",
"A  c #AD821B",
"S  c #B3851E",
"D  c #B48A1C",
"F  c #BE8B1D",
"G  c #AF9112",
"H  c #B49414",
"J  c #BA921B",
"K  c #AE8120",
"L  c #A28D23",
"P  c #A88D28",
"I  c #B38421",
"U  c #B98723",
"Y  c #B48A22",
"T  c #BC8D23",
"R  c #AF9225",
"E  c #B59627",
"W  c #BC9225",
"Q  c #BF9A25",
"!  c #B1912B",
"~  c #B79B2C",
"^  c #BB9B2A",
"/  c #BC9A33",
"(  c #BFAB33",
")  c #BBA333",
"_  c #C18E24",
"`  c #C59425",
"'  c #C99625",
"]  c #C79926",
"[  c #CB9A26",
"{  c #C59D2A",
"}  c #CC9D29",
"|  c #D09E26",
" . c #D19F29",
".. c #C99E32",
"X. c #C7A426",
"o. c #CFA127",
"O. c #CDA824",
"+. c #C7A12A",
"@. c #CDA32A",
"#. c #CAA92D",
"$. c #D3A225",
"%. c #D3A52A",
"&. c #D9A42A",
"*. c #D3AB2C",
"=. c #DAAC2D",
"-. c #D5B926",
";. c #D6B02C",
":. c #DBB42E",
">. c #DEBC2D",
",. c #C7A237",
"<. c #C6AC31",
"1. c #C3A739",
"2. c #C3AA38",
"3. c #C8B73A",
"4. c #CDBE3D",
"5. c #DCB431",
"6. c #DCB932",
"7. c #DFBD3C",
"8. c #E3AE2D",
"9. c #E3B32C",
"0. c #EAB82F",
"q. c #E3BB31",
"w. c #D4C437",
"e. c #D0C03B",
"r. c #DCC838",
"t. c #DCC53C",
"y. c #E0C427",
"u. c #E6C432",
"i. c #E9C531",
"p. c #EACC37",
"a. c #E6C23D",
"s. c #E9C63F",
"d. c #EDCC3A",
"f. c #F1CB33",
"g. c #EFD238",
"h. c #EBD232",
"j. c #F1D135",
"k. c #F5D43A",
"l. c #F9D738",
"z. c #F9DC3A",
"x. c #F3DB35",
"c. c #F9E139",
"v. c #D3B244",
"b. c #CAB053",
"n. c #D4B650",
"m. c #D4B952",
"M. c #D7C045",
"N. c #E9C740",
"B. c #ECCB43",
"V. c #F4D744",
"C. c #F1DD46",
"Z. c #F7DD4F",
"A. c #ECCE56",
"S. c #EACD5F",
"D. c #EED95C",
"F. c #F1D358",
"G. c #F2D353",
"H. c #FCE446",
"J. c #F6E249",
"K. c #FCE94A",
"L. c #ECCF62",
"P. c #EFD572",
"I. c #F0D678",
"U. c #FBEA6C",
"Y. c #F4E46B",
"T. c #F2DC84",
"R. c #F2DD8F",
"E. c #FAE98E",
"W. c #F4E19B",
"Q. c None",
/* pixels */
"Q.Q.Q.Q.Q.Q.Q.Q.Q.Q.Q.Q.Q.# + + o + @ Q.Q.Q.Q.Q.Q.Q.Q.Q.Q.Q.Q.Q.",
"Q.Q.Q.Q.Q.Q.Q.Q.Q.Q.Q.: 6 4 6 8 E <.{ p - Q.Q.Q.Q.Q.Q.Q.Q.Q.Q.Q.",
"Q.Q.Q.Q.Q.Q.Q.Q.Q.Q.2 i R j +.6.6.*.5.=.U 9 Q.Q.Q.Q.Q.Q.Q.Q.Q.Q.",
"Q.Q.Q.Q.Q.Q.Q.Q.Q.6 i ) 8 +.7...N I U Y &. .w Q.Q.Q.Q.Q.Q.Q.Q.Q.",
"Q.Q.Q.Q.Q.Q.Q.Q.8 r 2.8 E 5.{ N N Y ` ] W 8.8.< Q.Q.Q.Q.Q.Q.Q.Q.",
"Q.Q.Q.Q.Q.Q.Q.2 a 1./ u q.} b N K Y ' } } T 0.$.< Q.Q.Q.Q.Q.Q.Q.",
"Q.Q.Q.Q.Q.Q.Q.u ! b.b 6.5.n K K N N ` ' [ ' [ l.l Q.Q.Q.Q.Q.Q.Q.",
"Q.Q.Q.Q.Q.Q.7 M m.,.n q.W K I K y =.Y ' [ ] ' *.y.z Q.Q.Q.Q.Q.Q.",
"Q.Q.Q.Q.Q.Q.N v.n.A { :.n K I b ` %.N ` ` ' { W z.h Q.Q.Q.Q.Q.Q.",
"Q.Q.Q.Q.Q.Q.~ L.v.s ;.+.K I N 8 V.5.f ` ` ' ' T z.H Q.Q.Q.Q.Q.Q.",
"Q.Q.Q.Q.Q.#.7.S.X.A >.m K I N I k.=.j U ` ` ' U u.-.z Q.Q.Q.Q.Q.",
"Q.Q.Q.Q.Q.r.D.G.J ` ;.m N k y q.B.&._ t _ ` ' N W h.C Q.Q.Q.Q.Q.",
"Q.Q.Q.Q.Q.w.Y.V.S X.*.k k Y I.R.B.=.%.` g N _ f m x.C Q.Q.Q.Q.Q.",
"Q.Q.Q.Q.Q.e.U.H.c #.Q y E P.T.R.L.6.=.} ` k g [ I c.v Q.Q.Q.Q.Q.",
"Q.Q.Q.Q.Q.v.U.z.z ;.Y n T.W.T.A.N.5.} } ] T _ %.I c.V Q.Q.Q.Q.Q.",
"Q.Q.Q.Q.Q.4.K.x.h >.Z M.E.G.B.N.5.%. . .' ' %.@.E c.B Q.Q.Q.Q.Q.",
"Q.Q.Q.Q.Q.3.K.g.h u.k ~ Z.B.s.q.5. . .[ ' `  .#.Y z.B Q.Q.Q.Q.Q.",
"Q.Q.Q.Q.Q.( J.p.V *.u R z.0.;.$. .[ [ [ ` ` &.%.Y j.H Q.Q.Q.Q.Q.",
"Q.Q.Q.Q.Q.^ C.p.V @.j e f.9.$.} | [ [ _ I T @.;.` i.H Q.Q.Q.Q.Q.",
"Q.Q.Q.Q.Q.^ t.g.V +.Y f y 0.$.[ ' ' _ N m m ` =.T i.H Q.Q.Q.Q.Q.",
"Q.Q.Q.Q.Q.R <.p.D W { k b d I Y F S S n y f N T W y.D Q.Q.Q.Q.Q.",
"Q.Q.Q.Q.Q.L E u.S A %.g m I f u y e t u n S W k =.O.F Q.Q.Q.Q.Q.",
"Q.Q.Q.Q.Q.Q.Z ;.D h @.D N T I N y u n ' ] ' ` I u.J Q.Q.Q.Q.Q.Q.",
"Q.Q.Q.Q.Q.Q.j Y ' s +.=.m I U _ U ` _ ' [ [ U ` :.x Q.Q.Q.Q.Q.Q.",
"Q.Q.Q.Q.Q.Q.3 k ` s W %.m S I T ` ` ` } [ [ _  .' x Q.Q.Q.Q.Q.Q.",
"Q.Q.Q.Q.Q.Q.Q.0 D n s *.%.S I ` ' ' ` ' ' _ ` 8.z Q.Q.Q.Q.Q.Q.Q.",
"Q.Q.Q.Q.Q.Q.Q.% r S p { *.] A ' ' ` ' ' _ _  .` w Q.Q.Q.Q.Q.Q.Q.",
"Q.Q.Q.Q.Q.Q.Q.Q.: a e e @.*.{ D [ ] ' _ _ [  .= Q.Q.Q.Q.Q.Q.Q.Q.",
"Q.Q.Q.Q.Q.Q.Q.Q.Q.7 a < h @.*.X.A A W T ` _ 1 Q.Q.Q.Q.Q.Q.Q.Q.Q.",
"Q.Q.Q.Q.Q.Q.Q.Q.Q.# ; p 5 p T @.*.[ } T N < - Q.Q.Q.Q.Q.Q.Q.Q.Q.",
"Q.Q.Q.Q.Q.Q.Q.Q.Q.Q.  > > : * e b T I f - Q.Q.Q.Q.Q.Q.Q.Q.Q.Q.Q.",
"Q.Q.Q.Q.Q.Q.Q.Q.Q.Q.Q.Q.O $ . X o & @ # Q.Q.Q.Q.Q.Q.Q.Q.Q.Q.Q.Q."
};
