/* XPM */
static char *result[] = {
/* columns rows colors chars-per-pixel */
"32 32 160 2 ",
"   c #513806",
".  c #593F06",
"X  c #5F4508",
"o  c #624808",
"O  c #6E4D0A",
"+  c #6E5409",
"@  c #795D0E",
"#  c #7A600B",
"$  c #834E06",
"%  c #865207",
"&  c #865508",
"*  c #895508",
"=  c #8D590B",
"-  c #915B06",
";  c #856A0C",
":  c #886E0B",
">  c #93660C",
",  c #996608",
"<  c #926A0C",
"1  c #9A690B",
"2  c #8F760B",
"3  c #91770D",
"4  c #9C760F",
"5  c #957A0D",
"6  c #987F0B",
"7  c #8F681A",
"8  c #9C6C13",
"9  c #956D1A",
"0  c #937610",
"q  c #9D7317",
"w  c #957D11",
"e  c #9A7D14",
"r  c #9B731C",
"t  c #A2730E",
"y  c #A57B0D",
"u  c #A27514",
"i  c #A57A14",
"p  c #A97D15",
"a  c #A1771B",
"s  c #A57B1C",
"d  c #AA7E1B",
"f  c #A07B20",
"g  c #9E830D",
"h  c #A1870B",
"j  c #AD850F",
"k  c #A68C0E",
"l  c #A88D0F",
"z  c #A48615",
"x  c #AA8015",
"c  c #A58A11",
"v  c #AB8D11",
"b  c #A4841A",
"n  c #AD811D",
"m  c #B28513",
"M  c #B28D13",
"N  c #B98C15",
"B  c #B2851C",
"V  c #B58A1C",
"C  c #BA8C1D",
"Z  c #AD9213",
"A  c #AD941A",
"S  c #B59215",
"D  c #B99115",
"F  c #B5931E",
"G  c #BD921C",
"H  c #B69918",
"J  c #BA9D1B",
"K  c #BCA115",
"L  c #A58121",
"P  c #AA8723",
"I  c #AC8923",
"U  c #B48520",
"Y  c #B58A21",
"T  c #B88C21",
"R  c #BB9323",
"E  c #BD9B22",
"W  c #BF9F29",
"Q  c #BEA023",
"!  c #CA9E13",
"~  c #C1961C",
"^  c #C59B1C",
"/  c #C99E1E",
"(  c #DBAF0E",
")  c #C2A31B",
"_  c #CAA31E",
"`  c #C4AA1E",
"'  c #D5AA13",
"]  c #DCB417",
"[  c #DCB71D",
"{  c #E3BA11",
"}  c #C19522",
"|  c #C59B24",
" . c #CD9D24",
".. c #C4A124",
"X. c #CBA225",
"o. c #CAAA26",
"O. c #C5A229",
"+. c #CBA328",
"@. c #CDAB28",
"#. c #D2A326",
"$. c #D2AB24",
"%. c #D3AC2A",
"&. c #DAAE29",
"*. c #D5B426",
"=. c #D8B525",
"-. c #D5BB21",
";. c #D9B826",
":. c #D5B22C",
">. c #DAB52D",
",. c #D5BB2C",
"<. c #DCBA2D",
"1. c #DDBD31",
"2. c #E1BB2E",
"3. c #E1BF31",
"4. c #F3CB0F",
"5. c #EDC410",
"6. c #EFC810",
"7. c #F6D41A",
"8. c #DBC32E",
"9. c #DAC534",
"0. c #EFCE24",
"q. c #E2C22D",
"w. c #E5CB2C",
"e. c #F0CF24",
"r. c #E8D12E",
"t. c #F9DA27",
"y. c #F7DB2E",
"u. c #E4C331",
"i. c #E6CC34",
"p. c #EACD34",
"a. c #EDD135",
"s. c #EDD438",
"d. c #F1D535",
"f. c #F4DC36",
"g. c #F1D639",
"h. c #F4DB39",
"j. c #FAE337",
"k. c #F7E03B",
"l. c #FAE43D",
"z. c #FDE83F",
"x. c #F1D941",
"c. c #F0D949",
"v. c #F9E146",
"b. c #FAE44E",
"n. c #F9E657",
"m. c #FAE850",
"M. c #F9E45A",
"N. c #F9E764",
"B. c #F8E875",
"V. c #FAEB7C",
"C. c #FBEC84",
"Z. c #FBED89",
"A. c #FBED93",
"S. c #FCF197",
"D. c #FAF09E",
"F. c #FCF0A5",
"G. c #FBF1AB",
"H. c #FCF3B2",
"J. c #FCF8D6",
"K. c None",
/* pixels */
"K.K.K.K.K.K.K.K.K.K.K.= % % O o .   o # K.K.K.K.K.K.K.K.K.K.K.K.",
"K.K.K.K.K.K.K.K.K.* = q z K w.f.i.i.8.z + 5 K.K.K.K.K.K.K.K.K.K.",
"K.K.K.K.K.K.K.K.$ G F g w.l.l.l.l.k.h.z.i.@ # K.K.K.K.K.K.K.K.K.",
"K.K.K.K.K.K.K.1 a.o.k k.l.8.X.V U Y | ;.a.g.:.4 K.K.K.K.K.K.K.K.",
"K.K.K.K.K.K.1 f.,.3 a.z. .p m C R } } X.X._ a.u.; K.K.K.K.K.K.K.",
"K.K.K.K.K.- f.u.: ,.z...m m C T } | X.%.>./ ~ q.u.l K.K.K.K.K.K.",
"K.K.K.K.= 0.k.F o.z.+.d N U T T r Y %.%.>.>.~ ~ p.$.J K.K.K.K.K.",
"K.K.K.K.{ l.p.2 g.>.i B U U T f T n +.%.>.>.<./ q.a.M K.K.K.K.K.",
"K.K.K.= t.k.Q A z.b p U U T U r a.d } %.>.>.u.1.^ f.$.M K.K.K.K.",
"K.K.K.( l.k.5 8.s.i d U U U f } v.f T &.%.>.p.s.^ p.f.j K.K.K.K.",
"K.K.K.7.l.,.c 9.p q U U U P 7 c.S.>.d  .%.3.s.g.q./ f.D K.K.K.K.",
"K.K.^ B.m...A ,.u a U U a r 1.C.C.g.f U +.%.g.g.f.G d.$.M K.K.K.",
"K.K.[ V.Z.J r.o.u d d 9 T >.C.J.N.f.u.R U :.u.h.:.q ;.f.S K.K.K.",
"K.K.] A.Z.Z f.^ a a 9 %.N.H.H.M.x.v.l.u.} r P L f p.E a.) K.K.K.",
"K.K.5.G.V.l k.*.r r } m.H.F.b.b.v.h.g.p.u.>.O.| i.8.V f.M K.K.K.",
"K.K.4.H.C.g l.;.a d x.V.N.b.b.l.l.d.u.3.>.&.a.h.l.g.I f.j K.K.K.",
"K.K.4.G.B.g l.=.s U u.h.l.l.l.l.f.u.2.&.&.#.>.a.l.a.d f.K K.K.K.",
"K.K.5.D.N.l j.;.V f 2.u.a.h.h.d.u.2.2.&.&. . .2.l.u.C d.o.K.K.K.",
"K.K.( Z.n.Z k.8.d d T #.2.a.p.>.&.&.#.#.X. .#.%.2.&.V p.H K.K.K.",
"K.K._ y.v.H a.w.N C f T #. .#.#.#. . . . . .E r } &.q p.M K.K.K.",
"K.K.N e.l.@.-.h.~ ~ T s s R  . . . . . .n b %.:.I d _ ;.S K.K.K.",
"K.K.K.' l.;.K l./ C | | | I d n d } d n R %.>.>.>.x ;.) m K.K.K.",
"K.K.K.1 r.u.l 8.u.m } | | | | R B T  .@.>.u.u.u.q.N f.j K.K.K.K.",
"K.K.K.= _ 9...>.>.} T | | | | |  . .:.>.3.u.u.1.$.;.=.m K.K.K.K.",
"K.K.K.K.% >.@.Z >.:.V } | | |  .+.>.>.3.1.3.u.>.^ g.t K.K.K.K.K.",
"K.K.K.K.= 8 :.H :.:. .V | } +.X.>.>.1.8.<.<.:._ a.X.p K.K.K.K.K.",
"K.K.K.K.K.$ n T h :.:.1.U } | %.:.<.2.q.<.:.G i.;.y K.K.K.K.K.K.",
"K.K.K.K.K.K.& V R Z :.%.:.V C } +.@.%.:.X.X.a.:.< K.K.K.K.K.K.K.",
"K.K.K.K.K.K.K.* P C Z @.:.%.+.} C +...G R g.$.1 K.K.K.K.K.K.K.K.",
"K.K.K.K.K.K.K.K.$ u V g @.>.%.:.,.%.:.s.g.G < K.K.K.K.K.K.K.K.K.",
"K.K.K.K.K.K.K.K.K.* = u e e E :.>.9.1.| i 4 K.K.K.K.K.K.K.K.K.K.",
"K.K.K.K.K.K.K.K.K.K.K.= $ & > h v x & > K.K.K.K.K.K.K.K.K.K.K.K."
};
