/* XPM */
static char *result[] = {
/* columns rows colors chars-per-pixel */
"32 32 182 2 ",
"   c #513806",
".  c #593F06",
"X  c #5F4508",
"o  c #624808",
"O  c #6E4D0A",
"+  c #6E5409",
"@  c #795D0E",
"#  c #7A600B",
"$  c #834E06",
"%  c #865207",
"&  c #865508",
"*  c #895508",
"=  c #8D590B",
"-  c #915B06",
";  c #886E0B",
":  c #856A0C",
">  c #93660C",
",  c #996608",
"<  c #926A0C",
"1  c #9A690B",
"2  c #8F760B",
"3  c #91770D",
"4  c #9C760F",
"5  c #987F0B",
"6  c #957A0D",
"7  c #9C6C13",
"8  c #976F1C",
"9  c #937610",
"0  c #957D11",
"q  c #9A7D14",
"w  c #9A741C",
"e  c #9C7216",
"r  c #A4770E",
"t  c #A17414",
"y  c #A67D10",
"u  c #A47D1D",
"i  c #9E830D",
"p  c #A1870B",
"a  c #AD850F",
"s  c #A68C0E",
"d  c #A88D0F",
"f  c #AB8014",
"g  c #A58A11",
"h  c #AB8D11",
"j  c #A18718",
"k  c #AC831D",
"l  c #AF881F",
"z  c #A48615",
"x  c #B38512",
"c  c #B48B13",
"v  c #BB8E15",
"b  c #B3851C",
"n  c #B58B1D",
"m  c #B98C1B",
"M  c #AD9213",
"N  c #AD941A",
"B  c #B59215",
"V  c #BC9116",
"C  c #B5931E",
"Z  c #BE931B",
"A  c #B69918",
"S  c #BA9D1B",
"D  c #BCA115",
"F  c #A78421",
"G  c #A98723",
"H  c #B58C20",
"J  c #B49224",
"K  c #B99423",
"L  c #BC9C24",
"P  c #BF9F29",
"I  c #C2961A",
"U  c #C59C1C",
"Y  c #C99D1D",
"T  c #CA9E13",
"R  c #DBAF0E",
"E  c #C2A31B",
"W  c #CBA41E",
"Q  c #C4AA1E",
"!  c #D5AA13",
"~  c #DCB71D",
"^  c #DCB417",
"/  c #E3BA11",
"(  c #C19723",
")  c #C59C23",
"_  c #C3A223",
"`  c #CCA323",
"'  c #CCA925",
"]  c #C4A52B",
"[  c #CBA329",
"{  c #CDAD2B",
"}  c #D1A622",
"|  c #D3AB24",
" . c #D3A628",
".. c #D3AD29",
"X. c #D8AD2A",
"o. c #CEB028",
"O. c #D5B226",
"+. c #D8B525",
"@. c #DAB827",
"#. c #D4B22C",
"$. c #DAB52B",
"%. c #D5BA2C",
"&. c #DCBB2D",
"*. c #D5BB21",
"=. c #DAB430",
"-. c #D6BA31",
";. c #DDBE31",
":. c #DEBE3A",
">. c #E2BF2E",
",. c #E1BA31",
"<. c #F3CB0F",
"1. c #EDC410",
"2. c #EFC810",
"3. c #F6D41A",
"4. c #DBC32E",
"5. c #DDC233",
"6. c #EFCE24",
"7. c #E4C52F",
"8. c #E4CB2B",
"9. c #F0CF24",
"0. c #E8D02E",
"q. c #F9DA27",
"w. c #F7DB2E",
"e. c #E4C432",
"r. c #E9C732",
"t. c #E6CB34",
"y. c #EACC33",
"u. c #E5CA39",
"i. c #EED335",
"p. c #EED43A",
"a. c #F1D536",
"s. c #F4DB36",
"d. c #F1D638",
"f. c #F5DC3A",
"g. c #F8DF3C",
"h. c #F7E03C",
"j. c #F9E33D",
"k. c #FAE337",
"l. c #EBCF41",
"z. c #F4DA42",
"x. c #F5DF4B",
"c. c #F9E144",
"v. c #F6E04E",
"b. c #FAE449",
"n. c #F9E455",
"m. c #FAE850",
"M. c #F9E55B",
"N. c #FBE95B",
"B. c #DDC360",
"V. c #ECD46A",
"C. c #F2DE66",
"Z. c #EFDC7D",
"A. c #F6E361",
"S. c #F9E662",
"D. c #F4E16F",
"F. c #F9E76C",
"G. c #F7E672",
"H. c #F9E770",
"J. c #F9E976",
"K. c #FAEA7B",
"L. c #F6E57B",
"P. c #FBEC85",
"I. c #F6E78E",
"U. c #FBED89",
"Y. c #FAED93",
"T. c #FBEF9E",
"R. c #FAF09E",
"E. c #F6EAAD",
"W. c #FBF1AB",
"Q. c #FBF1A2",
"!. c #F9EFB3",
"~. c #FBF2B4",
"^. c #FCF4BC",
"/. c #FCF5C7",
"(. c #FDF6CF",
"). c #FCF7D5",
"_. c #FCF9D9",
"`. c #FDFAE5",
"'. c #FDFBED",
"]. c #FEFEFB",
"[. c #FDFBF1",
"{. c None",
/* pixels */
"{.{.{.{.{.{.{.{.{.{.{.{.# o   X X O & % = {.{.{.{.{.{.{.{.{.{.{.",
"{.{.{.{.{.{.{.{.{.{.0 + j 5.t.t.s.4.D z e * * {.{.{.{.{.{.{.{.{.",
"{.{.{.{.{.{.{.{.{.# @ y.j.h.k.j.j.j.k.8.i C I $ {.{.{.{.{.{.{.{.",
"{.{.{.{.{.{.{.{.9 #.f.,.' b b H _ &.d.j.s.s o.i.1 {.{.{.{.{.{.{.",
"{.{.{.{.{.{.{.: Z.f.) y x v ) [ ) ..) W j.i.3 &.s.1 {.{.{.{.{.{.",
"{.{.{.{.{.{.s V.L.) m x ` } X...$.y.y.W I a.%.; 7.s.- {.{.{.{.{.",
"{.{.{.{.{.S B.D...b I } } X.#.u { t.j.f.I I f.Q C h.9.= {.{.{.{.",
"{.{.{.{.{.h i.$.x U W W X.@.l ;.L p.c.j.i.U 7.d.2 y.j./ {.{.{.{.",
"{.{.{.{.B W k.m I } | O.X. .w g.J e.h.~.N.7.I j.N L h.q.= {.{.{.",
"{.{.{.{.a a.i.V ` | | @.,.H w n.{ #.d.h.^.N.W y.4.5 h.k.R {.{.{.",
"{.{.{.{.B i.x x } | X.@.) u u.!.A.J ;.i.N.^.y.U p.g -.j.3.{.{.{.",
"{.{.{.c ' &.e b } | O.$.H { M.).U.l.F t.s.J.H.S s.N ' m.J.U {.{.",
"{.{.{.B s.' $.8 `  .{ H -.v.`.]./.b.h.J ] f.h.` &.0.D U.P.~ {.{.",
"{.{.{.E i.K :.#.w w 8 e.z._.[.`.K.S.j.j.;.w 5.e.| s.N U.Y.^ {.{.",
"{.{.{.h s.w W.e.` H X.z._.'.^.S.M.x.c.j.b.c.G #.O.k.s J.W.1.{.{.",
"{.{.{.a s.l ~.C.t.a.r.Y.).Y.F.v.c.j.j.h.f.f.5.P @.k.i P.~.<.{.{.",
"{.{.{.S h.k !.C.f.r.a.g.N.J.F.c.j.j.g.g.i.y.,.]  .k.i J.W.<.{.{.",
"{.{.{.Q i.( I.x.,.X.r.f.f.c.c.z.g.f.f.f.f.a.{ u.U h.M S.R.<.{.{.",
"{.{.{.A 0.( r.l.X.} e.f.a.d.f.d.f.g.g.g.f.t.] $.V s.M N.Y.R {.{.",
"{.{.{.c y.u -.=.u H ) ,.f.g.f.g.g.g.f.e.#.J 5.@.V 0.C j.w.E {.{.",
"{.{.{.B @.n &.m b  .u K  ...e.g.i.,.$.[ G $.e.U O.*.o.h.9.v {.{.",
"{.{.{.x E i.k k $.&...) k J ) ) ( K m k #.d.d.v 0.D %.h.! {.{.{.",
"{.{.{.{.a s.&.k &.t.y.y.e.K K H u k K f.f.h.e.x 7.d e.i., {.{.{.",
"{.{.{.{.x O.i.) U >.r.7.7.y.7.7.,.a.g.f.J.d.U @.O._ e.W = {.{.{.",
"{.{.{.{.{.r f.;.n $.r.7.y.s.d.f.f.f.j.K.T.>.I e.M { $.$ {.{.{.{.",
"{.{.{.{.{.y ` d.[ m X.y.f.f.j.g.j.f.n.Q.y.Y t.O.A #.7 = {.{.{.{.",
"{.{.{.{.{.{.y @.p.$.b ) y.d.f.j.j.j.j.y.` t.#.p H k $ {.{.{.{.{.",
"{.{.{.{.{.{.{.> ..d.$.x m ) @.y.y.y.@.@.y.#.B C b * {.{.{.{.{.{.",
"{.{.{.{.{.{.{.{.1 ..d.y...I [ &.&.#.#.y.#.M n l * {.{.{.{.{.{.{.",
"{.{.{.{.{.{.{.{.{.< C f.d.-.e.u.y.e.;.{ i H e $ {.{.{.{.{.{.{.{.",
"{.{.{.{.{.{.{.{.{.{.4 t ) ;.e.e.;._ q q t = * {.{.{.{.{.{.{.{.{.",
"{.{.{.{.{.{.{.{.{.{.{.{.> & f h i < % % = {.{.{.{.{.{.{.{.{.{.{."
};
