/* XPM */
static char *result[] = {
/* columns rows colors chars-per-pixel */
"32 32 193 2 ",
"   c #0A0600",
".  c #1E1203",
"X  c #251703",
"o  c #3D2305",
"O  c #352205",
"+  c #422B07",
"@  c #492E08",
"#  c #402405",
"$  c #45310A",
"%  c #5D3909",
"&  c #503B0C",
"*  c #6C3F07",
"=  c #5C410C",
"-  c #62430D",
";  c #6B4B0E",
":  c #784D0E",
">  c #6C500F",
",  c #77510F",
"<  c #684C18",
"1  c #694A11",
"2  c #704E10",
"3  c #765414",
"4  c #7B5613",
"5  c #825E15",
"6  c #845E1F",
"7  c #846216",
"8  c #8C6516",
"9  c #8E6A1A",
"0  c #8F6A17",
"q  c #926513",
"w  c #936A16",
"e  c #946C19",
"r  c #9A6F1A",
"t  c #997017",
"y  c #97721C",
"u  c #9C731A",
"i  c #A57414",
"p  c #AA7716",
"a  c #AD7C16",
"s  c #A1771B",
"d  c #A57C1B",
"f  c #AA7D1D",
"g  c #A17A21",
"h  c #A37F30",
"j  c #AB821D",
"k  c #AA851E",
"l  c #B1831F",
"z  c #B3891A",
"x  c #BC891C",
"c  c #BB921C",
"v  c #AD8421",
"b  c #A88D28",
"n  c #A28D23",
"m  c #B58621",
"M  c #B48B21",
"N  c #BD8E23",
"B  c #B58D2E",
"V  c #AF9325",
"C  c #BB9424",
"Z  c #BE9A22",
"A  c #B3932C",
"S  c #BA942E",
"D  c #B89829",
"F  c #A88334",
"G  c #B48F38",
"H  c #B38F36",
"J  c #BD9735",
"K  c #B69A3A",
"L  c #B89A38",
"P  c #B69834",
"I  c #BDA335",
"U  c #BFA338",
"Y  c #C0961D",
"T  c #C29524",
"R  c #C39B25",
"E  c #CB9C25",
"W  c #C59E29",
"Q  c #CB9E29",
"!  c #C0962B",
"~  c #C19F32",
"^  c #CDA325",
"/  c #CCA42A",
"(  c #CDAA2B",
")  c #C7A427",
"_  c #D3A226",
"`  c #D0AE27",
"'  c #D8A628",
"]  c #D3AD2C",
"[  c #DCAB2A",
"{  c #D6A629",
"}  c #D0B027",
"|  c #D4B32C",
" . c #DCB42C",
".. c #DDBB2E",
"X. c #D6B929",
"o. c #C7A032",
"O. c #CCA632",
"+. c #C2A539",
"@. c #C6AC3A",
"#. c #D2AB34",
"$. c #D5AD38",
"%. c #D4B132",
"&. c #D9B531",
"*. c #D7B931",
"=. c #DFBC33",
"-. c #D3B53E",
";. c #DBBE3C",
":. c #E2B62D",
">. c #E4BC2F",
",. c #E2BE32",
"<. c #DFC42D",
"1. c #DFC332",
"2. c #E1C72E",
"3. c #E5C333",
"4. c #E9C633",
"5. c #ECCD35",
"6. c #E3C53C",
"7. c #E7CA3A",
"8. c #ECCD3A",
"9. c #F1CF3C",
"0. c #EFD136",
"q. c #EED13C",
"w. c #F3D53A",
"e. c #F6D93B",
"r. c #FADD3D",
"t. c #AE9149",
"y. c #B99A44",
"u. c #C89F49",
"i. c #D1AF4C",
"p. c #CBB14F",
"a. c #D9B848",
"s. c #D8B64A",
"d. c #C2A253",
"f. c #D5B758",
"g. c #E0BF48",
"h. c #DDBD67",
"j. c #D7BD78",
"k. c #E2C342",
"l. c #EACB46",
"z. c #E8CB48",
"x. c #EDD34A",
"c. c #F1D443",
"v. c #EACE54",
"b. c #E4C659",
"n. c #EED155",
"m. c #EFD65E",
"M. c #EFD85E",
"N. c #F1D753",
"B. c #F3DD5B",
"V. c #FBE34F",
"C. c #FBE75A",
"Z. c #EED66C",
"A. c #EAD067",
"S. c #F4DC69",
"D. c #E5C97A",
"F. c #E9CF78",
"G. c #EBD376",
"H. c #EED977",
"J. c #F2DC79",
"K. c #F1DC73",
"L. c #F7E265",
"P. c #F3E07A",
"I. c #E4CC8B",
"U. c #EBD485",
"Y. c #EDD588",
"T. c #F1DD84",
"R. c #EFDE91",
"E. c #E5D493",
"W. c #F6E48A",
"Q. c #F6E587",
"!. c #F4E394",
"~. c #EDDBA4",
"^. c #EDDBAA",
"/. c #EAD5A0",
"(. c #EDDDB4",
"). c #EEDEB8",
"_. c #FBEFA7",
"`. c #F8EBAA",
"'. c #FCF0A4",
"]. c #F0E1BF",
"[. c #F5EABC",
"{. c #FBEFB0",
"}. c #F0E2C2",
"|. c #F9F2CC",
" X c #FAF1C5",
".X c #F7EFD2",
"XX c #FBF5D4",
"oX c #FAF6E3",
"OX c #FCF8E5",
"+X c #FBF8EA",
"@X c #FDFBF2",
"#X c #FDFDFB",
"$X c None",
/* pixels */
"$X$X$X$X$X$X$X$X$X$X$X$X$X= o o # o @ $X$X$X$X$X$X$X$X$X$X$X$X$X",
"$X$X$X$X$X$X$X$X$X$X$X9 ) 6.6.*.D 3 < 3 - $X$X$X$X$X$X$X$X$X$X$X",
"$X$X$X$X$X$X$X$X$X$Xj l.J.k.1.,.1.#.y b 4 ; $X$X$X$X$X$X$X$X$X$X",
"$X$X$X$X$X$X$X$X$XR S.W.d.v u g #.,.( 7 I 7 3 $X$X$X$X$X$X$X$X$X",
"$X$X$X$X$X$X$X$Xf T.{.J C _ ] | g / &.W 9 +.0 4 $X$X$X$X$X$X$X$X",
"$X$X$X$X$X$X$Xk T.{.T z _ [ ,.n.f.T Q ,.k ~ +.9 1 $X$X$X$X$X$X$X",
"$X$X$X$X$X$X$X! XX` f _ 3.3.Z *.G.f.x 4.,.D p.A 9 $X$X$X$X$X$X$X",
"$X$X$X$X$X$Xp W.Q.l T  .4...M C N.^.I.Q w.( #.f.t.6 $X$X$X$X$X$X",
"$X$X$X$X$X$Xz _.i.z _ 4.3.C 5.C ( A.}.f.e.e.( f.j.h $X$X$X$X$X$X",
"$X$X$X$X$Xi z._.c C  .4. .g R.( M 6.}.(.Q e...a.I.S F $X$X$X$X$X",
"$X$X$X$X$Xp S.L.z E 4.,.d y.|.0.d ..Z.].o.=...&.Y.k.H $X$X$X$X$X",
"$X$X$X$X$Xz e.7.M R 4.] d oX+XJ.M k 3.m.i.W 8.%.Y.7.L $X$X$X$X$X",
"$X$X$X$X$X) B.( W M Z s E.oX#XoX[.R u X.%.C e.| J.8.U $X$X$X$X$X",
"$X$X$X$X$XZ L.m Y.G N T.|.#X#X@X@Xn.] t Z R 3.` J.q.+.$X$X$X$X$X",
"$X$X$X$X$Xc C.B .XF.Z.T.+X#X@XOXOXN.5. .u k 5.} P.q.+.$X$X$X$X$X",
"$X$X$X$X$Xc C.S oX!.8.`.XXOXoXOX Xc.0.,.' u | X.B.q.K $X$X$X$X$X",
"$X$X$X$X$Xc V.J [.H.8.H.|.XXXX!.c.w.8.,.[ u 3.X.e.7.K $X$X$X$X$X",
"$X$X$X$X$Xc w.C T.m.5.l.T.`.J.N.9.5.0.:.[ q w...q.;.I $X$X$X$X$X",
"$X$X$X$X$Xc 5.E B.n. .3.x.A.m.8.0.0.>.[ Z e | <.w.a.P $X$X$X$X$X",
"$X$X$X$X$XY 3.N 4.$.x [ 3.5.4.5.5.[ [ l u M 7.<.w.@.D $X$X$X$X$X",
"$X$X$X$X$Xx ..) N m s g N E ' ' [ ' l u u &.5...7.+.V $X$X$X$X$X",
"$X$X$X$X$Xx ^ 3.u T _ T s e s f u p T ] r w.3. .6.A n $X$X$X$X$X",
"$X$X$X$X$X$Xx 9.v T E ,.] v t w r #.D.g.N e.} / O.k $X$X$X$X$X$X",
"$X$X$X$X$X$Xp 8.O.f E ,.4.3.s.u.h.^.~.a. .w.Z / M t $X$X$X$X$X$X",
"$X$X$X$X$X$Xp 3.9.v E :.5.5.m.D.(.).Y.C w.7.z T t > $X$X$X$X$X$X",
"$X$X$X$X$X$X$Xp r.:.C ,.4.5.A.~.(.U./ 5.e.z v l 5 $X$X$X$X$X$X$X",
"$X$X$X$X$X$X$Xq l.e.T ..5.l.G./.b.] 0.e.3.d M 0 $ $X$X$X$X$X$X$X",
"$X$X$X$X$X$X$X$X* z.e.] 3.8.v.3. .3.w.0.k e q - $X$X$X$X$X$X$X$X",
"$X$X$X$X$X$X$X$X$X: 8.5.0.5.5.4.w.e.,.j 7 w 4 $X$X$X$X$X$X$X$X$X",
"$X$X$X$X$X$X$X$X$X* : 7.5.0.0.w.0.( q , q = @ $X$X$X$X$X$X$X$X$X",
"$X$X$X$X$X$X$X$X$X$X$X% -.7.1.| R % - ; ;   $X$X$X$X$X$X$X$X$X$X",
"$X$X$X$X$X$X$X$X$X$X$X$X+ o > & X . + O $X$X$X$X$X$X$X$X$X$X$X$X"
};
