/* XPM */
static char *result[] = {
/* columns rows colors chars-per-pixel */
"32 32 109 2 ",
"   c #150C02",
".  c #1C1102",
"X  c #362407",
"o  c #33250A",
"O  c #3A2709",
"+  c #35280C",
"@  c #462A06",
"#  c #432E0A",
"$  c #573709",
"%  c #453614",
"&  c #4B3A15",
"*  c #553F13",
"=  c #623703",
"-  c #643904",
";  c #6B3E06",
":  c #653F0A",
">  c #594417",
",  c #6D4206",
"<  c #6C4209",
"1  c #73470B",
"2  c #764B0B",
"3  c #794D0C",
"4  c #7E5707",
"5  c #7E520D",
"6  c #644D19",
"7  c #6A5019",
"8  c #7E5914",
"9  c #735518",
"0  c #75581A",
"q  c #814E08",
"w  c #82550E",
"e  c #8F570A",
"r  c #845A0C",
"t  c #8C5F0F",
"y  c #835711",
"u  c #865C11",
"i  c #8A5F11",
"p  c #956E0B",
"a  c #8C6112",
"s  c #8E6A1C",
"d  c #936513",
"f  c #966914",
"g  c #9A6B14",
"h  c #936E1D",
"j  c #996E18",
"k  c #9C7116",
"l  c #9D751C",
"z  c #A37C0B",
"x  c #A17417",
"c  c #AA7715",
"v  c #A17A12",
"b  c #AC7D13",
"n  c #A1761B",
"m  c #A17A19",
"M  c #A97C1C",
"N  c #AB840A",
"B  c #BE970B",
"V  c #BF980E",
"C  c #AC831D",
"Z  c #B08C16",
"A  c #B2831C",
"S  c #B58D1E",
"D  c #BA8A1C",
"F  c #BC9211",
"G  c #BC9A17",
"H  c #BD9A1D",
"J  c #A78322",
"K  c #AD8621",
"L  c #B18520",
"P  c #B58C22",
"I  c #B98D20",
"U  c #B69221",
"Y  c #BD9323",
"T  c #BE9B24",
"R  c #C39C0E",
"E  c #C7A413",
"W  c #C8A611",
"Q  c #C7A81D",
"!  c #CDAB1C",
"~  c #D4B11C",
"^  c #C18E20",
"/  c #C29724",
"(  c #C29B25",
")  c #C89F27",
"_  c #C5A225",
"`  c #CFAC22",
"'  c #CDA529",
"]  c #CEA92A",
"[  c #D3AE2B",
"{  c #D5B323",
"}  c #D6B825",
"|  c #DDBD24",
" . c #D4B42C",
".. c #D8B32A",
"X. c #DCBC2E",
"o. c #DEBE30",
"O. c #E3C429",
"+. c #E9CA2D",
"@. c #E4C631",
"#. c #E6CA32",
"$. c #EACE31",
"%. c #EDD234",
"&. c #F1D534",
"*. c #F5DA37",
"=. c #F5DC39",
"-. c #F8DF39",
";. c #F7E03A",
":. c #F9E03A",
">. c None",
/* pixels */
">.>.>.>.>.>.>.>.>.>.>.>.>.>.= @     O >.>.>.>.>.>.>.>.>.>.>.>.>.",
">.>.>.>.>.>.>.>.>.>.>.>.>.5 M 5 * % + $ >.>.>.>.>.>.>.>.>.>.>.>.",
">.>.>.>.>.>.>.>.>.>.>.>.< T X.( < 6 h y >.>.>.>.>.>.>.>.>.>.>.>.",
">.>.>.>.>.>.>.>.>.>.>.>.f @.) T i K Y I 2 >.>.>.>.>.>.>.>.>.>.>.",
">.>.>.>.>.>.>.>.>.>.>.>.O.X.2 ) l j ) ] v >.>.>.>.>.>.>.>.>.>.>.",
">.>.>.>.>.>.>.>.>.>.>.r *.u ; P ( 2 ] @.` v >.>.>.>.>.>.>.>.>.>.",
">.>.>.>.>.>.>.>.>.>.>.N -.w y 3 ' 2 [ %.&.V >.>.>.>.>.>.>.>.>.>.",
">.>.>.>.>.>.>.>.>.>.>.G  .2 n w / t ( *.-.E >.>.>.>.>.>.>.>.>.>.",
">.>.>.>.>.>.>.>.>.>.>.! M 5 m 3 P k C -.:.~ >.>.>.>.>.>.>.>.>.>.",
">.>.>.>.>.>.>.>.>.>.a } 3 u j w f M f *.:.| { >.>.>.>.>.>.>.>.>.",
">.>.>.>.>.>.>.>.>.>.5 X.1 w A i a C t %.:.O.~ >.>.>.>.>.>.>.>.>.",
">.>.>.>.>.>.>.>.>.>.<  .3 f ^ f w S w X.:.+.! >.>.>.>.>.>.>.>.>.",
">.>.>.>.>.>.>.>.>.>.N $.< C [ A w I 2 ] :.%.W >.>.>.>.>.>.>.>.>.",
">.>.>.>.>.>.>.>.>.>.N &.3 ..O.D 3 I ; ( :.%.R >.>.>.>.>.>.>.>.>.",
">.>.>.>.>.>.>.>.>.>.N &.5 ..o./ 2 I ; / :.&.B >.>.>.>.>.>.>.>.>.",
">.>.>.>.>.>.>.>.>.>.N %.2 ..@./ 1 L = Y :.*.B >.>.>.>.>.>.>.>.>.",
">.>.>.>.>.>.>.>.>.>.N %.2 T $.Y 3 S = Y -.*.B >.>.>.>.>.>.>.>.>.",
">.>.>.>.>.>.>.>.>.>.z %.3 T X.S 3 c - Y -.&.B >.>.>.>.>.>.>.>.>.",
">.>.>.>.>.>.>.>.>.>.p %.2 U X./ 2 g ; Y -.&.R >.>.>.>.>.>.>.>.>.",
">.>.>.>.>.>.>.>.>.>.p %.u l  .x 2 j 2 ) -.+.F >.>.>.>.>.>.>.>.>.",
">.>.>.>.>.>.>.>.>.>.p O.9 a / m 3 x y [ *...b >.>.>.>.>.>.>.>.>.",
">.>.>.>.>.>.>.>.>.>.v X.u 3 w 3 3 x i [ o.D g >.>.>.>.>.>.>.>.>.",
">.>.>.>.>.>.>.>.>.>.Z Q P 1 2 5 3 g k [ ' c >.>.>.>.>.>.>.>.>.>.",
">.>.>.>.>.>.>.>.>.>.>.p X.2 l w w d C ] ) g >.>.>.>.>.>.>.>.>.>.",
">.>.>.>.>.>.>.>.>.>.>.r %.2 l 5 f y J U P e >.>.>.>.>.>.>.>.>.>.",
">.>.>.>.>.>.>.>.>.>.>.4 _ y 2 w U < J J l q >.>.>.>.>.>.>.>.>.>.",
">.>.>.>.>.>.>.>.>.>.>.< H j r a Y 2 l l 8 u >.>.>.>.>.>.>.>.>.>.",
">.>.>.>.>.>.>.>.>.>.>.>.Z _ a T f 8 s h : >.>.>.>.>.>.>.>.>.>.>.",
">.>.>.>.>.>.>.>.>.>.>.>.y [ ) / 5 9 0 0 @ >.>.>.>.>.>.>.>.>.>.>.",
">.>.>.>.>.>.>.>.>.>.>.>.: M M M : > 7 # >.>.>.>.>.>.>.>.>.>.>.>.",
">.>.>.>.>.>.>.>.>.>.>.>.>.w M w * & o o >.>.>.>.>.>.>.>.>.>.>.>.",
">.>.>.>.>.>.>.>.>.>.>.>.>.>.= @ .   o >.>.>.>.>.>.>.>.>.>.>.>.>."
};
