/* XPM */
static char *result[] = {
/* columns rows colors chars-per-pixel */
"32 32 100 2 ",
"   c #150C02",
".  c #1C1102",
"X  c #362407",
"o  c #33250A",
"O  c #3A2709",
"+  c #35280C",
"@  c #462A06",
"#  c #432E0A",
"$  c #5F3303",
"%  c #573709",
"&  c #453614",
"*  c #4D3A14",
"=  c #553E13",
"-  c #623703",
";  c #663A05",
":  c #6A3E06",
">  c #643F0B",
",  c #594417",
"<  c #6E4107",
"1  c #6D430A",
"2  c #704307",
"3  c #71460B",
"4  c #754A0B",
"5  c #7A4D0C",
"6  c #7E510E",
"7  c #644D19",
"8  c #6A5019",
"9  c #7E5914",
"0  c #735518",
"q  c #75581A",
"w  c #814E08",
"e  c #81550E",
"r  c #8F570A",
"t  c #85580F",
"y  c #8D5E0E",
"u  c #835711",
"i  c #865A10",
"p  c #8C5E10",
"a  c #8D6113",
"s  c #8E6A1C",
"d  c #926413",
"f  c #976916",
"g  c #9A6C15",
"h  c #936E1D",
"j  c #9A6D18",
"k  c #9D7016",
"l  c #9D741B",
"z  c #A17417",
"x  c #AA7715",
"c  c #A17912",
"v  c #AC7D13",
"b  c #A1751B",
"n  c #A17819",
"m  c #AB7D1D",
"M  c #BE970B",
"N  c #BF980E",
"B  c #AC821E",
"V  c #B2831C",
"C  c #B68A1E",
"Z  c #BA8A1C",
"A  c #BC9211",
"S  c #A78322",
"D  c #AF8220",
"F  c #B18520",
"G  c #B58B21",
"H  c #B98D21",
"J  c #B69221",
"K  c #BD9323",
"L  c #BE9B24",
"P  c #C39C0E",
"I  c #C7A413",
"U  c #C8A611",
"Y  c #CEAA19",
"T  c #D4B11C",
"R  c #C18E20",
"E  c #C39724",
"W  c #C39C26",
"Q  c #C89E28",
"!  c #CFAC22",
"~  c #CAA428",
"^  c #CEA92A",
"/  c #D3AD2B",
"(  c #D5B323",
")  c #DDBD21",
"_  c #D4B22C",
"`  c #D8B32A",
"'  c #DDBD2E",
"]  c #DEBE30",
"[  c #E4C528",
"{  c #E9CA2D",
"}  c #E5C732",
"|  c #E6CA32",
" . c #EDD234",
".. c #F1D535",
"X. c #F3D836",
"o. c #F5DB39",
"O. c #F8DF39",
"+. c #F7E03A",
"@. c #F9E03A",
"#. c None",
/* pixels */
"#.#.#.#.#.#.#.#.#.#.#.#.#.#.O     @ - #.#.#.#.#.#.#.#.#.#.#.#.#.",
"#.#.#.#.#.#.#.#.#.#.#.#.#.% + & * 6 m 6 #.#.#.#.#.#.#.#.#.#.#.#.",
"#.#.#.#.#.#.#.#.#.#.#.#.#.t h 7 1 m m m : #.#.#.#.#.#.#.#.#.#.#.",
"#.#.#.#.#.#.#.#.#.#.#.#.5 J K D 6 m b m u #.#.#.#.#.#.#.#.#.#.#.",
"#.#.#.#.#.#.#.#.#.#.#.#.k ^ ~ k f K 4 b f #.#.#.#.#.#.#.#.#.#.#.",
"#.#.#.#.#.#.#.#.#.#.#.c T } ~ 5 H G : 3 m : #.#.#.#.#.#.#.#.#.#.",
"#.#.#.#.#.#.#.#.#.#.#.N X. .^ 2 Q 5 6 6 F : #.#.#.#.#.#.#.#.#.#.",
"#.#.#.#.#.#.#.#.#.#.#.U +.o.W y E u b 3 j 5 #.#.#.#.#.#.#.#.#.#.",
"#.#.#.#.#.#.#.#.#.#.#.T +.O.S g G 5 b e e u #.#.#.#.#.#.#.#.#.#.",
"#.#.#.#.#.#.#.#.#.#.( ) O.X.f m f u f i 2 d #.#.#.#.#.#.#.#.#.#.",
"#.#.#.#.#.#.#.#.#.#.T [ O. .a B d i V i : f 1 #.#.#.#.#.#.#.#.#.",
"#.#.#.#.#.#.#.#.#.#.Y { O.' e C e f R f : f 1 #.#.#.#.#.#.#.#.#.",
"#.#.#.#.#.#.#.#.#.#.I  .O.^ 4 C e V ` V : j : #.#.#.#.#.#.#.#.#.",
"#.#.#.#.#.#.#.#.#.#.P ..O.W < H 5 Z ' ` 5 j ; #.#.#.#.#.#.#.#.#.",
"#.#.#.#.#.#.#.#.#.#.M ..@.L : H 4 E ' ` 5 b - #.#.#.#.#.#.#.#.#.",
"#.#.#.#.#.#.#.#.#.#.M X.@.K - V 4 E } ` 4 f - #.#.#.#.#.#.#.#.#.",
"#.#.#.#.#.#.#.#.#.#.M X.O.K - C 4 R | ~ 5 j $ #.#.#.#.#.#.#.#.#.",
"#.#.#.#.#.#.#.#.#.#.M X.@.L ; m 4 Z ' L 3 j $ #.#.#.#.#.#.#.#.#.",
"#.#.#.#.#.#.#.#.#.#.N  .@.K : f 5 I ` C 3 l - #.#.#.#.#.#.#.#.#.",
"#.#.#.#.#.#.#.#.#.#.A { @.Q 4 j 5 l _ l 4 d : #.#.#.#.#.#.#.#.#.",
"#.#.#.#.#.#.#.#.#.#.v ` X._ u l 5 l E d 1 u 1 #.#.#.#.#.#.#.#.#.",
"#.#.#.#.#.#.#.#.#.#.g Z ] / p z 6 5 t 0 1 6 3 #.#.#.#.#.#.#.#.#.",
"#.#.#.#.#.#.#.#.#.#.#.x ^ / l l 5 5 5 3 1 u #.#.#.#.#.#.#.#.#.#.",
"#.#.#.#.#.#.#.#.#.#.#.g W ~ B d 6 6 l 4 3 6 #.#.#.#.#.#.#.#.#.#.",
"#.#.#.#.#.#.#.#.#.#.#.r G G F 6 f 6 b 3 6 4 #.#.#.#.#.#.#.#.#.#.",
"#.#.#.#.#.#.#.#.#.#.#.w l S S 1 F 6 4 3 m 1 #.#.#.#.#.#.#.#.#.#.",
"#.#.#.#.#.#.#.#.#.#.#.i 9 l l 4 H u e i m : #.#.#.#.#.#.#.#.#.#.",
"#.#.#.#.#.#.#.#.#.#.#.#., h h 9 f H e b f #.#.#.#.#.#.#.#.#.#.#.",
"#.#.#.#.#.#.#.#.#.#.#.#.@ 0 q 0 6 G F m 6 #.#.#.#.#.#.#.#.#.#.#.",
"#.#.#.#.#.#.#.#.#.#.#.#.#.# 8 , > m m m 1 #.#.#.#.#.#.#.#.#.#.#.",
"#.#.#.#.#.#.#.#.#.#.#.#.#.X + * = 5 m e #.#.#.#.#.#.#.#.#.#.#.#.",
"#.#.#.#.#.#.#.#.#.#.#.#.#.#.o   . @ - #.#.#.#.#.#.#.#.#.#.#.#.#."
};
