/* XPM */
static char *result[] = {
/* columns rows colors chars-per-pixel */
"32 32 199 2 ",
"   c #452D0C",
".  c #4F330D",
"X  c #553609",
"o  c #633F08",
"O  c #6D4504",
"+  c #65430F",
"@  c #694508",
"#  c #734601",
"$  c #784C02",
"%  c #7E5103",
"&  c #7D5408",
"*  c #724A10",
"=  c #7E5211",
"-  c #865500",
";  c #88580C",
":  c #855805",
">  c #865914",
",  c #8B5D13",
"<  c #825512",
"1  c #8F6000",
"2  c #8F690A",
"3  c #9E6D03",
"4  c #966906",
"5  c #9D730A",
"6  c #8E6016",
"7  c #936314",
"8  c #9B6D1B",
"9  c #966A18",
"0  c #AA6F00",
"q  c #A16E03",
"w  c #AD7A02",
"e  c #A37C0A",
"r  c #A87506",
"t  c #B07C00",
"y  c #A16F18",
"u  c #A06F14",
"i  c #A27016",
"p  c #A4721B",
"a  c #A97618",
"s  c #AC7A17",
"d  c #B37D14",
"f  c #B17E18",
"g  c #B37E20",
"h  c #AD8007",
"j  c #B38202",
"k  c #B98A04",
"l  c #B08508",
"z  c #B88809",
"x  c #B69409",
"c  c #B48111",
"v  c #BA8B14",
"b  c #B5821D",
"n  c #BB861B",
"m  c #B78818",
"M  c #BC8B1C",
"N  c #BA8716",
"B  c #BF9019",
"V  c #B98522",
"C  c #BD8C23",
"Z  c #BD9323",
"A  c #BF9D28",
"S  c #C29B03",
"D  c #C28915",
"F  c #C28A1C",
"G  c #C48719",
"H  c #C39517",
"J  c #C79817",
"K  c #C19219",
"L  c #CF931F",
"P  c #C0991F",
"I  c #C99A1D",
"U  c #CE9917",
"Y  c #D29B1F",
"T  c #C8A400",
"R  c #C8AA00",
"E  c #CCB300",
"W  c #D7BD0C",
"Q  c #CEA21E",
"!  c #E0BB1D",
"~  c #C28C21",
"^  c #C69223",
"/  c #CA9524",
"(  c #C79C20",
")  c #CD9A23",
"_  c #C19D2B",
"`  c #CA9829",
"'  c #D19D24",
"]  c #D39E29",
"[  c #C4A321",
"{  c #CCA222",
"}  c #CDAA24",
"|  c #C7A729",
" . c #C7A827",
".. c #D3A323",
"X. c #D8A524",
"o. c #D1AA24",
"O. c #DAAB27",
"+. c #D5A42A",
"@. c #DBA62B",
"#. c #DDAC2A",
"$. c #D4AC2A",
"%. c #DDB32A",
"&. c #DEBA2B",
"*. c #DEB325",
"=. c #D9AD36",
"-. c #D6B730",
";. c #DDB435",
":. c #D9B73F",
">. c #D5B23C",
",. c #E0AD2C",
"<. c #E4B42C",
"1. c #E8B62F",
"2. c #E4BC2C",
"3. c #E9BB2E",
"4. c #E3BB34",
"5. c #EABB31",
"6. c #E3B938",
"7. c #E7B93B",
"8. c #DBC12B",
"9. c #D5C335",
"0. c #DCC636",
"q. c #E6CA20",
"w. c #E5C42E",
"e. c #E9C32E",
"r. c #E7CA2F",
"t. c #ECCB29",
"y. c #EAD023",
"u. c #E6C232",
"i. c #ECC332",
"p. c #ECCB32",
"a. c #EBC33C",
"s. c #EDCC38",
"d. c #E5C13D",
"f. c #F2C532",
"g. c #F3CC34",
"h. c #ECD235",
"j. c #ECD13A",
"k. c #F4D236",
"l. c #F8D236",
"z. c #F6D837",
"x. c #F5D53A",
"c. c #F9D53A",
"v. c #F6DB3B",
"b. c #FADD3B",
"n. c #F8DC35",
"m. c #FCE53E",
"M. c #FDE83F",
"N. c #F8E035",
"B. c #D0A444",
"V. c #E9BC40",
"C. c #EABE52",
"Z. c #DDC250",
"A. c #E4C242",
"S. c #EACC4C",
"D. c #E5C74C",
"F. c #F3CF42",
"G. c #E7D447",
"H. c #EBD24D",
"J. c #F3D246",
"K. c #F5D840",
"L. c #F3DA49",
"P. c #F9DD4B",
"I. c #F8D946",
"U. c #EBC254",
"Y. c #E0C351",
"T. c #F3D954",
"R. c #F3D857",
"E. c #F7E046",
"W. c #FCE543",
"Q. c #FEE942",
"!. c #FCE44B",
"~. c #FEEA4C",
"^. c #F6E353",
"/. c #FCE353",
"(. c #FEE952",
"). c #FDE65B",
"_. c #FEEA5C",
"`. c #F0CD67",
"'. c #F2DE69",
"]. c #F7D878",
"[. c #F8DD78",
"{. c #FBE363",
"}. c #FDEA65",
"|. c #FDEC6A",
" X c #F5E169",
".X c #F7E077",
"XX c #F7E872",
"oX c #FCEC74",
"OX c #FCEC7B",
"+X c #FBEA86",
"@X c #FFF183",
"#X c #FFF28C",
"$X c #FBE993",
"%X c #F9E6A8",
"&X c #FDF0AB",
"*X c #FDF2B4",
"=X c #FCF0BE",
"-X c #FCF5D1",
";X c None",
/* pixels */
";X;X;X;X;X;X;X;X;X;X;X;X  + * < > # O X ;X;X;X;X;X;X;X;X;X;X;X;X",
";X;X;X;X;X;X;X;X;X  , M ) ` / ~ b 0 - - - 4 O ;X;X;X;X;X;X;X;X;X",
";X;X;X;X;X;X;X;Xp #.e.k.b.m.b.b.c.l.f.<.~ ; : 0 @ ;X;X;X;X;X;X;X",
";X;X;X;X;X;X+ %.l.m.h.} n f n L ) ' 4.l.g.f.F : t 3 ;X;X;X;X;X;X",
";X;X;X;X;X> J.Q.j.B B B I Y Y ..{ ' ..@.4.p.l.<.i w j ;X;X;X;X;X",
";X;X;X;X6 L.~.} v Q } X.X...X.2.h.k.i.6.;.4.I.l.<.s k j ;X;X;X;X",
";X;X;X= L._.Z m ....Q ..O.X.~ g.n.b.c.x.!.T.A.v.l.,.f S h ;X;X;X",
";X;X;XA.|.A d ....' ....%.M c.s.m.m.b.W./._.S.;.n.l.' +.R 2 ;X;X",
";X;XC |.Z.e I ......X.O.) ] ~.^.g.m.m.m.~./.).D.%.v.l.b ! S ;X;X",
";Xa H.OXm K ..Y ..X.....^ 7.#X#X6.b.m.M.~._.(.OX;.g.c.O...E 5 ;X",
";XZ |.Z.v Q ' X...+...F @.].*X@XQ.1.c.m.W.(._.|.R.&.b.g.f q.S ;X",
";X8.OXK F Q X.' Y G a / U.=X*X_.Q.Q.1.1.m.Q.(.(.oX' C i.) p.E ;X",
"} G.'.c ( ..' d 8 C ] C.%X-XoXQ.Q.Q.m.c.@.<.K.c.B.V z.Q.*...E e ",
"[  XS.d / G i n ,.U.`.%X*XOXQ.M.W.Q.W.m.b.g.=.` ] l.~.P.i.~ W x ",
"[ XX=.c D f ] 7.XX[.$X#X}.Q.W.M.M.Q.Q.M.N.j.p.u.u.s.}.$XR.V y.S ",
"[ XX>.z N ' 7.+X'.}._.Q.W.m.m.W.M.M.M.Q.m.m.x.x.b.E.oX*XJ.f N.S ",
" .XX:.v F ,.a.$X_.!.Q.W.M.m.m.M.M.Q.M.M.m.x.v.W.Q.(.@X*XJ.f n.S ",
"Q ^.G.v D @.a.[./.Q.m.m.m.M.M.Q.M.M.m.v.p.r.N.W.Q.(.#X&XF.b y.S ",
" .N.x.B D L ,.6.g.v.v.b.N.m.m.N.N.z.h.w.w.k.b.b.v.!.OX{.5.C W x ",
";Xh.W.} J Y F X.,.1.l.g.l.v.k.s.r.2.&.2.w.h.s.p.h.m.(.x.#.' E e ",
";X8.Q.j.H <.<.) ^ +.1.1.<.<.w.e.w.&.$. . .A | A Z @.m.m.F 3.E ;X",
";X[ m.E.o.Q 2.2.<.] / ) ' ....} Z C Z $.-.0.9.9.0.^ ) g.a ! S ;X",
";X( r.W.h.{ 2.e.e.2.<.%.#.+.+.+.$.p.k.K.E.!.W.W.p.$.g.+.~ T e ;X",
";X;X[ m.E.w.*.e.e.g.e.e.e.5.e.u.p.k.K.E.~.(.~.v.{ g.g.a U S ;X;X",
";X;X;X2.m.b.&.%.w.t.p.p.g.g.g.x.v.E.!.(._.(.b.^ p.g.^ b S 4 ;X;X",
";X;X;X8 w.M.W.u.%.w.p.g.v.P.P./.).).}.).).H.} <.g.] 7 j h ;X;X;X",
";X;X;X;Xy 3.m.v.p.%.g.z.K./././.).}.).R.d.$.f.g.+., 0 k ;X;X;X;X",
";X;X;X;X;X7 <.g.m.v.v.m.m.!././.).L.4.4.5.g.5.' < q k ;X;X;X;X;X",
";X;X;X;X;X;X* ' #.f.b.m.m.m.m.I.z.c.g.f.3.,.y o t e ;X;X;X;X;X;X",
";X;X;X;X;X;X;X;Xi / ] @.f.f.f.f.f.5.,.^ 8 @ - j & ;X;X;X;X;X;X;X",
";X;X;X;X;X;X;X;X;X. , V V f p 8 7 - O # : q : ;X;X;X;X;X;X;X;X;X",
";X;X;X;X;X;X;X;X;X;X;X;X. * = < > $ % @ ;X;X;X;X;X;X;X;X;X;X;X;X"
};
