/* XPM */
static char *result[] = {
/* columns rows colors chars-per-pixel */
"32 32 148 2 ",
"   c #161106",
".  c #191307",
"X  c #1C1406",
"o  c #211808",
"O  c #231908",
"+  c #261B09",
"@  c #281B08",
"#  c #2B1E09",
"$  c #2F1E08",
"%  c #342208",
"&  c #342309",
"*  c #33240C",
"=  c #392609",
"-  c #3B270A",
";  c #3D2A0E",
":  c #422A0A",
">  c #422B0B",
",  c #452C0B",
"<  c #472E0B",
"1  c #402C0E",
"2  c #412E0F",
"3  c #4C340F",
"4  c #53360C",
"5  c #54380D",
"6  c #56390D",
"7  c #5A3A0D",
"8  c #5B3A0D",
"9  c #5D3B0D",
"0  c #4F3811",
"q  c #513810",
"w  c #543C12",
"e  c #593E15",
"r  c #5C4010",
"t  c #64420F",
"y  c #66450F",
"u  c #69450F",
"i  c #6B450E",
"p  c #6B460F",
"a  c #68490F",
"s  c #754C0F",
"d  c #614617",
"f  c #694A10",
"g  c #6C4C11",
"h  c #6B4B15",
"j  c #694A17",
"k  c #6B4A17",
"l  c #6C4E17",
"z  c #724910",
"x  c #755012",
"c  c #765713",
"v  c #755119",
"b  c #7E5819",
"n  c #7F5A19",
"m  c #835611",
"M  c #865E13",
"N  c #885B12",
"B  c #815919",
"V  c #835B1A",
"C  c #806014",
"Z  c #8B6B15",
"A  c #81601D",
"S  c #89611A",
"D  c #89601B",
"F  c #8E631C",
"G  c #956614",
"H  c #9D6C15",
"J  c #92671D",
"K  c #906D1F",
"L  c #986D1D",
"P  c #996D1E",
"I  c #9D7117",
"U  c #987717",
"Y  c #A47416",
"T  c #AD7D18",
"R  c #8F7321",
"E  c #957422",
"W  c #A37320",
"Q  c #A67922",
"!  c #A67F26",
"~  c #B2841B",
"^  c #B7881A",
"/  c #B08E1B",
"(  c #B88A1A",
")  c #BD911C",
"_  c #B08121",
"`  c #B48625",
"'  c #B88722",
"]  c #B2952D",
"[  c #BB9D2D",
"{  c #C19A1D",
"}  c #C19A1F",
"|  c #C29D1C",
" . c #C29F1D",
".. c #C39F1D",
"X. c #C29F1E",
"o. c #C4A01C",
"O. c #C4A01D",
"+. c #C4A31F",
"@. c #C6A61F",
"#. c #C29627",
"$. c #C29D2D",
"%. c #CA9A28",
"&. c #D19F29",
"*. c #C7A820",
"=. c #C7A921",
"-. c #C7AB20",
";. c #C7AB21",
":. c #C9AB21",
">. c #C9AC21",
",. c #D7AA2D",
"<. c #DEB42E",
"1. c #C9AB32",
"2. c #CCAC31",
"3. c #D5B031",
"4. c #DDBD36",
"5. c #E7B930",
"6. c #E3C036",
"7. c #EAC032",
"8. c #EFC032",
"9. c #EAC934",
"0. c #E0C33A",
"q. c #ECC939",
"w. c #EECF3C",
"e. c #F2C936",
"r. c #F0CA39",
"t. c #F3CD39",
"y. c #EFD639",
"u. c #EFD43E",
"i. c #F5D03A",
"p. c #F7D93F",
"a. c #FADF3C",
"s. c #F6E13E",
"d. c #F6DD42",
"f. c #FBE243",
"g. c #FCE241",
"h. c #FDE543",
"j. c #FEE744",
"k. c #FFEA41",
"l. c #FDE942",
"z. c #FFEA42",
"x. c #FFEA43",
"c. c #FEE844",
"v. c #FEE944",
"b. c #FFEA45",
"n. c #FFEB45",
"m. c #FFEB46",
"M. c #FFEB47",
"N. c None",
/* pixels */
"N.N.N.N.N.N.N.N.N.N.N.N.N.N.N.O .   2 N.N.N.N.N.N.N.N.N.N.N.N.N.",
"N.N.N.N.N.N.N.N.N.N.N.N.N.N.& @ * X > N.N.N.N.N.N.N.N.N.N.N.N.N.",
"N.N.N.N.N.N.N.N.N.N.N.N.N.N.= 3 0 ; < N.N.N.N.N.N.N.N.N.N.N.N.N.",
"N.N.N.N.N.N.N.N.N.N.N.N.N.N., l d w 8 N.N.N.N.N.N.N.N.N.N.N.N.N.",
"N.N.N.N.N.N.N.N.N.N.N.N.N.N.6 E R j u N.N.N.N.N.N.N.N.N.N.N.N.N.",
"N.N.N.N.N.N.N.N.N.N.N.N.N.N.f [ ] A m N.N.N.N.N.N.N.N.N.N.N.N.N.",
"N.N.N.N.N.N.N.N.N.N.N.N.N.N.x 2.1.K G N.N.N.N.N.N.N.N.N.N.N.N.N.",
"N.N.N.N.N.N.N.N.N.N.N.N.N.N.M 4.0.! Y N.N.N.N.N.N.N.N.N.N.N.N.N.",
"N.N.N.N.N.N.N.N.N.N.N.N.N.N.I w.u.$.T N.N.N.N.N.N.N.N.N.N.N.N.N.",
"N.N.N.N.N.N.N.N.N.N.N.N.N.N.~ p.d.3.( N.N.N.N.N.N.N.N.N.N.N.N.N.",
"N.N.N.N.N.N.N.N.N.N.N.N.N.N.} g.f.6.) N.N.N.N.N.N.N.N.N.N.N.N.N.",
"N.N.N.N.N.N.N.N.N.N.N.N.N.N.+.c.h.q.{ N.N.N.N.N.N.N.N.N.N.N.N.N.",
"N.N.N.N.N.N.N.N.N.N.N.N.N.N.*.n.j.r. .N.N.N.N.N.N.N.N.N.N.N.N.N.",
"N.N.N.N.N.N.N.N.N.N.N.N.N.N.;.m.v.t.X.N.N.N.N.N.N.N.N.N.N.N.N.N.",
"N.N.N.N.N.N.N.N.N.N.N.N.N.N.;.M.b.i...N.N.N.N.N.N.N.N.N.N.N.N.N.",
"N.N.N.N.N.N.N.N.N.N.N.N.N.N.>.M.x.e.O.N.N.N.N.N.N.N.N.N.N.N.N.N.",
"N.N.N.N.N.N.N.N.N.N.N.N.N.N.=.M.z.8.O.N.N.N.N.N.N.N.N.N.N.N.N.N.",
"N.N.N.N.N.N.N.N.N.N.N.N.N.N.:.M.k.5.o.N.N.N.N.N.N.N.N.N.N.N.N.N.",
"N.N.N.N.N.N.N.N.N.N.N.N.N.N.:.M.s.,./ N.N.N.N.N.N.N.N.N.N.N.N.N.",
"N.N.N.N.N.N.N.N.N.N.N.N.N.N.-.n.y.#.U N.N.N.N.N.N.N.N.N.N.N.N.N.",
"N.N.N.N.N.N.N.N.N.N.N.N.N.N.@.l.9.` Z N.N.N.N.N.N.N.N.N.N.N.N.N.",
"N.N.N.N.N.N.N.N.N.N.N.N.N.N.| a.<.Q C N.N.N.N.N.N.N.N.N.N.N.N.N.",
"N.N.N.N.N.N.N.N.N.N.N.N.N.N.^ 7.&.P c N.N.N.N.N.N.N.N.N.N.N.N.N.",
"N.N.N.N.N.N.N.N.N.N.N.N.N.N.H %.' F g N.N.N.N.N.N.N.N.N.N.N.N.N.",
"N.N.N.N.N.N.N.N.N.N.N.N.N.N.N _ W D a N.N.N.N.N.N.N.N.N.N.N.N.N.",
"N.N.N.N.N.N.N.N.N.N.N.N.N.N.s L J V y N.N.N.N.N.N.N.N.N.N.N.N.N.",
"N.N.N.N.N.N.N.N.N.N.N.N.N.N.i S B b t N.N.N.N.N.N.N.N.N.N.N.N.N.",
"N.N.N.N.N.N.N.N.N.N.N.N.N.N.7 n v v p N.N.N.N.N.N.N.N.N.N.N.N.N.",
"N.N.N.N.N.N.N.N.N.N.N.N.N.N.4 v h k z N.N.N.N.N.N.N.N.N.N.N.N.N.",
"N.N.N.N.N.N.N.N.N.N.N.N.N.N.: r e q 9 N.N.N.N.N.N.N.N.N.N.N.N.N.",
"N.N.N.N.N.N.N.N.N.N.N.N.N.N.- % 1 $ 5 N.N.N.N.N.N.N.N.N.N.N.N.N.",
"N.N.N.N.N.N.N.N.N.N.N.N.N.N.N.# o + N.N.N.N.N.N.N.N.N.N.N.N.N.N."
};
