/* XPM */
static char *result[] = {
/* columns rows colors chars-per-pixel */
"32 32 252 2 ",
"   c black",
".  c #010000",
"X  c #020000",
"o  c #030100",
"O  c #030201",
"+  c #020202",
"@  c gray1",
"#  c #040404",
"$  c #080301",
"%  c #0C0402",
"&  c #0D0503",
"*  c #0D0602",
"=  c #0E0E0E",
"-  c #100603",
";  c #120805",
":  c #130905",
">  c #120906",
",  c #130906",
"<  c #120A06",
"1  c #130A06",
"2  c #130A07",
"3  c #140805",
"4  c #140906",
"5  c #150A07",
"6  c #140B07",
"7  c #160A06",
"8  c #160C08",
"9  c #180E09",
"0  c #1D120F",
"q  c #111111",
"w  c #151515",
"e  c gray9",
"r  c #181818",
"t  c #191919",
"y  c gray10",
"u  c #1B1B1B",
"i  c gray11",
"p  c #1D1D1D",
"a  c #1E1E1E",
"s  c gray12",
"d  c #251E03",
"f  c #231711",
"g  c #241A15",
"h  c #291C16",
"j  c #21151C",
"k  c #24211F",
"l  c #26221F",
"z  c #28221E",
"x  c #33231A",
"c  c #33261F",
"v  c #35251D",
"b  c #38281F",
"n  c #291C20",
"m  c #202020",
"M  c gray13",
"N  c #222120",
"B  c #222222",
"V  c gray14",
"C  c #252525",
"Z  c #272524",
"A  c gray15",
"S  c #272727",
"D  c #282828",
"F  c gray16",
"G  c #2A2A2A",
"H  c gray17",
"J  c #2C2C2C",
"K  c #2D2D2D",
"L  c gray18",
"P  c #2F2F2F",
"I  c #332720",
"U  c #342720",
"Y  c #352821",
"T  c #352924",
"R  c #392A22",
"E  c #3C2B22",
"W  c #3C2C22",
"Q  c #382B25",
"!  c #3A2C24",
"~  c #382D26",
"^  c #392D27",
"/  c #3B2E26",
"(  c #3C2D25",
")  c #3C2E25",
"_  c #3D2E25",
"`  c #3E2E25",
"'  c #3D2E26",
"]  c #3D2F27",
"[  c #3F2F27",
"{  c #3B2E28",
"}  c #3B2F28",
"|  c #3E3027",
" . c #3F3129",
".. c #3C302A",
"X. c #3F332D",
"o. c gray19",
"O. c #313131",
"+. c #323232",
"@. c gray20",
"#. c gray21",
"$. c #373737",
"%. c gray22",
"&. c #393939",
"*. c #3A3A3A",
"=. c gray23",
"-. c #3C3C3C",
";. c gray24",
":. c #3E3E3E",
">. c #3F3F3F",
",. c #402F26",
"<. c #403027",
"1. c #413127",
"2. c #413129",
"3. c #423129",
"4. c #41332B",
"5. c #42322A",
"6. c #43322A",
"7. c #43332A",
"8. c #42332B",
"9. c #44332B",
"0. c #44342B",
"q. c #40332D",
"w. c #40342D",
"e. c #43342C",
"r. c #41352E",
"t. c #42362F",
"y. c #45342C",
"u. c #45352C",
"i. c #45352D",
"p. c #47362D",
"a. c #45362E",
"s. c #45372E",
"d. c #47372E",
"f. c #46362F",
"g. c #49352B",
"h. c #4B372C",
"j. c #4C382D",
"k. c #423630",
"l. c #433730",
"z. c #433830",
"x. c #433831",
"c. c #483930",
"v. c #493930",
"b. c #483931",
"n. c #4A3A31",
"m. c #4E3B30",
"M. c #4F3B30",
"N. c #4E3C31",
"B. c #503C32",
"V. c #513C32",
"C. c #503D33",
"Z. c #63561A",
"A. c #544137",
"S. c #564237",
"D. c #574237",
"F. c #564339",
"G. c #574339",
"H. c #57443A",
"J. c #58433A",
"K. c #59443A",
"L. c #59453A",
"P. c #5A453B",
"I. c #5A463B",
"U. c #5A463D",
"Y. c #5C473D",
"T. c #5B483D",
"R. c #5C483D",
"E. c #5C483E",
"W. c #5D493E",
"Q. c #414141",
"!. c #434343",
"~. c #444444",
"^. c #464646",
"/. c gray28",
"(. c #484848",
"). c #494949",
"_. c gray29",
"`. c #4C4C4C",
"'. c #4E4E4E",
"]. c gray31",
"[. c #5E4A40",
"{. c #5F4A40",
"}. c #505050",
"|. c #515151",
" X c gray32",
".X c #535353",
"XX c gray33",
"oX c #565656",
"OX c gray34",
"+X c #585858",
"@X c #5A5A5A",
"#X c #5B5B5B",
"$X c gray36",
"%X c #5D5D5D",
"&X c gray37",
"*X c #5F5F5F",
"=X c #604C42",
"-X c #604D42",
";X c #614D42",
":X c #614D43",
">X c #624E43",
",X c #634F44",
"<X c #634F45",
"1X c #655146",
"2X c #606060",
"3X c #626262",
"4X c gray39",
"5X c #646464",
"6X c #656565",
"7X c gray40",
"8X c #676767",
"9X c #686868",
"0X c DimGray",
"qX c #6A6A6A",
"wX c gray43",
"eX c #6F6F6F",
"rX c #717171",
"tX c #727272",
"yX c #747474",
"uX c #797979",
"iX c gray48",
"pX c #7B7B7B",
"aX c #7C7C7C",
"sX c gray49",
"dX c #7E7E7E",
"fX c gray50",
"gX c #808080",
"hX c #818181",
"jX c gray51",
"kX c #848484",
"lX c gray52",
"zX c gray53",
"xX c #898989",
"cX c gray54",
"vX c #8B8B8B",
"bX c gray55",
"nX c #909090",
"mX c gray57",
"MX c #929292",
"NX c gray58",
"BX c gray59",
"VX c #979797",
"CX c gray60",
"ZX c #9A9A9A",
"AX c #9D9D9D",
"SX c gray62",
"DX c #A0A0A0",
"FX c gray65",
"GX c gray67",
"HX c #ACACAC",
"JX c #B2B2B2",
"KX c None",
/* pixels */
"KXKXKXKXKXKXKXKXKXKXKX*Xt *XVXH hXAX+Xu q KXKXKXKXKXKXKXKXKXKXKX",
"KXKXKXKXKXKXKXKXr mXJXQ.9XOX`.S rX&X'.#.bXvXdXa KXKXKXKXKXKXKXKX",
"KXKXKXKXKXKXL /.GX*X}./.@.O.u t s y P o.(._.#XP %.s KXKXKXKXKXKX",
"KXKXKXKXKXZXtX9XQ.!.e                     w G rX*X5XgXKXKXKXKXKX",
"KXKXKXm >..X).a @                           O 9 k ).P CXB KXKXKX",
"KXKXKXHX7X.Xq                               $ I m.l 2X7X%XKXKXKX",
"KXKXA 4X/.B                                 % / h.` Z (.Q.D KXKX",
"KXKXCXbXK                                   % ! j.5.t.%XbXjX+.KX",
"KXi %XXXe                                   & ] B.[ {.N 5X'.p KX",
"KX(.].A =                                   - ] G.2.,Xz B uX%.KX",
"KXzX6X:.#                                   ; | U.1.[.T sX4X XKX",
"KX8X^.%.+                                   , ( R.<.W.^ _./.-.KX",
"KXDX4X).+                                   : ( >X6.W.~ pX6XoXKX",
"KX*X^.*.+                                   ; ) ;X6.W.} @X_.~.KX",
"KXBXkXyX+                                   ,  .;X3.Y...CXNX&XKX",
"KXuX(.*.+                                 . 5 8.-X9.R.X..X/.$.KX",
"KXSXVXsX+                                 o 8 e.:Xv.L.X.iXvX9XKX",
"KXmX}.=.+                                 . 0 d.=Xn.S.w.9X4X=.KX",
"KXV C J +                                   Z.j <Xy.I.l.O.B i KX",
"KXxX3X!.+                                   d n 1Xu.S.k.lX7X=.KX",
"KXS D P +                                   7 f.=X0.G.x.+.C i KX",
"KXjX7X/.+                                   3 i.E.p.K.l.jXeX=.KX",
"KX$X^.=.+                                   4 b.T.u.P.k.%X^.&.KX",
"KXFXcXfX@                                   ; a.E.p.L.z.BXNXaXKX",
"KX8X).=.+                                   > s.F.y.L.r.qX'.%.KX",
"KXzXMXeX+                                   < c.H.7.G.q.vXrX0XKX",
"KXnX*X:.+                                   1 4.A.3.J.{ sX7X*.KX",
"KXV D K @                                   2 | A.,.D.Q ).M p KX",
"KXiX|.=.+                                   2 _ C.E V.Y wX*X;.KX",
"KXm B F +                                   6 ' N.W M.U J s p KX",
"KXBXuX).+                                 X 8 R C.b g.c tX6X=.KX",
"KX0X(.&.+                                   * f v h x g !.!.#.KX"
};
