/* XPM */
static char *result[] = {
/* columns rows colors chars-per-pixel */
"32 32 164 2 ",
"   c #020202",
".  c #0A060A",
"X  c #0E0B0E",
"o  c #120D12",
"O  c #180E17",
"+  c #1D0C1C",
"@  c #151215",
"#  c #1D151C",
"$  c #191919",
"%  c #250B23",
"&  c #2D0C2B",
"*  c #221622",
"=  c #261C26",
"-  c #2E132C",
";  c #2C1D2B",
":  c #301F2F",
">  c #350D34",
",  c #3A0E39",
"<  c #351634",
"1  c #321E31",
"2  c #3C133B",
"3  c #3C1C3B",
"4  c #252525",
"5  c #2D222D",
"6  c #342334",
"7  c #382537",
"8  c #342C34",
"9  c #3B263A",
"0  c #3D2B3C",
"q  c #353235",
"w  c #3C333C",
"e  c #410E3F",
"r  c #40103F",
"t  c #40253E",
"y  c #402C3F",
"u  c #441442",
"i  c #4B154A",
"p  c #4A1A4A",
"a  c #50164E",
"s  c #521650",
"d  c #541C52",
"f  c #5A1E57",
"g  c #5B1F58",
"h  c #442643",
"j  c #432B42",
"k  c #492C47",
"l  c #4D244C",
"z  c #4C2C4B",
"x  c #453244",
"c  c #483347",
"v  c #433A43",
"b  c #4C374B",
"n  c #4E3A4D",
"m  c #50364F",
"M  c #532451",
"N  c #582556",
"B  c #5D245B",
"V  c #592B58",
"C  c #553E54",
"Z  c #5A3258",
"A  c #5A3E59",
"S  c #642561",
"D  c #682C65",
"F  c #6E2B6B",
"G  c #633161",
"H  c #673C65",
"J  c #693E67",
"K  c #6A3C68",
"L  c #72336F",
"P  c #743272",
"I  c #793676",
"U  c #763D73",
"Y  c #793B77",
"T  c #7C3C79",
"R  c #454445",
"E  c #4B444B",
"W  c #4D4C4D",
"Q  c #554254",
"!  c #544A54",
"~  c #594458",
"^  c #5D4B5C",
"/  c #5F525F",
"(  c #604B5F",
")  c #644363",
"_  c #634D62",
"`  c #684D67",
"'  c #6A4E69",
"]  c #71426F",
"[  c #655364",
"{  c #685267",
"}  c #6C556B",
"|  c #6C596B",
" . c #70536F",
".. c #734471",
"X. c #7C4479",
"o. c #7B4F79",
"O. c #775375",
"+. c #785077",
"@. c #735C72",
"#. c #7E567D",
"$. c #626262",
"%. c #6A666A",
"&. c #6C6B6C",
"*. c #766275",
"=. c #786277",
"-. c #706C70",
";. c #7B657A",
":. c #7E697D",
">. c #797779",
",. c #7E7D7E",
"<. c #81427E",
"1. c #806B7F",
"2. c #854582",
"3. c #894586",
"4. c #854C82",
"5. c #8A4F87",
"6. c #8E4E8B",
"7. c #845D82",
"8. c #8F558D",
"9. c #90538D",
"0. c #965693",
"q. c #955992",
"w. c #985895",
"e. c #9B5F98",
"r. c #826C81",
"t. c #886E87",
"y. c #867185",
"u. c #887387",
"i. c #8B768A",
"p. c #8D7A8C",
"a. c #907B8F",
"s. c #946492",
"d. c #976F96",
"f. c #986B96",
"g. c #9E619C",
"h. c #9F699C",
"j. c #937D92",
"k. c #9A7B99",
"l. c #A0699D",
"z. c #A57FA4",
"x. c #868686",
"c. c #888588",
"v. c #8D8B8D",
"b. c #968295",
"n. c #9B879A",
"m. c #9D899C",
"M. c #979797",
"N. c #9E9C9E",
"B. c #A08C9F",
"V. c #A18EA0",
"C. c #AF87AE",
"Z. c #B08EAF",
"A. c #BB95BA",
"S. c gray67",
"D. c #B0AFB0",
"F. c #BBBBBB",
"G. c #C3C2C3",
"H. c gray84",
"J. c gainsboro",
"K. c gray89",
"L. c #EDEDED",
"P. c #F2F2F2",
"I. c gray99",
"U. c None",
/* pixels */
"U.U.U.U.U.U.U.  U.U.U.U.U.U.U.U.U.U.U.U.U.U.U.U.U.U.U.U.U.U.U.U.",
"U.U.U.U.U.U.U.o # U.U.U.U.U.U.U.U.U.U.U.U.U.U.U.U.U.U.U.U.U.U.U.",
"U.U.U.U.U.U.U.O.O.= o U.U.U.. o O . U.U.U.# x x U.U.U.U.U.U.U.U.",
"U.U.U.U.U.U.U.7.f.8 5 U.o 5 n ^ Q x 5 . = 8 n 5   U.U.U.U.U.U.U.",
"U.U.U.U.U.U.U.#.l.c = * ~ @.*.*.@.[ n 8 = ~ U =   U.U.U.U.U.U.U.",
"U.U.U.U.U.U.U.9 <.1 _ ;.;.:.1.:.;.;.^ 6 s.q.5.5   U.U.U.U.U.U.U.",
"U.U.U.U.U.U.U.- M ^ ;.;.:.:.:.1.r.;.Q x h.g.4.5   U.U.U.  U.U.U.",
"U.U.U.U.U.U.U.- 0 =.:.u.p.p.p.u.u.=.~ 7.g.q.<.8   U.U.U.o U.U.U.",
"U.U.  * U.U.U.  } u.b.n.m.m.m.b.p.i.@.' K ] ..0   U.  s.< U.U.U.",
"U.U.U.o.. U.U.  } 1.n.n.m.m.m.;.^ y.=.} ) A ..x   U.5 ..2 U.U.U.",
"U.U.U.1 ) U.U.  [ 5 [ m.m.m.b.&.,.q r.O.' A H x o U.s.u % U.U.U.",
"U.U.  u > #.#   >.I.L./ V.m.D.M.I.G.=.@.` C x x   s.d i u U.U.U.",
"U.U.& u , 2 9 . G.H.4 q m.b.K.W F.P.:.*.' C k # - U i B d - U.U.",
"U.> u s a e 2 # K.R $.R n.j.v.$.R K.i.:.} Q x % 8.g d D S N < U.",
"U.U.2 S F F S _ %.S.@ w Z.i.%.@ K.w j.r.} m 0 > f B I T T G + U.",
"U.U., F F F d | E J.F.*.A.k.8 x.-.p.b.r.} b y & B I I <.X.H U.U.",
"U.U.2 F 3.I - @.| 8 v [ C.t.} ! *.b.b.:.} n c < S T T 2.Y Z U.U.",
"U.U., L e.2.O @.} *.r./ z.@.:.r.p.b.p.:.} n c 3 u T 2.T X.h U.U.",
"U.U.p P w.w.= } 8 v *.:.u.r.u.v.p.q @ ;.` n 9 = z 2.4.j = l U.U.",
"U.U.f h 0.w.= [ * @ q 5 v | [ w X ; # @.` b 9 6 X X.K U.U.z U.U.",
"U.U.l U.U 6.# [ * R G.. @ $ o $ N.; w @._ x 9 6   +.k U.U.6 U.U.",
"U.U.U.U.U.K X ^ n W v.3 # # # $.P.X @.} C y 7 *   O U.U.U.U.U.U.",
"U.U.U.U.U.b . ~ ^ R j.N V 3 h @ P.$ @.` b 9 6 ;     U.U.U.U.U.U.",
"U.U.U.U.U.U.  n _ q d.P l T M # L.( @._ k 9 5 * U.U.U.U.U.U.U.U.",
"U.U.U.U.U.U.U.= ( ! q ^ v.c.W   F.@.` b 9 1 1   U.U.U.U.U.U.U.U.",
"U.U.U.U.U.U.U.O ! { w o       5 | { ~ y 7 : * U.U.U.U.U.U.U.U.U.",
"U.U.U.U.U.U.U.U.0 { *.~ v 8 x *.| ^ c 9 1 ;   U.U.U.U.U.U.U.U.U.",
"U.U.U.U.U.U.U.U.U.= | r.n.j.:.[ x 9 6 ; ;   U.U.U.U.U.U.U.U.U.U.",
"U.U.U.U.U.U.U.U.U.U.0 @.@.=.@.~ 9 6 : ;   U.U.U.U.U.U.U.U.U.U.U.",
"U.U.U.U.U.U.U.U.U.U.4 0 } } _ 9 ; ; ;   U.U.U.U.U.U.U.U.U.U.U.U.",
"U.U.U.U.U.U.U.U.U.U.U.  . # # X   U.U.U.U.U.U.U.U.U.U.U.U.U.U.U.",
"U.U.U.U.U.U.U.U.U.U.U.U.U.U.U.U.U.U.U.U.U.U.U.U.U.U.U.U.U.U.U.U."
};
