/* XPM */
static char *result[] = {
/* columns rows colors chars-per-pixel */
"32 32 199 2 ",
"   c #020101",
".  c #0A060A",
"X  c #0C0707",
"o  c #130C0F",
"O  c #130D13",
"+  c #1C091B",
"@  c #171117",
"#  c #1B131B",
"$  c #1E181E",
"%  c #1D1117",
"&  c #251717",
"*  c #371216",
"=  c #35180D",
"-  c #280C26",
";  c #310F2E",
":  c #221521",
">  c #261925",
",  c #2B1C2A",
"<  c #291826",
"1  c #311825",
"2  c #3F1E3C",
"3  c #3A1637",
"4  c #2B242B",
"5  c #37232A",
"6  c #342432",
"7  c #352934",
"8  c #382937",
"9  c #3C253B",
"0  c #392939",
"q  c #373436",
"w  c #540000",
"e  c #4C150D",
"r  c #701C1D",
"t  c #472206",
"y  c #51320B",
"u  c #532818",
"i  c #642F1C",
"p  c #782B1C",
"a  c #410A28",
"s  c #5C0D2B",
"d  c #4F1D2C",
"f  c #471E36",
"g  c #6D0823",
"h  c #4D252C",
"j  c #5E302E",
"k  c #47303B",
"l  c #573537",
"z  c #45253C",
"x  c #7C3B24",
"c  c #74342F",
"v  c #6C4417",
"b  c #7E483D",
"n  c #441C43",
"m  c #501D4E",
"M  c #463341",
"N  c #483445",
"B  c #4D3849",
"V  c #563D46",
"C  c #533151",
"Z  c #5E335B",
"A  c #5A2C59",
"S  c #73204C",
"D  c #743E48",
"F  c #7C355D",
"G  c #6A3B4A",
"H  c #6D3E6C",
"J  c #673766",
"K  c #733F71",
"L  c #5D4B47",
"P  c #544253",
"I  c #5A4458",
"U  c #584A57",
"Y  c #5B575B",
"T  c #6D4447",
"R  c #654849",
"E  c #794647",
"W  c #6D5A4C",
"Q  c #63475C",
"!  c #744D59",
"~  c #69515D",
"^  c #79575B",
"/  c #654A61",
"(  c #79426B",
")  c #695565",
"_  c #685465",
"`  c #725966",
"'  c #794677",
"]  c #7A4A74",
"[  c #7E507A",
"{  c #74636B",
"}  c #746272",
"|  c #7B677A",
" . c #7A6571",
".. c #656565",
"X. c #9A271A",
"o. c #80371E",
"O. c #BA3E06",
"+. c #A4311B",
"@. c #961127",
"#. c #80203F",
"$. c #983E39",
"%. c #A83023",
"&. c #BA352F",
"*. c #AF3D31",
"=. c #B33430",
"-. c #B52933",
";. c #DF2C16",
":. c #E23E1A",
">. c #CB1C21",
",. c #884C0E",
"<. c #865E14",
"1. c #99541D",
"2. c #BB6417",
"3. c #A3661B",
"4. c #8D4621",
"5. c #8B5E31",
"6. c #AF462B",
"7. c #BD4D26",
"8. c #AD5035",
"9. c #B85C32",
"0. c #9D6635",
"q. c #9B713D",
"w. c #BE6C2A",
"e. c #B27A2C",
"r. c #A86639",
"t. c #B66D32",
"y. c #AA7130",
"u. c #D8540E",
"i. c #C05214",
"p. c #D45D14",
"a. c #C55A0D",
"s. c #E85517",
"d. c #D57B1E",
"f. c #D4661A",
"g. c #E4781B",
"h. c #F56A14",
"j. c #D26C29",
"k. c #D27125",
"l. c #C57135",
"z. c #C6762B",
"x. c #A03A5D",
"c. c #8C5D4E",
"v. c #8E5049",
"b. c #965F4E",
"n. c #8E4557",
"m. c #914250",
"M. c #99575C",
"N. c #9A4C45",
"B. c #B35D4B",
"V. c #9C6445",
"C. c #8D6653",
"Z. c #AC6843",
"A. c #BC774C",
"S. c #A0615B",
"D. c #A47350",
"F. c #994F6A",
"G. c #844974",
"H. c #81656B",
"J. c #917564",
"K. c #92676F",
"L. c #C36D47",
"P. c #B28226",
"I. c #B89030",
"U. c #EE8819",
"Y. c #F8861B",
"T. c #FF981E",
"R. c #CB8021",
"E. c #D58920",
"W. c #CE9826",
"Q. c #D79723",
"!. c #C2853C",
"~. c #D58633",
"^. c #E98D22",
"/. c #E99624",
"(. c #D0A92A",
"). c #E8A827",
"_. c #F3A622",
"`. c #FFAA22",
"'. c #F3B326",
"]. c #FFB625",
"[. c #FFBB27",
"{. c #F2B927",
"}. c #E6CD2C",
"|. c #FDC82A",
" X c #E7D52F",
".X c #FBDC2F",
"XX c #F2D931",
"oX c #C18751",
"OX c #D7815C",
"+X c #DE9157",
"@X c #807D80",
"#X c #989595",
"$X c #A4938D",
"%X c #A29B98",
"&X c #B9B7B7",
"*X c #DFA485",
"=X c #C5B5AC",
"-X c gray78",
";X c None",
/* pixels */
";X;X;X;X;X;X;X;X;X;X;X;X;X;X;X;X;X;X;X;X;X;X;X;X;X;X;X;X;X;X;X;X",
";X;X;X;X;X;X;X;X;X;X;X;X;X;X;X;X;X;X;X;X;X;X;X;X;X;X;X;X;X;X;X;X",
";X;X;X;X;X;X;X;X;X;X;X;X;X;X;X;X;X;X;X;X;X;X;X;X;X;X;X;X;X;X;X;X",
";X;X;X;X;X;X;X;X;X;X;X;X;X;X;X;X;X;X;X;X;X;X;X;X;X;X;X;X;X;X;X;X",
";X;X;X;X;X;X;X;X;X;X;X;X;X;X;X;X;X;X;X;X;X;X;X;X;X;X;X;X;X;X;X;X",
";X;X;X;X;X;X;X;X;X;X;X;X;X;X;X;X;X;X;X;X;X;X;X;X;X;X;X;X;X;X;X;X",
";X;X;X;X;X;X;X;X;X;X;X;X;X;X;X;X;X;X;X;X;X;X;X;X;X;X;X;X;X;X;X;X",
";X;X;X;X;X;X;X;X;X;X;X;X;X;X;X;X;X;X;X;X;X;X;X;X;X;X;X;X;X;X;X;X",
";X;X;X;X;X;X;X;X;X;X;X;X;X;X;X;X;X;X;X;X;X;X;X;X;X;X;X;X;X;X;X;X",
";X;X;X;X;X;X;X;X;X;X;X;X;X;X;X;X;X;X;X;X;X;X;X;X;X;X;X;X;X;X;X;X",
";X;X;X;X;X;X;X;X;X;X;X;X;X;X;X;X;X;X;X;X;X;X;X;X;X;X;X;X;X;X;X;X",
";X;X;X;X;X;X;X;X;X;X;X;X;X;X;X;X;X;X;X;X;X;X;X;X;X;X;X;X;X;X;X;X",
";X;X;X;X;X;X;X;X;X;X;X;X].[.;X;X;X;X;X;X;X;X;X;X;X;X;X;X;X;X;X;X",
";X;X;X;X;X;X;X;X;X;X;X;X[.].;X;X;X;X;X;X;X;X;X;X;X;X;X;X;X;X;X;X",
";X;X;X;X;X;X;X. # ;X;X;X[.[.Y.;X;X;X;X;X;X;X;X;X;X;X;X;X;X;X;X;X",
";X;X;X;X;X;X;XQ I $ O ;X`._.a.e O . v ;X;X@ 8 8 ;X;X;X;X;X;X;X;X",
";X;X;X;X;X;X;XB [ z * %.^.z.8.! _ U 5.u 5 ] H #   ;X;X;X;X;X;X;X",
";X;X;X;XT.;X;X- f V / =.k.9.N.^ _ _ P.x F.G.H >   ;X;X;X  ;X;X;X",
";X;X  u.T.;X;X  Q ^  .M.B.B.S.H.` ` (.t.m.K H ,   ;X;X5 # ;X;X;X",
";X;X;Xi./.;X;X  b i L H.K.A.D.W ..5 XXI.T M C 0 . ,.!.d + ;X;X;X",
";X;Xw p.'.&.O X 0.*X=XV A.~.oXJ.-X%XXXq.T M 7 7   l.E.c 3 ;X;X;X",
";X- g g._.X.; & +X4.L j ^./.Z.T q &Xj.c.E k 6 + ( p.).6.m n - ;X",
";X;Xa s.h.#.n D E.OX#X*.).).p { Y } | C.0.k 6 - @.g.'.;.Z C ;X;X",
";X;X; S x.J O N.).6.` c L.w.v.) } | } V.y.l 7 , s g.U.>.J 9 ;X;X",
";X;X3 A ' ' # 7.}.X.~ ^ V.V.C. .} 4 o r.P.j 5 $ z F -.f & 2 ;X;X",
";X;Xf ;XZ K + E.}.+.$Xt v <.y = @X& 7 w.(.j 3 >   / 9 ;X;X, ;X;X",
";X;X;X;X;X9 . N B q M.d.E.Q.1.= -XO Q Q. Xo.1 :     ;X;X;X;X;X;X",
";X;X;X;X;X;X;X4 B q n._.).{.2.* &X/ E (. Xr > . ;X;X;X;X;X;X;X;X",
";X;X;X;X;X;X;XO N P h U..X|.O.> U P N 2.3.1 # ;X;X;X;X;X;X;X;X;X",
";X;X;X;X;X;X;X;X;X$ U &.s.:._ P 7 6 , > :   ;X;X;X;X;X;X;X;X;X;X",
";X;X;X;X;X;X;X;X;X;X$ 6 G P B 6 > > $   ;X;X;X;X;X;X;X;X;X;X;X;X",
";X;X;X;X;X;X;X;X;X;X;X  . O @ .   ;X;X;X;X;X;X;X;X;X;X;X;X;X;X;X"
};
