/* XPM */
static char *result[] = {
/* columns rows colors chars-per-pixel */
"32 32 209 2 ",
"   c #050304",
".  c #0C080C",
"X  c #090404",
"o  c #170904",
"O  c #140B13",
"+  c #1B0A1A",
"@  c #1C141C",
"#  c #1E1017",
"$  c #291505",
"%  c #2C131F",
"&  c #342B1E",
"*  c #280C27",
"=  c #211521",
"-  c #261B26",
";  c #291C26",
":  c #2C1D2C",
">  c #2C162C",
",  c #341826",
"<  c #3B1738",
"1  c #391B37",
"2  c #3A0A23",
"3  c #2C222C",
"4  c #2B2127",
"5  c #34232C",
"6  c #33292C",
"7  c #312631",
"8  c #352935",
"9  c #382934",
"0  c #3B2139",
"q  c #3C303B",
"w  c #4D100D",
"e  c #471412",
"r  c #6C170C",
"t  c #60151E",
"y  c #4B2013",
"u  c #512515",
"i  c #633204",
"p  c #73251A",
"a  c #733E1A",
"s  c #77380C",
"d  c #6C1B2A",
"f  c #4F2521",
"g  c #542F23",
"h  c #4D3026",
"j  c #53342B",
"k  c #482C37",
"l  c #542838",
"z  c #43323B",
"x  c #523A3C",
"c  c #752E24",
"v  c #673A2E",
"b  c #7B3C20",
"n  c #793323",
"m  c #6A3838",
"M  c #684017",
"N  c #6A4828",
"B  c #6F423F",
"V  c #764035",
"C  c #6F5134",
"Z  c #7B6738",
"A  c #461944",
"S  c #6B1E45",
"D  c #4F2E4D",
"F  c #482743",
"G  c #4B3E4B",
"H  c #433743",
"J  c #5C3543",
"K  c #552E52",
"L  c #592F57",
"P  c #543A52",
"I  c #673556",
"U  c #5D424A",
"Y  c #584C56",
"T  c #6E484D",
"R  c #7B4D46",
"E  c #6F584D",
"W  c #7C5B4D",
"Q  c #674A55",
"!  c #794E5D",
"~  c #6F515D",
"^  c #7B5A57",
"/  c #7F635B",
"(  c #795D64",
")  c #797677",
"_  c #796D6A",
"`  c #892309",
"'  c #96380B",
"]  c #8B251A",
"[  c #982F17",
"{  c #883A1C",
"}  c #A2260E",
"|  c #A3261B",
" . c #A63215",
".. c #972A2E",
"X. c #863B22",
"o. c #963427",
"O. c #952F30",
"+. c #8A343B",
"@. c #973735",
"#. c #AF262C",
"$. c #A93826",
"%. c #BE372B",
"&. c #AE3B3F",
"*. c #C7191D",
"=. c #C83918",
"-. c #DB3F11",
";. c #C63008",
":. c #E03C19",
">. c #8E431F",
",. c #914B19",
"<. c #865D14",
"1. c #A3440D",
"2. c #BF4708",
"3. c #BF570D",
"4. c #BC451A",
"5. c #B64B1B",
"6. c #A85F14",
"7. c #B75E11",
"8. c #A7621C",
"9. c #884426",
"0. c #875729",
"q. c #874234",
"w. c #995839",
"e. c #AE432F",
"r. c #BA4929",
"t. c #A95A2B",
"y. c #BB5A26",
"u. c #A65C3C",
"i. c #A75A33",
"p. c #B95E32",
"a. c #8A6027",
"s. c #936A34",
"d. c #976238",
"f. c #AC6D2E",
"g. c #B3682C",
"h. c #A9712B",
"j. c #B97527",
"k. c #A76236",
"l. c #AE743F",
"z. c #BB7939",
"x. c #C24E0D",
"c. c #C8471E",
"v. c #D55218",
"b. c #DB4B19",
"n. c #F55C0F",
"m. c #E14118",
"M. c #E65318",
"N. c #C96B19",
"B. c #FF7916",
"V. c #E3791B",
"C. c #C55428",
"Z. c #C26626",
"A. c #CD7621",
"S. c #CB7830",
"D. c #87364F",
"F. c #904444",
"G. c #865840",
"H. c #955844",
"J. c #934D59",
"K. c #875856",
"L. c #935A50",
"P. c #AA594F",
"I. c #85604A",
"U. c #9D654D",
"Y. c #9E6A58",
"T. c #AA6545",
"R. c #BC7548",
"E. c #A27157",
"W. c #B96457",
"Q. c #805D69",
"!. c #856B61",
"~. c #936C60",
"^. c #AF8024",
"/. c #B48D2D",
"(. c #DF8E1C",
"). c #DB821B",
"_. c #C8861D",
"`. c #E58D1D",
"'. c #FC8919",
"]. c #FF9A1F",
"[. c #FF921B",
"{. c #D38D20",
"}. c #CD952F",
"|. c #D89B2C",
" X c #D89725",
".X c #C38733",
"XX c #D28E30",
"oX c #C68B24",
"OX c #F29820",
"+X c #CDA128",
"@X c #D4A132",
"#X c #D6A427",
"$X c #EDAB24",
"%X c #EAA424",
"&X c #F4A221",
"*X c #FDAB23",
"=X c #FFA621",
"-X c #EDBF29",
";X c #FFB125",
":X c #FFBA26",
">X c #F3B125",
",X c #DCC02A",
"<X c #F6C329",
"1X c #FFC529",
"2X c #EDD22F",
"3X c #FBD32D",
"4X c #F0D931",
"5X c #FBEB33",
"6X c None",
/* pixels */
"6X6X6X6X6X6X6X6X6X6X6X6X6X6X6X6X6X6X6X6X6X6X6X6X6X6X6X6X6X6X6X6X",
"6X6X6X6X6X6X6X6X6X6X6X6X6X6X6X6X6X6X6X6X6X6X6X6X6X6X6X6X6X6X6X6X",
"6X6X6X6X6X6X6X6X6X6X6X6X6X6X6X6X6X6X6X6X6X6X6X6X6X6X6X6X6X6X6X6X",
"6X6X6X6X6X6X6X6X6X6X6X6X6X6X6X6X6X6X6X6X6X6X6X6X6X6X6X6X6X6X6X6X",
"6X6X6X6X6X6X6X6X6X6X6X6X6X6X6X6X6X6X6X6X6X6X6X6X6X6X6X6X6X6X6X6X",
"6X6X6X6X6X6X6X6X6X6X6X6X6X6X6X6X6X6X6X6X6X6X6X6X6X6X6X6X6X6X6X6X",
"6X6X6X6X6X6X6X6X6X6X6X6X6X6X6X6X6X6X6X6X6X6X6X6X6X6X6X6X6X6X6X6X",
"6X6X6X6X6X6X6X6X6X6X6X6X6X6X6X6X6X6X6X6X6X6X6X6X6X6X6X6X6X6X6X6X",
"6X6X6X6X6X6X6X6X6X6X6X6X6X6X6X6X6X6X6X6X6X6X6X6X6X6X6X6X6X6X6X6X",
"6X6X6X6X6X6X6X6X6X6X6X6X6X6X6X6X6X6X6X6X6X6X6X6X6X6X6X6X6X6X6X6X",
"6X6X6X6X6X6X6X6X6X6X6X6X6X6X6X6X6X6X6X6X6X6X6X6X6X6X6X6X6X6X6X6X",
"6X6X6X6X6X6X6X6X6X6X6X6X:X6X6X6X6X6X6X6X6X6X6X6X6X6X6X6X6X6X6X6X",
"6X6X6X6X6X6X6X6X6X6X6X6X;X:X6X6X6X6X6X6X6X6X6X6X6X6X6X6X6X6X6X6X",
"6X6X6X6X6X6X6X6X6X6X6X6X;X:X'.6X6X6X6X6X6X6X6X6X6X6X6X6X6X6X6X6X",
"6X6X6X6X6X6X6X. O 6X6X6X:X*X'.6X6X6X6X6X6X6X6X6X6X6X6X6X6X6X6X6X",
"6X6X6X6X6X6X6X: 6 e s 6X1X).x.x.1.6X6X6X6X6X6X4 $ 6X6X6X6X6X6X6X",
"6X6X6X6X[.6X6XP H  .M o.j.t.w.j.=.m 0.u , +.k ; $ 6X6X6X6X6X6X6X",
"6X6X6XB.].6X6X0 l  .N +.w.i.w.e.@.+.h.n J.&.L ; o 6X6X6X6X6X6X6X",
"6X6XX '.].6X6X% k w.^ L.l.z.U.K.~ ~ +Xf.F.%.I -   *X*X6X6X6X6X6X",
"6X6X6X>X$X;.6X6Xm q.R ( @XXXT./ W x 4X/.g.5.x j o 7. X9.> 6X6X6X",
"6X6X` $X>X4.w 6X>.R.Y.m @X|.P.!.E.E 2Xs.s.0.5 b o p.{.X.* 6X6X6X",
"6X* r `.<X .t $ S.Z.{ V /.}.T.E u.Y.u.G.d.z 5 ' D.4.-XO.A < 6X6X",
"6X+ 2 m.b.c.d m  XS.c.e.W.S.9.W C.L.( G.h.k h } | r.5Xb.L F O 6X",
"6X6X2 l J.Z.r @.#Xg.c.[ P.w.G.^ m.L.^ k.^.v j [ ] i.OX*.L 0 6X6X",
"6X6X< F ! z.e r.,X>.y.t.i.U.I.K.r.B v j._.0.g } X.I #.l 6X1 6X6X",
"6X6X< 6XK ! @ ).-Xn T.7.6.<.M C I.9 p A.{.t.f ;.' D K 6X6X6X6X6X",
"6X6X6X6X6XK O q 3 _ p.V.$X X_.f.) @ ..v.N.,., ` i 6X: 6X6X6X6X6X",
"6X6X6X6X6X6X. 4 8 Y p.%X<X>X(.v ) z ..c.8.p = O 6X6X6X6X6X6X6X6X",
"6X6X6X6X6X6X6X6X8 G U `.3XOX2.6 H.J l [ M , % X 6X6X6X6X6X6X6X6X",
"6X6X6X6X6X6X6X6X6Xq G $.M.-.Q Z n.p - - = O 6X6X6X6X6X6X6X6X6X6X",
"6X6X6X6X6X6X6X6X6X6X8 8 T Y G 8 & @ O . O 6X6X6X6X6X6X6X6X6X6X6X",
"6X6X6X6X6X6X6X6X6X6X6X  7 0 - :   6X6X6X6X6X6X6X6X6X6X6X6X6X6X6X"
};
