/* XPM */
static char *result[] = {
/* columns rows colors chars-per-pixel */
"32 32 168 2 ",
"   c #020202",
".  c #0A050A",
"X  c #0D0B0D",
"o  c #120612",
"O  c #130C13",
"+  c #1A0D1A",
"@  c #151215",
"#  c #1D141D",
"$  c #191919",
"%  c #230C22",
"&  c #2D0C2B",
"*  c #300D2E",
"=  c #231522",
"-  c #281727",
";  c #261C26",
":  c #2C112A",
">  c #2B1D2B",
",  c #30162F",
"<  c #301F2F",
"1  c #361335",
"2  c #331C32",
"3  c #381F37",
"4  c #3D133B",
"5  c #3C1E3B",
"6  c #252525",
"7  c #2D222D",
"8  c #342434",
"9  c #382537",
"0  c #342C34",
"q  c #3B253A",
"w  c #3D2B3C",
"e  c #353235",
"r  c #3C333C",
"t  c #40143F",
"y  c #40243E",
"u  c #402C3F",
"i  c #431342",
"p  c #451D43",
"a  c #4C174A",
"s  c #4D194B",
"d  c #511B4F",
"f  c #521A50",
"g  c #581D55",
"h  c #5A1F58",
"j  c #432542",
"k  c #482646",
"l  c #442C43",
"z  c #4F244E",
"x  c #4D2D4B",
"c  c #453344",
"v  c #483347",
"b  c #433A43",
"n  c #4C374B",
"m  c #4E3A4D",
"M  c #50364F",
"N  c #542653",
"B  c #582556",
"V  c #582F56",
"C  c #5C2C5A",
"Z  c #553E54",
"A  c #5D325C",
"S  c #5D3D5B",
"D  c #60235D",
"F  c #61365F",
"G  c #662663",
"H  c #672C64",
"J  c #6A2B67",
"K  c #6C2E69",
"L  c #683666",
"P  c #643E63",
"I  c #693F67",
"U  c #6E316B",
"Y  c #6B3D69",
"T  c #71396D",
"R  c #743272",
"E  c #753A72",
"W  c #783A76",
"Q  c #7C3A79",
"!  c #454445",
"~  c #4B444B",
"^  c #4D4C4D",
"/  c #554254",
"(  c #544A54",
")  c #594458",
"_  c #5D4B5C",
"`  c #5F525F",
"'  c #604B5F",
"]  c #654363",
"[  c #634D62",
"{  c #684D67",
"}  c #6A4E69",
"|  c #71436F",
" . c #655364",
".. c #685267",
"X. c #6C556B",
"o. c #6C596B",
"O. c #70536F",
"+. c #744472",
"@. c #7A4677",
"#. c #754873",
"$. c #7E487A",
"%. c #775375",
"&. c #735C72",
"*. c #7D567B",
"=. c #626262",
"-. c #6A666A",
";. c #6C6B6C",
":. c #766275",
">. c #786277",
",. c #706C70",
"<. c #7B657A",
"1. c #7E697D",
"2. c #797779",
"3. c #7E7D7E",
"4. c #80427D",
"5. c #806B7F",
"6. c #844681",
"7. c #864D83",
"8. c #894B86",
"9. c #855482",
"0. c #895686",
"q. c #845D82",
"w. c #8D568A",
"e. c #8A5F88",
"r. c #945B91",
"t. c #9B5F98",
"y. c #826C81",
"u. c #886E87",
"i. c #867185",
"p. c #887387",
"a. c #8B768A",
"s. c #8D7A8C",
"d. c #907B8F",
"f. c #946492",
"g. c #996295",
"h. c #976F96",
"j. c #986B96",
"k. c #9D629A",
"l. c #9F6A9B",
"z. c #937D92",
"x. c #9A7B99",
"c. c #A0699D",
"v. c #A572A2",
"b. c #A57FA4",
"n. c #868686",
"m. c #888588",
"M. c #8D8B8D",
"N. c #968295",
"B. c #9B879A",
"V. c #9D899C",
"C. c #979797",
"Z. c #9E9C9E",
"A. c #A08C9F",
"S. c #A18EA0",
"D. c #AF87AE",
"F. c #B08EAF",
"G. c #BB95BA",
"H. c gray67",
"J. c #B0AFB0",
"K. c #BBBBBB",
"L. c #C3C2C3",
"P. c gray84",
"I. c gainsboro",
"U. c gray89",
"Y. c #EDEDED",
"T. c #F2F2F2",
"R. c gray99",
"E. c None",
/* pixels */
"E.E.E.E.E.E.E.  E.E.E.E.E.E.E.E.E.E.E.E.E.E.E.E.E.E.E.E.E.E.E.E.",
"E.E.E.E.E.E.E.O # E.E.E.E.E.E.E.E.E.E.E.E.E.E.E.E.E.E.E.E.E.E.E.",
"E.E.E.E.E.E.E.%.%.; O E.E.E.. @ @ X E.E.E.= c c E.E.E.E.E.E.E.E.",
"E.E.E.E.E.E.E.q.j.0 7 E.O 7 m ) / c 7 . ; 8 n 7   E.E.E.E.E.E.E.",
"E.E.E.E.E.E.E.*.k.v ; = ) &.>.:.&. .m 0 ; ) W ;   E.E.E.E.E.E.E.",
"E.E.E.E.E.E.E.y $.3 [ <.<.1.1.1.<.<._ 8 f.r.w.;   E.E.E.E.E.E.E.",
"E.E.E.E.E.E.E.: z _ <.<.1.1.1.5.5.<.Z c l.t.7.7   E.E.E.E.E.E.E.",
"E.E.E.E.E.E.E.: w <.1.p.s.s.s.p.u.<.) q.k.r.7.8   E.E.E.E.E.E.E.",
"E.E.E.E.E.E.E.  X.p.N.B.V.V.V.N.d.p.&.{ Y +.#.9   E.E.E.E.E.E.E.",
"E.E.E.E.E.E.E.  X.y.B.B.V.V.V.<.` u.<.O.I S | c   E.E.E.E.E.E.E.",
"E.E.E.E.E.E.E.   .0  .V.V.V.N.;.3.e y.X.{ Z I c X E.E.E.E.E.E.E.",
"E.E.E.X - X     2.R.Y.` S.V.J.C.R.L.<.&.{ Z c c   E.E.E.E.E.E.E.",
"E.E.. % 5 j y   L.P.6 e B.N.U.^ K.T.1.:.} Z c 8 # E.E.I F 2 E.E.",
"E.% 4 1 & & k O I.! =.! B.z.M.=.! U.a.<.X.Z l 9 O l 9.P l w + E.",
"E.1 4 i f s a [ -.H.@ r F.a.-.@ U.r z.y.X.M w & 1 2 % : , 5 +.E.",
"E.E.i s h f p &.~ I.K.:.G.x.0 m.,.s.N.y.X.n u & 4 = : j p L #.E.",
"E.E.4 h D s & &.o.0 b  .D.u.o.( :.N.N.1.X.n c 1 q 2 p B L | A E.",
"E.E.f G U H + &.X.:.5.` S.&.1.1.s.N.z.1.X.m v 5 4 y C T @.+.3 E.",
"E.o J W 6.8.; X.0 b >.1.u.y.p.N.s.0 @ <.{ m w > v E $.9.7.v.O E.",
"E.E.K 6.8.8.;  .= @ e 7 b X. .r @ > @ &.{ n q 8 8 +.0.r.r.e.E.E.",
"E.E.U 8.w.8.#  .= ! L.X $ $ X # Z.- r &.[ c q >   0.9.c.g.8 E.E.",
"E.E.x E.= V X _ m ^ M.3 # $ # =.T.O &.X.Z u q ;   #.] E.] E.E.E.",
"E.E.O E.E.= . ) _ b z.B V 5 q @ T.$ &.{ n q 8 ;   F ; E.E.E.E.E.",
"E.E.E.E.E..   m  .e h.R z Q B + Y._ &.[ c q 2 = E.A E.E.E.E.E.E.",
"E.E.E.E.E.E.E.; ' ( e ` M.m.^   K.&.[ m 9 2 <   E.a E.E.E.E.E.E.",
"E.E.E.E.E.E.E.# / X.r O       8 o.X.) u 9 > = E.E.E.E.E.E.E.E.E.",
"E.E.E.E.E.E.E.E.0 X.:.) c 0 b :.X._ v 9 8 >   E.E.E.E.E.E.E.E.E.",
"E.E.E.E.E.E.E.E.E.; o.y.N.N.<. .c q 8 2 ;   E.E.E.E.E.E.E.E.E.E.",
"E.E.E.E.E.E.E.E.E.E.w &.&.<.&.) q 8 2 >   E.E.E.E.E.E.E.E.E.E.E.",
"E.E.E.E.E.E.E.E.E.E.6 w X.X.[ q > > ;   E.E.E.E.E.E.E.E.E.E.E.E.",
"E.E.E.E.E.E.E.E.E.E.E.  . # # X   E.E.E.E.E.E.E.E.E.E.E.E.E.E.E.",
"E.E.E.E.E.E.E.E.E.E.E.E.E.E.E.E.E.E.E.E.E.E.E.E.E.E.E.E.E.E.E.E."
};
