/* XPM */
static char *result[] = {
/* columns rows colors chars-per-pixel */
"32 32 167 2 ",
"   c #020202",
".  c #0B070B",
"X  c #0C0B0C",
"o  c #140E14",
"O  c #1B0C1A",
"+  c #141214",
"@  c #1B141B",
"#  c #1E181E",
"$  c #21091F",
"%  c #201419",
"&  c #2C0C2A",
"*  c #241623",
"=  c #291127",
"-  c #231922",
";  c #281A27",
":  c #2C1C2C",
">  c #2E142C",
",  c #361927",
"<  c #351D2C",
"1  c #330D32",
"2  c #3A0E39",
"3  c #341C33",
"4  c #3D133B",
"5  c #391D38",
"6  c #371134",
"7  c #2D232C",
"8  c #352433",
"9  c #342B33",
"0  c #392833",
"q  c #3C263B",
"w  c #3D2D3C",
"e  c #3B2634",
"r  c #3E3C3E",
"t  c #3C3739",
"y  c #7D191E",
"u  c #40241D",
"i  c #6E1A22",
"p  c #5D2F20",
"a  c #412C3F",
"s  c #422430",
"d  c #593637",
"f  c #6C3D2F",
"g  c #703126",
"h  c #441642",
"j  c #491447",
"k  c #4C1B4A",
"l  c #501C4E",
"z  c #521C50",
"x  c #462244",
"c  c #442A43",
"v  c #482846",
"b  c #4F214D",
"n  c #50264E",
"m  c #403E40",
"M  c #4C364A",
"N  c #493647",
"B  c #513D4F",
"V  c #533845",
"C  c #592157",
"Z  c #5D275B",
"A  c #583A56",
"S  c #5C3A5A",
"D  c #573A56",
"F  c #61255F",
"G  c #652962",
"H  c #673965",
"J  c #6D326B",
"K  c #6E386B",
"L  c #653164",
"P  c #70366D",
"I  c #713B6F",
"U  c #793F76",
"Y  c #743A71",
"T  c #544252",
"R  c #584050",
"E  c #5B475A",
"W  c #5E4B5D",
"Q  c #554B55",
"!  c gray34",
"~  c #5E525E",
"^  c #7E444F",
"/  c #7B524F",
"(  c #604C5F",
")  c #674D56",
"_  c #734050",
"`  c #625852",
"'  c #725155",
"]  c #6F476E",
"[  c #664B65",
"{  c #675366",
"}  c #695063",
"|  c #6E5A6D",
" . c #705164",
".. c #715D6D",
"X. c #7C5E6A",
"o. c #764474",
"O. c #774775",
"+. c #785777",
"@. c #636163",
"#. c #726869",
"$. c #756173",
"%. c #796578",
"&. c #7E6D7D",
"*. c #717171",
"=. c #7B7B7B",
"-. c #A91718",
";. c #9D281D",
":. c #A7211D",
">. c #BF1F24",
",. c #BC2429",
"<. c #BA5D18",
"1. c #B9601F",
"2. c #B4641A",
"3. c #924A24",
"4. c #93573D",
"5. c #A74322",
"6. c #B34C35",
"7. c #A85B30",
"8. c #AB6239",
"9. c #BB7033",
"0. c #C75925",
"q. c #C66825",
"w. c #CD652C",
"e. c #C06D2D",
"r. c #D2602E",
"t. c #883644",
"y. c #8E3D65",
"u. c #87404F",
"i. c #864E49",
"p. c #904E55",
"a. c #A25948",
"s. c #9D614B",
"d. c #8C6059",
"f. c #80467D",
"g. c #824A79",
"h. c #81626A",
"j. c #836C7B",
"k. c #D38221",
"l. c #E18D66",
"z. c #874E84",
"x. c #885281",
"c. c #855984",
"v. c #8F578D",
"b. c #8C5A89",
"n. c #905180",
"m. c #975988",
"M. c #846F82",
"N. c #8E6C8C",
"B. c #867185",
"V. c #887087",
"C. c #8B748A",
"Z. c #907A8E",
"A. c #986E97",
"S. c #937D92",
"D. c #8B8A8B",
"F. c #9F9D9F",
"G. c #AD81AC",
"H. c #ACA9A8",
"J. c #B5A7A7",
"K. c #EDB597",
"L. c #D2B5AD",
"P. c #CDC0C0",
"I. c #CECECE",
"U. c #D7C9C0",
"Y. c #DADADA",
"T. c #E1E1E1",
"R. c None",
/* pixels */
"R.R.R.R.R.R.R.R.R.R.R.R.R.R.R.R.R.R.R.R.R.R.R.R.R.R.R.R.R.R.R.R.",
"R.R.R.R.R.R.R.R.R.R.R.R.R.R.R.R.R.R.R.R.R.R.R.R.R.R.R.R.R.R.R.R.",
"R.R.R.R.R.R.R.R.R.R.R.R.R.R.R.R.R.R.R.R.R.R.R.R.R.R.R.R.R.R.R.R.",
"R.R.R.R.R.R.R.R.R.R.R.R.R.R.R.R.R.R.R.R.R.R.R.R.R.R.R.R.R.R.R.R.",
"R.R.R.R.R.R.R.R.R.R.R.R.R.R.R.R.R.R.R.R.R.R.R.R.R.R.R.R.R.R.R.R.",
"R.R.R.R.R.R.R.R.R.R.R.R.R.R.R.R.R.R.R.R.R.R.R.R.R.R.R.R.R.R.R.R.",
"R.R.R.R.R.R.R.R.R.R.R.R.R.R.R.R.R.R.R.R.R.R.R.R.R.R.R.R.R.R.R.R.",
"R.R.R.R.R.R.R.R.R.R.R.R.R.R.R.R.R.R.R.R.R.R.R.R.R.R.R.R.R.R.R.R.",
"R.R.R.R.R.R.R.R.R.R.R.R.R.R.R.R.R.R.R.R.R.R.R.R.R.R.R.R.R.R.R.R.",
"R.R.R.R.R.R.R.R.R.R.R.R.R.R.R.R.R.R.R.R.R.R.R.R.R.R.R.R.R.R.R.R.",
"R.R.R.R.R.R.R.R.R.R.R.R.R.R.R.R.R.R.R.R.R.R.R.R.R.R.R.R.R.R.R.R.",
"R.R.R.R.R.R.R.R.R.R.R.R.R.R.R.R.R.R.R.R.R.R.R.R.R.R.R.R.R.R.R.R.",
"R.R.R.R.R.R.R.R.R.R.R.R.R.R.R.R.R.R.R.R.R.R.R.R.R.R.R.R.R.R.R.R.",
"R.R.R.R.R.R.R.R.R.R.R.R.R.R.R.R.R.R.R.R.R.R.R.R.R.R.R.R.R.R.R.R.",
"R.R.R.R.R.R.R.o @ R.R.R.R.R.R.R.R.R.R.R.R.R.R.R.R.R.R.R.R.R.R.R.",
"R.R.R.R.R.R.R.[ [ % o R.R.R.. X o X R.R.R.@ w w R.R.R.R.R.R.R.R.",
"R.R.R.R.R.R.R.A b.c % T | | | | | { D u s x.O.-   R.R.R.R.R.R.R.",
"R.R.R.R.R.R.R.= x R ..| $.| $.$.$.| V f m.g.O.3   R.R.R.  R.R.R.",
"R.R.  R.R.R.R.  ( X.j.B.B.C.C.B.&.$.i.a.y.g.O.7   R.R.7 @ R.R.R.",
"R.R.R.: S R.R.  W p ) Z.S.S.B.@.*.9 w.e.t.B S a . R.c.4 = R.R.R.",
"R.R.  2 1 ] @   #.K.U.Q S.S.F.D.T.J.w.e._ N q w   c.k h 2 R.R.R.",
"R.& 2 j j 2 6 @ L.3.` r C.M.=.! m P.r.p.' N q O z.z k Z z n > R.",
"R.R.1 G F F x ( 5.l.H.| G.V.9 =.@.&.C.$.' N 8 = k J J Y K S R.R.",
"R.R.1 G v.U O u.0.6.%.T A.{ $.$.M.V.M.d./ N c 3 4 J U P K x R.R.",
"R.R.h L z.z.% ,.<.;.| $.%.%.%.j.&.9 + s.4.V e * c U o.q * x R.R.",
"R.R.x R.H f.% >.2.:.H.X + + X + D.* w 8.7.d s :   ] a R.R.: R.R.",
"R.R.R.R.R.c . B A t M.b v 5 5 + Y.+  .q.<.g < *     R.R.R.R.R.R.",
"R.R.R.R.R.R.R.7 D m +.Q # 8 O O I.| ^ k.2.i : . R.R.R.R.R.R.R.R.",
"R.R.R.R.R.R.R.+ B W w .       7 ~ ( B -.y , @ R.R.R.R.R.R.R.R.R.",
"R.R.R.R.R.R.R.R.R.- { $.C.V.| E w 8 : : ;   R.R.R.R.R.R.R.R.R.R.",
"R.R.R.R.R.R.R.R.R.R.# w [ W E 8 : ; *   R.R.R.R.R.R.R.R.R.R.R.R.",
"R.R.R.R.R.R.R.R.R.R.R.    + @ .   R.R.R.R.R.R.R.R.R.R.R.R.R.R.R."
};
