/* XPM */
static char *result[] = {
/* columns rows colors chars-per-pixel */
"32 32 165 2 ",
"   c #020102",
".  c #0B060B",
"X  c #0D0A0D",
"o  c #130D13",
"O  c #1C0C1C",
"+  c #151215",
"@  c #1C141C",
"#  c #191919",
"$  c #210A1F",
"%  c #240C23",
"&  c #2C0B2B",
"*  c #310C2F",
"=  c #231423",
"-  c #281027",
";  c #251C25",
":  c #2C122B",
">  c #2C1D2B",
",  c #30162F",
"<  c #301F2F",
"1  c #350F33",
"2  c #3C0D3B",
"3  c #351534",
"4  c #331C32",
"5  c #3C153B",
"6  c #3C1D3B",
"7  c #252525",
"8  c #2D222D",
"9  c #352334",
"0  c #382537",
"q  c #342C34",
"w  c #3B263A",
"e  c #3D2B3C",
"r  c #353235",
"t  c #3C333C",
"y  c #40133F",
"u  c #401F3F",
"i  c #40243E",
"p  c #402C3F",
"a  c #451C43",
"s  c #4C174A",
"d  c #4D1C4C",
"f  c #511D4F",
"g  c #521A51",
"h  c #591E56",
"j  c #442343",
"k  c #432F42",
"l  c #482C47",
"z  c #4C244B",
"x  c #4B2A49",
"c  c #453344",
"v  c #483347",
"b  c #433A43",
"n  c #4C374B",
"m  c #4E3A4D",
"M  c #50364F",
"N  c #542653",
"B  c #582556",
"V  c #5D245B",
"C  c #5B2C59",
"Z  c #513050",
"A  c #553E54",
"S  c #5C355A",
"D  c #5A3E59",
"F  c #60245E",
"G  c #60305D",
"H  c #662C63",
"J  c #6D2D6A",
"K  c #653362",
"L  c #6A3267",
"P  c #673D65",
"I  c #693F67",
"U  c #6D346A",
"Y  c #6D3B6A",
"T  c #70356D",
"R  c #753572",
"E  c #783C76",
"W  c #7C3C79",
"Q  c #454445",
"!  c #4B444B",
"~  c #4D4C4D",
"^  c #554254",
"/  c #544A54",
"(  c #594458",
")  c #5D4B5C",
"_  c #5F525F",
"`  c #604B5F",
"'  c #624060",
"]  c #684367",
"[  c #634D62",
"{  c #684D67",
"}  c #6D456C",
"|  c #6A4E69",
" . c #71426F",
".. c #655364",
"X. c #685267",
"o. c #6C556B",
"O. c #6C596B",
"+. c #70536F",
"@. c #754573",
"#. c #794475",
"$. c #7D4679",
"%. c #7E497A",
"&. c #775375",
"*. c #735C72",
"=. c #7D567B",
"-. c #626262",
";. c #6A666A",
":. c #6C6B6C",
">. c #766275",
",. c #786277",
"<. c #706C70",
"1. c #7B657A",
"2. c #7E697D",
"3. c #797779",
"4. c #7E7D7E",
"5. c #80427D",
"6. c #814B7E",
"7. c #806B7F",
"8. c #854C82",
"9. c #8A4F87",
"0. c #865283",
"q. c #845D82",
"w. c #8F5A8C",
"e. c #945991",
"r. c #9B5F98",
"t. c #826C81",
"y. c #886E87",
"u. c #867185",
"i. c #887387",
"p. c #8B768A",
"a. c #8D7A8C",
"s. c #907B8F",
"d. c #936791",
"f. c #976F96",
"g. c #986B96",
"h. c #9D629A",
"j. c #9F699C",
"k. c #937D92",
"l. c #9A7B99",
"z. c #A0699D",
"x. c #A57FA4",
"c. c #868686",
"v. c #888588",
"b. c #8D8B8D",
"n. c #968295",
"m. c #9B879A",
"M. c #9D899C",
"N. c #979797",
"B. c #9E9C9E",
"V. c #A08C9F",
"C. c #A18EA0",
"Z. c #AF87AE",
"A. c #B08EAF",
"S. c #BB95BA",
"D. c gray67",
"F. c #B0AFB0",
"G. c #BBBBBB",
"H. c #C3C2C3",
"J. c gray84",
"K. c gainsboro",
"L. c gray89",
"P. c #EDEDED",
"I. c #F2F2F2",
"U. c gray99",
"Y. c None",
/* pixels */
"Y.Y.Y.Y.Y.Y.Y.  Y.Y.Y.Y.Y.Y.Y.Y.Y.Y.Y.Y.Y.Y.Y.Y.Y.Y.Y.Y.Y.Y.Y.Y.",
"Y.Y.Y.Y.Y.Y.Y.o @ Y.Y.Y.Y.Y.Y.Y.Y.Y.Y.Y.Y.Y.Y.Y.Y.Y.Y.Y.Y.Y.Y.Y.",
"Y.Y.Y.Y.Y.Y.Y.&.&.; o Y.Y.Y.. o + . Y.Y.Y.@ c c Y.Y.Y.Y.Y.Y.Y.Y.",
"Y.Y.Y.Y.Y.Y.Y.q.g.q 8 Y.o 8 m ) ^ c 8 . ; 0 n 8   Y.Y.Y.Y.Y.Y.Y.",
"Y.Y.Y.Y.Y.Y.Y.=.z.v ; = ( ,.,.,.*...m 0 ; ( E ;   Y.Y.Y.Y.Y.Y.Y.",
"Y.Y.Y.Y.Y.Y.Y.i $.6 [ ,.1.1.1.1.1.,.) q d.e.9.8   Y.Y.Y.Y.Y.Y.Y.",
"Y.Y.Y.Y.Y.Y.Y.: z ` 1.1.2.2.t.t.t.1.^ c z.r.8.8   Y.Y.Y.Y.Y.Y.Y.",
"Y.Y.Y.Y.Y.Y.Y.: e ,.7.u.a.a.a.i.u.1.( q.h.e.8.9   Y.Y.Y.Y.Y.Y.Y.",
"Y.Y.Y.Y.Y.Y.Y.  o.u.n.m.m.m.m.n.s.p.*.{ Y  .@.w   Y.Y.Y.Y.Y.Y.Y.",
"Y.Y.Y.Y.Y.Y.Y.  O.7.m.m.m.M.M.2._ t.1.o.] (  .c   Y.Y.Y.Y.Y.Y.Y.",
"Y.Y.Y.Y.Y.Y.Y.  ..q ..M.M.C.b.:.4.r t.&.{ A P c X Y.Y.Y.Y.Y.Y.Y.",
"Y.Y.Y.Y.= - O   3.U.P._ C.M.F.N.U.H.,.*.{ A k c   Y.Y.Y.Y.Y.Y.Y.",
"Y.Y.= x ] ] j X H.J.7 r M.n.L.~ G.I.2.,.| A l 0 @ Y.Y.Y.Y.Y.Y.Y.",
"Y.9 P z 1 & j o L.Q -.Q m.n.b.-.Q L.p.1.o.A k e > : 0 Y.Y.Y.Y.Y.",
"Y.Y.1 5 g s s [ ;.D.X t A.p.;.+ L.t k.t.O.m w 3 > 3 , j S } Z Y.",
"Y.Y.2 s h g a *.m K.G.>.S.l.q c.<.a.n.t.o.n p & 5 - 3 a j z C x ",
"Y.Y.& h F g - *.*.q b ..A.y.O./ >.n.n.2.o.m v 3 w 3 j N K S j Y.",
"Y.Y.g J F V + &.o.*.t.` x.*.2.t.a.n.s.2.o.m v 6 5 i C Y #.Y : Y.",
"Y.a J T F H ; O.q b >.3.y.t.u.s.a.q + ,.{ m e ; ' T 0.%.#.w.% Y.",
"Y.d J R V J ; ..= o r 8 b O...t o > # *.{ n 0 9 0 $.0.w.6.$.: Y.",
"Y.Y.d W L R ; ..= Q H.X + # + # B.> t *.` v w 9 % 0.6.w.8.#.5 Y.",
"Y.Y.Y.T d U o ) m ~ b.4 @ # @ -.I.X ,.o.A e 0 =   4 #.$.$.5 Y.Y.",
"Y.Y.Y.H 3 H . ( ) b n.B C 6 w + I.# *.{ n 0 9 >   % Y Y Y 3 Y.Y.",
"Y.Y.Y.3 o C   m ..r f.R z W N O P.` *.[ v 0 4 = Y.$ Y C C % Y.Y.",
"Y.Y.Y.Y.Y.Y.Y.8 [ / r ..b.v./   G.*.{ n 0 4 4   Y.: z O % X Y.Y.",
"Y.Y.Y.Y.Y.Y.Y.o ^ ..t X       q O.X.( p 0 8 = Y.Y.% 3 Y.Y.o Y.Y.",
"Y.Y.Y.Y.Y.Y.Y.Y.q o.*.) b q b *.o.) v 0 9 >   Y.Y.O Y.Y.Y.Y.Y.Y.",
"Y.Y.Y.Y.Y.Y.Y.Y.Y.> O.t.n.k.1.X.v e 9 > >   Y.Y.Y.Y.Y.Y.Y.Y.Y.Y.",
"Y.Y.Y.Y.Y.Y.Y.Y.Y.Y.e *.,.,.*.( 0 9 < >   Y.Y.Y.Y.Y.Y.Y.Y.Y.Y.Y.",
"Y.Y.Y.Y.Y.Y.Y.Y.Y.Y.7 e o.o.[ 0 > > ;   Y.Y.Y.Y.Y.Y.Y.Y.Y.Y.Y.Y.",
"Y.Y.Y.Y.Y.Y.Y.Y.Y.Y.Y.  . + = .   Y.Y.Y.Y.Y.Y.Y.Y.Y.Y.Y.Y.Y.Y.Y.",
"Y.Y.Y.Y.Y.Y.Y.Y.Y.Y.Y.Y.Y.Y.Y.Y.Y.Y.Y.Y.Y.Y.Y.Y.Y.Y.Y.Y.Y.Y.Y.Y."
};
