/* XPM */
static char *result[] = {
/* columns rows colors chars-per-pixel */
"32 32 150 2 ",
"   c #030203",
".  c #090609",
"X  c #0D090D",
"o  c #180417",
"O  c #140D14",
"+  c #1B0819",
"@  c #141014",
"#  c #1C141C",
"$  c #1F1C1F",
"%  c #20091E",
"&  c #220620",
"*  c #250C24",
"=  c #2A0A28",
"-  c #300F2E",
";  c #231522",
":  c #281427",
">  c #241B23",
",  c #281927",
"<  c #2C112C",
"1  c #2C1D2C",
"2  c #30152F",
"3  c #301E2F",
"4  c #330C32",
"5  c #341233",
"6  c #331D32",
"7  c #3B163A",
"8  c #3B1E3A",
"9  c #272127",
"0  c #2C232C",
"q  c #2D2C2D",
"w  c #332333",
"e  c #382537",
"r  c #352B35",
"t  c #3B273A",
"y  c #3B2B3B",
"u  c #363736",
"i  c #3D333D",
"p  c #3E3A3E",
"a  c #402D3F",
"s  c #451343",
"d  c #431842",
"f  c #4E1C4C",
"g  c #531750",
"h  c #531D51",
"j  c #422341",
"k  c #432E42",
"l  c #4D2A4C",
"z  c #443343",
"x  c #483447",
"c  c #443B44",
"v  c #4B344A",
"b  c #4B3C4B",
"n  c #503E4F",
"m  c #542152",
"M  c #592957",
"N  c #5D255A",
"B  c #5C2B5C",
"V  c #553654",
"C  c #533E52",
"Z  c #5C3C5B",
"A  c #662563",
"S  c #672B64",
"D  c #6A2A67",
"F  c #6E2C6B",
"G  c #712E6E",
"H  c #623461",
"J  c #633E62",
"K  c #683F67",
"L  c #6E3A6C",
"P  c #71346E",
"I  c #703C6F",
"U  c #783275",
"Y  c #4B4A4B",
"T  c #554454",
"R  c #584457",
"E  c #574B56",
"W  c #5B455A",
"Q  c #5D4A5C",
"!  c #5F505E",
"~  c #60495F",
"^  c #664665",
"/  c #684467",
"(  c #634E62",
")  c #684F67",
"_  c #6A4169",
"`  c #694E68",
"'  c #71426F",
"]  c #655264",
"[  c #685467",
"{  c #625F62",
"}  c #6C556B",
"|  c #6D5A6C",
" . c #70516E",
".. c #705A6F",
"X. c #724070",
"o. c #794076",
"O. c #734971",
"+. c #7F4F7D",
"@. c #725371",
"#. c #735C72",
"$. c #7D587C",
"%. c gray40",
"&. c #756274",
"*. c #786177",
"=. c #716F71",
"-. c #7B657A",
";. c #7E697D",
":. c #823C7F",
">. c #806B7F",
",. c #8B4687",
"<. c #844C81",
"1. c #855583",
"2. c #885285",
"3. c #865884",
"4. c #8D548A",
"5. c #8E5E8C",
"6. c #91538E",
"7. c #915A8F",
"8. c #846283",
"9. c #836D82",
"0. c #8B6E8A",
"q. c #857284",
"w. c #887387",
"e. c #8A7689",
"r. c #8E7A8D",
"t. c #907C8F",
"y. c #9C6999",
"u. c #937C92",
"i. c #A2659F",
"p. c #A06A9E",
"a. c #A1729F",
"s. c #A365A1",
"d. c #A669A3",
"f. c #AA6EA7",
"g. c #B87DB6",
"h. c #888888",
"j. c #958194",
"k. c #988497",
"l. c #918F91",
"z. c #9A8599",
"x. c #9C899B",
"c. c #A08C9F",
"v. c #A48BA3",
"b. c #A88AA7",
"n. c #AA8CA9",
"m. c #A491A3",
"M. c #D2D2D2",
"N. c #EEEEEE",
"B. c #F9F9F9",
"V. c None",
/* pixels */
"V.V.V.V.V.V.V.V.V.V.V.V.V.V.V.V.V.V.V.V.V.V.V.V.V.V.V.V.V.V.V.V.",
"V.V.V.V.V.V.V.V.9 # X V.V.V.V.  O O X V.V.V.V.V.V.V.V.V.V.V.V.V.",
"V.V.V.V.V.V.1 x v ] n V.  # a C Q Q C r 9 . . .   V.V.V.V.V.V.V.",
"V.V.V.V.V.V.&.8.( 1 ; Q *.-.-.-.-.-.-.( R O T > ;.-.@   V.V.V.V.",
"V.V.V.V.V.# ..-.^ z ( -.-.-.-.;.-.>.-.#.~ W z V q.;.r # V.V.V.V.",
"V.V.V.V.V.9 C  .w -.-.-.-.;.9.>.>.8.;.#.a i a.+.*.&.w X V.V.V.V.",
"V.V.V.V.V.V.O : *.-.>.q.e.r.r.r.q.q.9.W W 8.p.i.r [ > . V.V.V.V.",
"V.V.V.V.V.V.V.O -.9.r.u.j.k.k.k.u.e.e.#.| $.o.<.1 > # . V.V.V.V.",
"V.V.V.V.V.V.V.0 9.r.k.z.x.x.x.z.k.u.r.9.@.` I Z _ @ @ # V.V.V.V.",
"V.V.V.V.V.V.V.c &.t.k.z.x.x.x.x.e.0.9.w.-.} ` Z / X.y w V.V.V.V.",
"V.V.V.V.,   V.i q.( R x.m.m.e.9.r.e.Q -.;.#.@.C v z x y   V.V.V.",
"V.V.V.1 v O   c u.#.[ 9.x.v.;.e.w.-.} #.>.#.O.W z z z , ; O V.V.",
"V.V.V.+._ j   [ x.| W R x.j.9.r.9.| W R 9.&.#.W x z #   y.* V.V.",
"V.V.  H 5 5 # ;.e.] T Q k.z.| 9.[ ( R [ } -.#.^ x x + B B X.+ V.",
"V.O w 5 - s i Q &.x z 9 q.b.9 i b c w c &.>.$.( x k f L 5 4.: V.",
"V.O y.j m A [ Q 9 $ # r n.v.c c y r y ] q.9.-.( x t 4 g h H K V.",
"V.y.t :.,.< #.&.T i i ] -.z *.| T Q ;.x.k.>.#.^ x z 5 d U v f.V.",
"V.7.l s.i.X #.} ..*.q.Q y w 9.;.;.q.j.k.r.;.#.Q x x 8 = A 1.7.V.",
"V.3.l i.4.O ..;.;.e.u.k.u.0.;.w.r.r.j.r.q.-.#.R x k ; 5 N g.k V.",
"V.O.8 d.2.# #.*.r.| -.9.w.r.9.q.j.k.r.r.9.-.#.R x t , X , / * V.",
"V.6 8 d.2.> [ #.] X q 9 y c E b u > p w.w.&.} R a t e @ > 5 d V.",
"V.O 2 6.I @ [ | c B.M.. u   q X   $ X ] 9.| } V t t 6 O 2 N d V.",
"V.5 A P S . Q [ @ M.h.< { X Y ; %.N.Y y [ [ ( v t e ; + = D 7 V.",
"V.  f P G # Q ! r l.;.; # O r 8   M.u | | [ R k t w 1 X & N < V.",
"V.V.  D F B r W Q p b { ] &.&.%.# =.0 -.#.( C t w 3 @   o h * V.",
"V.V.V.A F F . @ [ r 0 ;.r.j.e.h.E E b ( C k t w 3 ;   V.. 4 * V.",
"V.V.V.G 8     . r R i 9.q.r.e.q.&.Q C x k 6 w 1 .   V.V.  5 V.V.",
"V.V.V.* V.V.V.V.  ( #.9.r.j.e.;...W x y w 6 1 ;   V.V.V.  * V.V.",
"V.V.V.  V.V.V.V.V.. r -.q.w.;.$.Q b t w w 1 1   V.V.V.V.V.V.V.V.",
"V.V.V.V.V.V.V.V.V.V.V.X @ @ T b , 1 ; # . . V.V.V.V.V.V.V.V.V.V.",
"V.V.V.V.V.V.V.V.V.V.V.V.V.O X X X X . V.V.V.V.V.V.V.V.V.V.V.V.V.",
"V.V.V.V.V.V.V.V.V.V.V.V.V.V.V.V.V.V.V.V.V.V.V.V.V.V.V.V.V.V.V.V."
};
