/* XPM */
static char *result[] = {
/* columns rows colors chars-per-pixel */
"32 32 131 2 ",
"   c black",
".  c #040404",
"X  c gray2",
"o  c #060606",
"O  c gray3",
"+  c #090909",
"@  c #0E0E0E",
"#  c #151515",
"$  c #191919",
"%  c gray10",
"&  c gray11",
"*  c #1E1E1E",
"=  c #202020",
"-  c gray15",
";  c #282828",
":  c #2A2A2A",
">  c gray17",
",  c #2C2C2C",
"<  c #2D2D2D",
"1  c #313131",
"2  c #323232",
"3  c gray20",
"4  c #343434",
"5  c #353535",
"6  c gray21",
"7  c #373737",
"8  c gray22",
"9  c #393939",
"0  c #3A3A3A",
"q  c gray23",
"w  c #3C3C3C",
"e  c gray24",
"r  c #3E3E3E",
"t  c gray25",
"y  c gray26",
"u  c #434343",
"i  c gray27",
"p  c #464646",
"a  c gray28",
"s  c #494949",
"d  c gray29",
"f  c #4B4B4B",
"g  c #4C4C4C",
"h  c gray30",
"j  c #4E4E4E",
"k  c gray31",
"l  c #515151",
"z  c #535353",
"x  c gray33",
"c  c #565656",
"v  c gray34",
"b  c #585858",
"n  c gray35",
"m  c #5A5A5A",
"M  c #5B5B5B",
"N  c gray36",
"B  c gray37",
"V  c #5F5F5F",
"C  c gray38",
"Z  c #626262",
"A  c gray39",
"S  c #656565",
"D  c #676767",
"F  c #686868",
"G  c DimGray",
"H  c gray42",
"J  c #6F6F6F",
"K  c gray44",
"L  c #717171",
"P  c #747474",
"I  c gray46",
"U  c gray47",
"Y  c #7B7B7B",
"T  c gray52",
"R  c #868686",
"E  c gray53",
"W  c #888888",
"Q  c #8B8B8B",
"!  c gray55",
"~  c #8D8D8D",
"^  c #8E8E8E",
"/  c gray56",
"(  c #909090",
")  c gray57",
"_  c #929292",
"`  c #939393",
"'  c gray58",
"]  c #959595",
"[  c #9A9A9A",
"{  c #9B9B9B",
"}  c gray62",
"|  c #A0A0A0",
" . c gray63",
".. c #A2A2A2",
"X. c gray64",
"o. c #A5A5A5",
"O. c #A7A7A7",
"+. c gray66",
"@. c gray67",
"#. c #ACACAC",
"$. c #AEAEAE",
"%. c gray70",
"&. c gray71",
"*. c #B6B6B6",
"=. c gray74",
"-. c gray75",
";. c #C0C0C0",
":. c #C1C1C1",
">. c gray77",
",. c gray78",
"<. c #CACACA",
"1. c gray81",
"2. c #D5D5D5",
"3. c gray84",
"4. c #D7D7D7",
"5. c #D8D8D8",
"6. c gainsboro",
"7. c #DFDFDF",
"8. c gray89",
"9. c #E4E4E4",
"0. c #E6E6E6",
"q. c #E7E7E7",
"w. c gray91",
"e. c #E9E9E9",
"r. c #EAEAEA",
"t. c gray92",
"y. c #ECECEC",
"u. c gray93",
"i. c #EFEFEF",
"p. c gray95",
"a. c None",
/* pixels */
"a.a.a.a.a.a.a.a.a.a.a.a.a.a.a.a.a.a.a.a.a.a.a.a.a.a.a.a.a.a.a.a.",
"a.a.a.a.a.a.a.a.a.a.a.a.a.a.a.a.a.a.a.a.a.a.a.a.a.a.a.a.a.a.a.a.",
"a.a.a.a.a.a.a.a.a.a.a.a.a.a.a.a.a.a.a.a.a.a.a.a.a.a.a.a.a.a.a.a.",
"a.a.a.a.a.a.a.a.a.a.a.a.a.a.a.a.a.a.a.a.a.a.a.a.a.a.a.a.a.a.a.a.",
"a.a.a.a.a.a.a.a.a.a.a.a.a.a.a.a.a.a.a.a.a.a.a.a.a.a.a.a.a.a.a.a.",
"a.a.a.a.a.a.a.a.a.a.a.a.a.a.a.a.a.a.a.a.a.a.a.a.a.a.a.a.a.a.a.a.",
"a.a.a.a.a.a.a.a.a.a.a.a.a.a.a.a.a.a.a.a.a.a.a.a.a.a.a.a.a.a.a.a.",
"a.a.a.a.a.a.a.a.a.a.a.a.a.i 6 3 5 e 0 a.a.a.a.a.a.a.a.a.a.a.a.a.",
"a.a.a.a.a.a.a.a.a.a.a.a.6 ( *.] O.` S 7 4 a.a.a.a.a.a.a.a.a.a.a.",
"a.a.a.a.a.a.a.a.a.a.a.3 / &.:.:.4.<.#.F J 4 a.a.a.a.a.a.a.a.a.a.",
"a.a.a.a.a.a.a.a.a.a.a.] ..r.3.1.3.2.-.! c G 3 a.a.a.a.a.a.a.a.a.",
"a.a.a.a.a.a.a.a.a.a.e I >.p.9.,.+.^ =.W h g L 3 a.a.a.a.a.a.a.a.",
"a.a.a.a.a.a.a.a.a.2 ] k 7.y.q.@ w  .) Q A j x 5 a.a.a.a.a.a.a.a.",
"a.a.a.a.a.a.a.a.a.r   # 6.i.& , o ^ ~ ' D h h 9 a.a.a.a.a.a.a.a.",
"a.a.a.a.a.a.a.a.a.E ; X h t.= *   < { ! Z g b 3 a.a.a.a.a.a.a.a.",
"a.a.a.a.a.a.a.a.a.[ - + 6 w.$ & . : T Y V 0 B 3 a.a.a.a.a.a.a.a.",
"a.a.a.a.a.a.a.a.a.8 p   e.5.> % O _ K N c a C a.a.a.a.a.a.a.a.a.",
"a.a.a.a.a.a.a.a.a.3 } 0.B y >.o.O.U M M h v 4 a.a.a.a.a.a.a.a.a.",
"a.a.a.a.a.a.a.a.a.a.R 8.@.X.| $.~ S N l s H 3 a.a.a.a.a.a.a.a.a.",
"a.a.a.a.a.a.a.a.a.a.6 7 %.u.6 ;.^ 4 N q 4 3 a.a.a.a.a.a.a.a.a.a.",
"a.a.a.a.a.a.a.a.a.a.a.7 7 4 q 4 4 6 t L n 2 a.a.a.a.a.a.a.a.a.a.",
"a.a.a.a.a.a.a.a.a.a.3 5 5 9 4 5 3 x x d s 1 a.a.a.a.a.a.a.a.a.a.",
"a.a.a.a.a.a.a.a.a.a.4 V D G M m j s a k u 1 a.a.a.a.a.a.a.a.a.a.",
"a.a.a.a.a.a.a.a.a.a.a.6 3 4 3 3 3 4 3 a.1 2 a.a.a.a.a.a.a.a.a.a.",
"a.a.a.a.a.a.a.a.a.a.1 1 1 3 1 t 1 1 3 1 C 3 1 a.a.a.a.a.a.a.a.a.",
"a.a.a.a.a.a.a.a.a.1 I k F P f I k c P B n z 7 a.a.a.a.a.a.a.a.a.",
"a.a.a.a.a.a.a.a.a.a.a.a.a.a.a.a.a.a.a.a.a.a.a.a.a.a.a.a.a.a.a.a.",
"a.a.a.a.a.a.a.a.a.a.a.a.a.a.a.a.a.a.a.a.a.a.a.a.a.a.a.a.a.a.a.a.",
"a.a.a.a.a.a.a.a.a.a.a.a.a.a.a.a.a.a.a.a.a.a.a.a.a.a.a.a.a.a.a.a.",
"a.a.a.a.a.a.a.a.a.a.a.a.a.a.a.a.a.a.a.a.a.a.a.a.a.a.a.a.a.a.a.a.",
"a.a.a.a.a.a.a.a.a.a.a.a.a.a.a.a.a.a.a.a.a.a.a.a.a.a.a.a.a.a.a.a.",
"a.a.a.a.a.a.a.a.a.a.a.a.a.a.a.a.a.a.a.a.a.a.a.a.a.a.a.a.a.a.a.a."
};
