/* XPM */
static char *result[] = {
/* columns rows colors chars-per-pixel */
"32 32 15 1 ",
"  c #050402",
". c #090703",
"X c #060903",
"o c #0D0A04",
"O c #0B0A09",
"+ c #120D06",
"@ c #140F08",
"# c #0C1006",
"$ c #0F1108",
"% c #151007",
"& c #161109",
"* c #1A140B",
"= c #21170D",
"- c #22190E",
"; c #271C10",
/* pixels */
"@@&&&*&@o+o.o&&&&&&&&*%ooo...o+@",
"@&*****@%o.X %&%&&&&&&oooo##@&&@",
"&&***&@oo..+oo##%%&&%$oX.o$#%*&&",
"&&&&*&%oo@&*&&oX .o#O.XXXo$#&*&&",
"@&@&*%oX+&*=**&@%oOO####.o+@+*+%",
"+@@@&oX.++&%****&&&$$$&o@+ o%%+%",
"++@@oX .++++%**=****&%&&&&.+++++",
"o+o@o  .++.++%%***-*&&&&&%. .+.+",
"oooo ..o+oo+++**$*&**&&&&&X ..oo",
"oo..o.o++++++**%*****&*&&&X oooo",
"Xo.&.++o.++++%*****--*&&&&# .ooo",
"ooo%++.o.+%%+++***---*&&**$ .@+o",
"%%.%&+..+o@*@@@****;***&*-o .&&@",
"o$$o+&+.Oo+@@@@%***;;-****oX&*&+",
"ooo.+&ooo++.+++@***;;*****o#@*@o",
"ooo.o++oo@+++.++****--***&o+%&++",
".++.++.++%+++++%$******=*@.+&&++",
"+.+.+++++++..++%$*******&@.%&&++",
".+++++++%%+++++%$&**&*&*&Oo&&++o",
". ++@@+@&&+.++++O$$*****&$O&%+++",
". ++%%@@%*@+@o@+o*=*=&**$# @*++.",
"++++%%@%%&@+oo+..@*==**&oX @%++.",
".++++++%%++.oo+.oo@&%%%%@X..++..",
"++ +++++++++..@.@oo@+*++@o   ...",
".. +++oo+.+.++@+@+o@@@++@o.    o",
"++o*++++++...+oo+ooo++++o@+   +@",
"&o+*&++...oo+o+oO  Xo+@ooo. Xo&*",
"&oo&**+  ...+.. X    O.....o.***",
"@@o..o.   .oo. .o@+  XX   .@@*&&",
"+o+++o..   ...o@@@*&++oo  +++++@",
"o+@@+o.o.....$&*&%@&&&@+o.o+oooo",
"@@%%%%+++o. o&*&%%%%@*@+o..oooo+"
};
