/* XPM */
static char *result[] = {
/* columns rows colors chars-per-pixel */
"32 32 203 2 ",
"   c black",
".  c #010101",
"X  c #030301",
"o  c #020202",
"O  c gray1",
"+  c #040404",
"@  c gray2",
"#  c #060606",
"$  c gray3",
"%  c #090909",
"&  c gray4",
"*  c #0B0B0B",
"=  c #0F0E09",
"-  c #0C0C0C",
";  c gray5",
":  c #0E0D0D",
">  c #0E0E0E",
",  c gray6",
"<  c #131204",
"1  c #1B130A",
"2  c #101010",
"3  c #111111",
"4  c #131313",
"5  c gray8",
"6  c #151515",
"7  c #161616",
"8  c gray9",
"9  c #181818",
"0  c #191919",
"q  c gray10",
"w  c #1B1B1B",
"e  c gray11",
"r  c #1D1D1D",
"t  c gray12",
"y  c #342D0F",
"u  c #393606",
"i  c #2B2115",
"p  c #3B2B1B",
"a  c #202020",
"s  c gray13",
"d  c #222222",
"f  c gray14",
"g  c #252525",
"h  c gray15",
"j  c #282828",
"k  c gray16",
"l  c #2A2A2A",
"z  c gray17",
"x  c #2C2C2C",
"c  c #2D2D2D",
"v  c gray18",
"b  c #2F2F2F",
"n  c #3D372E",
"m  c gray19",
"M  c #313131",
"N  c #323232",
"B  c gray20",
"V  c #343434",
"C  c #353535",
"Z  c gray21",
"A  c #373737",
"S  c gray22",
"D  c #393939",
"F  c #3A3A3A",
"G  c gray23",
"H  c #3C3C3C",
"J  c gray24",
"K  c #3E3E3E",
"L  c #3F3F3F",
"P  c #533C21",
"I  c #554914",
"U  c #766F15",
"Y  c #554C28",
"T  c #78572F",
"R  c gray25",
"E  c #414141",
"W  c gray26",
"Q  c #434343",
"!  c #444444",
"~  c #454444",
"^  c gray27",
"/  c #464646",
"(  c #474646",
")  c gray28",
"_  c #484848",
"`  c #494949",
"'  c #4B4B4B",
"]  c #4C4C4C",
"[  c gray30",
"{  c #4E4E4E",
"}  c gray31",
"|  c #505050",
" . c #515151",
".. c #535353",
"X. c gray33",
"o. c #555555",
"O. c #565656",
"+. c gray34",
"@. c #585858",
"#. c #5A5A5A",
"$. c #5B5B5B",
"%. c #5C5B59",
"&. c gray36",
"*. c #656564",
"=. c #686868",
"-. c #6C6C6C",
";. c gray46",
":. c #797979",
">. c #966A3D",
",. c #9B8C22",
"<. c #A79D21",
"1. c #BC9E34",
"2. c #B3A824",
"3. c #B9A42B",
"4. c #BAA62C",
"5. c #BBA72C",
"6. c #BCA82B",
"7. c #BFAC2B",
"8. c #BDA92C",
"9. c #BEAA2C",
"0. c #C1AE2B",
"q. c #C4B02C",
"w. c #C8B42C",
"e. c #C8B62D",
"r. c #C5AA30",
"t. c #D5B537",
"y. c #DCCF2E",
"u. c #E4D730",
"i. c #F3D03D",
"p. c #FBD83F",
"a. c #FCD83F",
"s. c #F2E433",
"d. c #F4E534",
"f. c #F8E935",
"g. c #F9EA35",
"h. c #F9EB36",
"j. c #B78546",
"k. c #BD874C",
"l. c #C68F4C",
"z. c #C48D4E",
"x. c #C69447",
"c. c #C7914C",
"v. c #C6914D",
"b. c #DAA74A",
"n. c #E2B445",
"m. c #E9BD42",
"M. c #E9BD43",
"N. c #EABD43",
"B. c #EFC642",
"V. c #FBD840",
"C. c #FBD940",
"Z. c #808080",
"A. c #868686",
"S. c #8D8D8D",
"D. c #918F8F",
"F. c #929292",
"G. c gray59",
"H. c gray60",
"J. c gray61",
"K. c #A0A0A0",
"L. c gray63",
"P. c #A7A6A6",
"I. c #A7A7A7",
"U. c gray66",
"Y. c #AEAEAE",
"T. c #B4B4B4",
"R. c #B5B4B4",
"E. c gray73",
"W. c #BBBBBB",
"Q. c #BCBCBC",
"!. c gray76",
"~. c #C5C5C5",
"^. c #CACACA",
"/. c #CBCBCB",
"(. c #CDCDCD",
"). c gray81",
"_. c #D0D0D0",
"`. c #D2D2D2",
"'. c LightGray",
"]. c #D5D5D5",
"[. c gray84",
"{. c #D7D7D7",
"}. c #DADADA",
"|. c gainsboro",
" X c gray87",
".X c #DFDFDF",
"XX c gray88",
"oX c gray89",
"OX c #E6E6E6",
"+X c gray91",
"@X c #EAEAEA",
"#X c gray94",
"$X c gray95",
"%X c #F4F4F4",
"&X c #F6F6F6",
"*X c gray97",
"=X c #F9F9F9",
"-X c gray98",
";X c #FBFBFB",
":X c gray99",
">X c #FDFDFD",
",X c #FEFEFE",
"<X c None",
/* pixels */
"<X<X<X<X<X<X<X<X<X<X<X<X<X<X<X<X<X<X<X<X<X<X<X<X<X<X<X<X<X<X<X<X",
"<X<X<X<X<X<X<X<X<X<X<X<X<X<X<X<X<X<X<X<X<X<X<X<X<X<X<X<X<X<X<X<X",
"<X<X<X<X<X<X<X<X<X<X<X<X<X<X<X<X<X<X<X<X<X<X<X<X<X<X<X<X<X<X<X<X",
"<X<X<X<X<X<X<X<X<X<X<X<X<X<X<X<X<X<X<X<X<X<X<X<X<X<X<X<X<X<X<X<X",
"<X<X<X<X<X<X<X<X<X<X<X<X<X<X<X<X<X<X<X<X<X<X<X<X<X<X<X<X<X<X<X<X",
"<X<X<X<X<X<X<X<X<X<X<X<X<X<X<X<X<X<X<X<X<X<X<X<X<X<X<X<X<X<X<X<X",
"<X<X<X<X<X<X<X<X<X<X<X<X<X<X<X<X<X<X<X<X<X<X<X<X<X<X<X<X<X<X<X<X",
"<X<X<X<X<X<X<X<X<X<X<X<X<X| { K z O     <X<X<X<X<X<X<X<X<X<X<X<X",
"<X<X<X<X<X<X<X<X<X<X<XF ..+.' J l o o .     <X<X<X<X<X<X<X<X<X<X",
"<X<X<X<X<X<X<X<X<X<XV ' $.| E z 4 - s , + . <X<X<X<X<X<X<X<X<X<X",
"<X<X<X<X<X<X<X<X<X<XJ X.o.^ C 9 % -.{.P.~ @ <X<X<X<X<X<X<X<X<X<X",
"<X<X<X<X<X<X<X<X<Xk K O.} E C w t }.R.z a + < <X<X<X<X<X<X<X<X<X",
"<X<X<X<X<X<X<X<X<X4 L +.] Q D w h ].D.= y I r.p.a.<X<X<X<X<X<X<X",
"<X<X<X<X<X<X<X<X<X; K O.] ^ G r % ` ( Y 1.t.i.p.p.p.V.C.<X<X<X<X",
"<X<X<X<X<X<X<X<X  , F / V A N 6 O . : P j.x.b.N.B.M.n.n.m.<X<X<X",
"<X<X<X<X<X<X<X<X. 9 A S d 0 8 $       1 >.k.l.c.v.z.<X<X<X<X<X<X",
"<X<X<X<X<X<X<Xo * z J Z j , o           X i p T <X<X<X<X<X<X<X<X",
"<X<X<X<X<X<X<X$ f J R M 9 @ .         % Z *.%.n <X<X<X<X<X<X<X<X",
"<X<X<X<X<X<X& v L Q K A A >   + O     z G.}.=X@XU.<X<X<X<X<X<X<X",
"<X<X<X<X<X<Xe J ) W L ' ) , . 7 ,   s :..X>X,X,X&X<X<X<X<X<X<X<X",
"<X<X<X<X<X* N ` ' Q K @.^ * # g q $ ` ~.=X,X,X,X,XXX<X<X<X<X<X<X",
"<X<X<X<X<X* S { [ ) J #.R & & j r q A.+X=X,X,X,X,X-XK.<X<X<X<X<X",
"<X<X<X<X<X% S ..} K Z #.D > 2 x t v F.@X&X,X,X,X,X,XE.<X<X<X<X<X",
"<X<X<X<X<X# b .. .G H &.B 2 0 x q z Z.oX%X>X,X,X,X,X/.<X<X<X<X<X",
"<X<X<X<X<X# f [ | L !  .c 4 q l 2 w =.[.OX*X,X,X,X:XW.<X<X<X<X<X",
"<X<X<X<X<X+ e / } E ) _ a 9 f 0 . 5 @.!. X+X;X,X>X$XJ.<X<X<X<X<X",
"<X<X<X<X<X<X9 E [ W J E M m w O   + ` H._.|.OX$X#X}.S.<X<X<X<X<X",
"<X<X<X<X<X2 c R _ W L F V q #       A :.Q.(.].XX+X/.<X<X<X<X<X<X",
"<X<X<X<X@ q A K H V C b 9 $         + } L.^.).'.`.I.<X<X<X<X<X<X",
"<X<X<X<X# r C C g 3 > ; # O           , ;.T.(./.Y.<X<X<X<X<X<X<X",
"<X<X<X<X  O - - #         u U <.2.y.u.s.d.g.h.g.f.<X<X<X<X<X<X<X",
"<X<X<X<X<X<X<X<X<X<X      ,.0.q.8.5.4.3.3.6.9.w.e.7.<X<X<X<X<X<X"
};
