/* XPM */
static char *result[] = {
/* columns rows colors chars-per-pixel */
"32 32 125 2 ",
"   c #010101",
".  c #090701",
"X  c #090900",
"o  c #0D0D0D",
"O  c #17140E",
"+  c #131313",
"@  c #1B1B1B",
"#  c #3A3506",
"$  c #2D2C17",
"%  c #3B3915",
"&  c #3C3818",
"*  c #232323",
"=  c #2B2B2B",
"-  c #323232",
";  c #3B3B3B",
":  c #463A0D",
">  c #423D15",
",  c #574E19",
"<  c #7B691B",
"1  c #74703A",
"2  c gray27",
"3  c #4B4B4B",
"4  c #525252",
"5  c #5D5D5D",
"6  c #606060",
"7  c gray44",
"8  c gray47",
"9  c #826E1B",
"0  c #88791B",
"q  c #806522",
"w  c #8B6E24",
"e  c #897122",
"r  c #947324",
"t  c #987624",
"y  c #B07E21",
"u  c #8B842B",
"i  c #9A8622",
"p  c #9D9538",
"a  c #A28D24",
"s  c #AB8529",
"d  c #A7892C",
"f  c #AB8F2B",
"g  c #B28420",
"h  c #BA8F25",
"j  c #B28B2C",
"k  c #A29423",
"l  c #AC9526",
"z  c #A39821",
"x  c #AB9B24",
"c  c #A09728",
"v  c #AF962A",
"b  c #AB9E2B",
"n  c #B39726",
"m  c #B09D26",
"M  c #B89D2C",
"N  c #B18D30",
"B  c #A29837",
"V  c #A09A3A",
"C  c #ADA629",
"Z  c #B3A226",
"A  c #BFA024",
"S  c #B6A825",
"D  c #BAAC26",
"F  c #B6A129",
"G  c #BBA52A",
"H  c #B5AE29",
"J  c #BFAB2B",
"K  c #BFB227",
"L  c #ACA23D",
"P  c #D39E25",
"I  c #C0AD29",
"U  c #C1B427",
"Y  c #C4B22A",
"T  c #CDB42F",
"R  c #C4BC2F",
"E  c #CCBB2D",
"W  c #D3B32C",
"Q  c #D1B630",
"!  c #DABF32",
"~  c #E0AA28",
"^  c #E9BD2E",
"/  c #C5C02C",
"(  c #D2C02D",
")  c #DDC332",
"_  c #D9CC31",
"`  c #E3C42F",
"'  c #E2C535",
"]  c #E3CA34",
"[  c #EACC36",
"{  c #ECCD38",
"}  c #E1D631",
"|  c #ECD335",
" . c #E3DD31",
".. c #EFDB35",
"X. c #F5DE37",
"o. c #F4D639",
"O. c #F5DA38",
"+. c #E6E432",
"@. c #EEEB34",
"#. c #F5E636",
"$. c #F8E237",
"%. c #F6EC36",
"&. c #F7F036",
"*. c #F8F437",
"=. c #A9A147",
"-. c #A7A153",
";. c #BCB775",
":. c #C2BA48",
">. c #C3BE6C",
",. c #959595",
"<. c #9B9B9B",
"1. c #A6A397",
"2. c #A5A5A5",
"3. c #A9A9A9",
"4. c #B7B7B7",
"5. c #BBBBBB",
"6. c gray78",
"7. c gray79",
"8. c #D6D6D5",
"9. c #DADADA",
"0. c #E5E5E5",
"q. c #EBEBEB",
"w. c #F4F4F4",
"e. c #FDFDFD",
"r. c None",
/* pixels */
"r.r.r.r.r.r.r.r.r.r.r.r.r.r.        r.r.r.r.r.r.r.r.r.r.r.r.r.r.",
"r.r.r.r.r.r.r.r.r.r.r.r.  @ = o o * @   r.r.r.r.r.r.r.r.r.r.r.r.",
"r.r.r.  r.r.r.r.r.r.r.r.o @ . + o   * o r.r.r.r.r.r.r.r.  r.r.r.",
"r.r.r.  r.r.r.r.r.r.r.  *       .     *   r.r.r.r.r.r.r.  r.r.r.",
"r.r.r.      r.r.r.r.r.o O w.w.4 4 w.w.o o r.r.r.r.r.      r.r.r.",
"r.r.r.        r.r.r.  + 5 w.; - - ; w.6 +   r.r.r.        r.r.r.",
"r.r.r.          r.r.. o 3 ;   + +   ; 2 o o r.r.          r.r.r.",
"r.r.r.r.            o   & u / +. .H u ,   o             r.r.r.r.",
"r.r.r.r.            @   x W W ` ^ ~ P M   @             r.r.r.r.",
"r.r.r.r.r.    o   o * .   h y y y y g   . * o     .   r.r.r.r.r.",
"r.r.r.r.r.r.. + ; ; -       o O O o       - ; ; +   r.r.r.r.r.r.",
"r.r.r.r.r.r.  @ 3 4 =     + * = = * +     = 4 3 *   r.r.r.r.r.r.",
"r.r.r.r.r.r.@ = 6 3 +     4 8 ,.,.8 4     + 4 6 = @ r.r.r.r.r.r.",
"r.r.r.r.r.r.+ 5 4 2 o   4.7.e.e.e.w.7.4.  o 2 3 4 @ r.r.r.r.r.r.",
"r.r.r.r.r.r.= 5 2 2   2 6.e.e.e.e.e.e.6.2   2 3 6 = r.r.r.r.r.r.",
"r.r.r.r.r.r.; 5 3 2   5.9.e.e.e.e.e.e.9.5.  2 2 6 ; r.r.r.r.r.r.",
"r.r.r.r.r.r.2 4 = + 7 8.w.w.e.e.e.e.e.w.9.7 o = 4 2 r.r.r.r.r.r.",
"r.r.r.r.r.r.r.= @ . 3.q.e.e.e.e.e.e.w.e.q.3.. @ - r.r.r.r.r.r.r.",
"r.r.r.r.r.r.r..   + 8.q.e.e.e.e.e.e.e.e.q.8.+ .   r.r.r.r.r.r.r.",
"r.r.r.r.r.r.r.  + = 5.q.e.e.e.e.e.e.e.e.q.4.= o   r.r.r.r.r.r.r.",
"r.r.r.r.r.r.r.  @ 1 ;._ e.e.e.e.e.e.e.e._ >.1 @   r.r.r.r.r.r.r.",
"r.r.r.r.r.r.r.  K R E c e.e.e.e.e.e.e.e.C  .( K . r.r.r.r.r.r.r.",
"r.r.r.r.r.r.9 } | | E D =.q.q.e.e.q.0.:.@.#.#.%.F < r.r.r.r.r.r.",
"r.r.r.r.r.r.Z %.#.o.] Y p 0.q.e.e.q.0.V *.X.$.#.} e r.r.r.r.r.r.",
"r.r.r.r.r.Z  .&.O.o.| Q C 8.0.w.q.0.9.R &.{ { ] _ a i r.r.r.r.r.",
"r.r.r.r.r.z %...) ] ] ' I V 1.9.9.2.L #.] [ ' ) G a t r.r.r.r.r.",
"r.r.r.r.r.< } ..) ' [ ] E k =.5.6.-.b | ' ' ) T Z r r.r.r.r.r.r.",
"r.r.r.r.r.r.a E ! ) { ] ) k L <.<.L m { ' ' W M M r r.r.r.r.r.r.",
"r.r.r.r.r.r.r.w f v T ' x S $ - - , I ) ! I l N w r.r.r.r.r.r.r.",
"r.r.r.r.r.r.r.r.t d m G m # + @ + & 0 J G v s t r.r.r.r.r.r.r.r.",
"r.r.r.r.r.r.r.r.q w i a x         . : n n j r w r.r.r.r.r.r.r.r.",
"r.r.r.r.r.r.r.r.r.r.r.r.r.r.r.r.r.r.r.r.r.r.r.r.r.r.r.r.r.r.r.r."
};
