/* XPM */
static char *result[] = {
/* columns rows colors chars-per-pixel */
"32 32 202 2 ",
"   c black",
".  c #010101",
"X  c #030301",
"o  c #020202",
"O  c gray1",
"+  c #040404",
"@  c gray2",
"#  c #060606",
"$  c gray3",
"%  c #090909",
"&  c gray4",
"*  c #0B0B0B",
"=  c #0F0E09",
"-  c #0C0C0C",
";  c gray5",
":  c #0E0D0D",
">  c #0E0E0E",
",  c gray6",
"<  c #131205",
"1  c #1B130A",
"2  c #101010",
"3  c #111111",
"4  c #131313",
"5  c gray8",
"6  c #151515",
"7  c #161616",
"8  c gray9",
"9  c #181818",
"0  c #191919",
"q  c gray10",
"w  c #1B1B1B",
"e  c gray11",
"r  c #1D1D1D",
"t  c gray12",
"y  c #39360A",
"u  c #2B2116",
"i  c #342D12",
"p  c #3B2B1C",
"a  c #202020",
"s  c gray13",
"d  c #222222",
"f  c gray14",
"g  c #252525",
"h  c gray15",
"j  c #282828",
"k  c gray16",
"l  c #2A2A2A",
"z  c gray17",
"x  c #2C2C2C",
"c  c #2D2D2D",
"v  c gray18",
"b  c #2F2F2F",
"n  c #3D372E",
"m  c gray19",
"M  c #313131",
"N  c #323232",
"B  c gray20",
"V  c #343434",
"C  c #353535",
"Z  c gray21",
"A  c #373737",
"S  c gray22",
"D  c #393939",
"F  c #3A3A3A",
"G  c gray23",
"H  c #3C3C3C",
"J  c gray24",
"K  c #3E3E3E",
"L  c #3F3F3F",
"P  c #533C22",
"I  c #554919",
"U  c #766F1F",
"Y  c #554C2A",
"T  c #785732",
"R  c gray25",
"E  c #414141",
"W  c gray26",
"Q  c #434343",
"!  c #444444",
"~  c #454444",
"^  c gray27",
"/  c #464646",
"(  c #474646",
")  c gray28",
"_  c #484848",
"`  c #494949",
"'  c #4B4B4B",
"]  c #4C4C4C",
"[  c gray30",
"{  c #4E4E4E",
"}  c gray31",
"|  c #505050",
" . c #515151",
".. c #535353",
"X. c gray33",
"o. c #555555",
"O. c #565656",
"+. c gray34",
"@. c #585858",
"#. c #5A5A5A",
"$. c #5B5B5B",
"%. c #5C5B59",
"&. c gray36",
"*. c #656564",
"=. c #686868",
"-. c #6C6C6C",
";. c gray46",
":. c #797979",
">. c #966A40",
",. c #9B8C2D",
"<. c #A79D2F",
"1. c #BC9E3D",
"2. c #B9A437",
"3. c #B3A833",
"4. c #BAA638",
"5. c #BBA738",
"6. c #BCA838",
"7. c #BDA938",
"8. c #BEAA39",
"9. c #BFAC38",
"0. c #C5AA3B",
"q. c #C1AE39",
"w. c #C4B039",
"e. c #C8B43A",
"r. c #C8B63B",
"t. c #B7854A",
"y. c #BD874F",
"u. c #C6944C",
"i. c #C48D51",
"p. c #C68F50",
"a. c #C79150",
"s. c #C69151",
"d. c #D5B542",
"f. c #DAA750",
"g. c #E2B44E",
"h. c #E9BD4C",
"j. c #E9BD4D",
"k. c #EABD4D",
"l. c #DCCF40",
"z. c #EFC64D",
"x. c #E4D743",
"c. c #F3D04B",
"v. c #FBD84E",
"b. c #FCD84F",
"n. c #FBD950",
"m. c #F2E447",
"M. c #F4E548",
"N. c #F8E949",
"B. c #F9EA49",
"V. c #F9EB4A",
"C. c #808080",
"Z. c #868686",
"A. c #8D8D8D",
"S. c #918F8F",
"D. c #929292",
"F. c gray59",
"G. c gray60",
"H. c gray61",
"J. c #A0A0A0",
"K. c gray63",
"L. c #A7A6A6",
"P. c #A7A7A7",
"I. c gray66",
"U. c #AEAEAE",
"Y. c #B4B4B4",
"T. c #B5B4B4",
"R. c gray73",
"E. c #BBBBBB",
"W. c #BCBCBC",
"Q. c gray76",
"!. c #C5C5C5",
"~. c #CACACA",
"^. c #CBCBCB",
"/. c #CDCDCD",
"(. c gray81",
"). c #D0D0D0",
"_. c #D2D2D2",
"`. c LightGray",
"'. c #D5D5D5",
"]. c gray84",
"[. c #D7D7D7",
"{. c #DADADA",
"}. c gainsboro",
"|. c gray87",
" X c #DFDFDF",
".X c gray88",
"XX c gray89",
"oX c #E6E6E6",
"OX c gray91",
"+X c #EAEAEA",
"@X c gray94",
"#X c gray95",
"$X c #F4F4F4",
"%X c #F6F6F6",
"&X c gray97",
"*X c #F9F9F9",
"=X c gray98",
"-X c #FBFBFB",
";X c gray99",
":X c #FDFDFD",
">X c #FEFEFE",
",X c None",
/* pixels */
",X,X,X,X,X,X,X,X,X,X,X,X,X,X,X,X,X,X,X,X,X,X,X,X,X,X,X,X,X,X,X,X",
",X,X,X,X,X,X,X,X,X,X,X,X,X,X,X,X,X,X,X,X,X,X,X,X,X,X,X,X,X,X,X,X",
",X,X,X,X,X,X,X,X,X,X,X,X,X,X,X,X,X,X,X,X,X,X,X,X,X,X,X,X,X,X,X,X",
",X,X,X,X,X,X,X,X,X,X,X,X,X,X,X,X,X,X,X,X,X,X,X,X,X,X,X,X,X,X,X,X",
",X,X,X,X,X,X,X,X,X,X,X,X,X,X,X,X,X,X,X,X,X,X,X,X,X,X,X,X,X,X,X,X",
",X,X,X,X,X,X,X,X,X,X,X,X,X,X,X,X,X,X,X,X,X,X,X,X,X,X,X,X,X,X,X,X",
",X,X,X,X,X,X,X,X,X,X,X,X,X,X,X,X,X,X,X,X,X,X,X,X,X,X,X,X,X,X,X,X",
",X,X,X,X,X,X,X,X,X,X,X,X    O z K { | ,X,X,X,X,X,X,X,X,X,X,X,X,X",
",X,X,X,X,X,X,X,X,X,X    . o o l J ' +...F ,X,X,X,X,X,X,X,X,X,X,X",
",X,X,X,X,X,X,X,X,X,X. + , s - 4 z E | $.' V ,X,X,X,X,X,X,X,X,X,X",
",X,X,X,X,X,X,X,X,X,X@ ~ L.[.-.% 9 C ^ o.X.J ,X,X,X,X,X,X,X,X,X,X",
",X,X,X,X,X,X,X,X,X< + a z T.{.t w C E } O.K k ,X,X,X,X,X,X,X,X,X",
",X,X,X,X,X,X,Xb.v.0.I i = S.'.h w D Q ] +.L 4 ,X,X,X,X,X,X,X,X,X",
",X,X,X,Xn.v.v.v.v.c.d.1.Y ( ` % r G ^ ] O.K ; ,X,X,X,X,X,X,X,X,X",
",X,X,Xh.g.g.j.z.k.f.u.t.P : . O 6 N A V / F ,   ,X,X,X,X,X,X,X,X",
",X,X,X,X,X,Xi.s.a.p.y.>.1       $ 8 0 d S A 9 . ,X,X,X,X,X,X,X,X",
",X,X,X,X,X,X,X,XT p u X           o , j Z J z * o ,X,X,X,X,X,X,X",
",X,X,X,X,X,X,X,Xn %.*.Z %         . @ 9 M R J f $ ,X,X,X,X,X,X,X",
",X,X,X,X,X,X,XI.+X*X{.F.z     O +   > A A K Q L v & ,X,X,X,X,X,X",
",X,X,X,X,X,X,X%X>X>X:X X:.s   , 7 . , ) ' L W ) J e ,X,X,X,X,X,X",
",X,X,X,X,X,X.X>X>X>X>X*X!.` $ q g # * ^ @.K Q ' ` N * ,X,X,X,X,X",
",X,X,X,X,XJ.=X>X>X>X>X*XOXZ.q r j & & R #.J ) [ { S * ,X,X,X,X,X",
",X,X,X,X,XR.>X>X>X>X>X%X+XD.v t x 2 > D #.Z K } ..S % ,X,X,X,X,X",
",X,X,X,X,X^.>X>X>X>X:X$XXXC.z q x 0 2 B &.H G  ...b # ,X,X,X,X,X",
",X,X,X,X,XE.;X>X>X>X&XoX].=.w 2 l q 4 c  .! L | [ f # ,X,X,X,X,X",
",X,X,X,X,XH.#X:X>X-XOX|.Q.@.5 . 0 f 9 a _ ) E } / e + ,X,X,X,X,X",
",X,X,X,X,XA.{.@X#XoX}.).G.` +   O w m M E J W [ E 9 ,X,X,X,X,X,X",
",X,X,X,X,X,X^.OX.X'./.W.:.A       # q V F L W _ R c 2 ,X,X,X,X,X",
",X,X,X,X,X,XP._.`.(.~.K.} +         $ 9 b C V H K A q @ ,X,X,X,X",
",X,X,X,X,X,X,XU.^./.Y.;.,           O # ; > 3 g C C r # ,X,X,X,X",
",X,X,X,X,X,X,XN.B.V.B.M.m.x.l.3.<.U y         # - - O   ,X,X,X,X",
",X,X,X,X,X,X9.r.e.8.6.2.2.4.5.7.w.q.,.      ,X,X,X,X,X,X,X,X,X,X"
};
