/* XPM */
static char *result[] = {
/* columns rows colors chars-per-pixel */
"32 32 191 2 ",
"   c black",
".  c #010101",
"X  c #020202",
"o  c gray1",
"O  c #060501",
"+  c #020304",
"@  c #040404",
"#  c gray2",
"$  c #060606",
"%  c #070707",
"&  c #000008",
"*  c gray3",
"=  c #090909",
"-  c gray4",
";  c #0B0B0B",
":  c #0C0C0C",
">  c gray5",
",  c #0E0E0E",
"<  c gray6",
"1  c #0A0C11",
"2  c #111110",
"3  c #111111",
"4  c gray7",
"5  c #131313",
"6  c #101116",
"7  c gray8",
"8  c #151515",
"9  c #161616",
"0  c gray9",
"q  c #181818",
"w  c #1B1A19",
"e  c gray10",
"r  c #1B1B1A",
"t  c #1B1B1B",
"y  c gray11",
"u  c #1D1D1C",
"i  c #1D1D1D",
"p  c #1E1E1E",
"a  c gray12",
"s  c #272514",
"d  c #191A20",
"f  c #202020",
"g  c #212020",
"h  c gray13",
"j  c #222222",
"k  c #232323",
"l  c gray14",
"z  c #252524",
"x  c #252525",
"c  c gray15",
"v  c #272627",
"b  c #272727",
"n  c #2D2921",
"m  c #282828",
"M  c gray16",
"N  c #2A2A2A",
"B  c gray17",
"V  c #2A2C2C",
"C  c #2C2C2C",
"Z  c #2D2D2D",
"A  c gray18",
"S  c #2F2F2F",
"D  c #262830",
"F  c #2E2F30",
"G  c #2F3136",
"H  c gray19",
"J  c #313131",
"K  c #323232",
"L  c gray20",
"P  c #343434",
"I  c #353535",
"U  c #363535",
"Y  c gray21",
"T  c #373737",
"R  c #3E3A32",
"E  c #3D3B35",
"W  c #3E3B37",
"Q  c #35373B",
"!  c #33353C",
"~  c gray22",
"^  c #393939",
"/  c #3A3A3A",
"(  c gray23",
")  c #3B3C3B",
"_  c #3B3C3E",
"`  c #3C3C3C",
"'  c gray24",
"]  c #3F3F3F",
"[  c #5D4D19",
"{  c #7B6A1B",
"}  c #534526",
"|  c #45443F",
" . c #685E35",
".. c #796330",
"X. c #3C3E42",
"o. c gray25",
"O. c #414141",
"+. c gray26",
"@. c #434342",
"#. c #434343",
"$. c #444444",
"%. c gray27",
"&. c #464646",
"*. c gray28",
"=. c #4A4747",
"-. c #494946",
";. c #45474A",
":. c #484848",
">. c #494949",
",. c gray29",
"<. c #4B4B4B",
"1. c #4C4C4C",
"2. c gray30",
"3. c #4E4E4D",
"4. c #4E4E4E",
"5. c #505050",
"6. c gray32",
"7. c #535353",
"8. c gray33",
"9. c #555454",
"0. c #555555",
"q. c #565656",
"w. c #585858",
"e. c #5A5A5A",
"r. c #5B5B5B",
"t. c #5C5C5D",
"y. c #5D5D5D",
"u. c #606060",
"i. c #616060",
"p. c gray38",
"a. c #686868",
"s. c #6C6C6C",
"d. c gray43",
"f. c #717171",
"g. c #88781F",
"h. c #90731B",
"j. c #897225",
"k. c #8D7929",
"l. c #917D22",
"z. c #8F7932",
"x. c #96743B",
"c. c #8A7A41",
"v. c #968130",
"b. c #A58721",
"n. c #A28225",
"m. c #A38225",
"M. c #AD8F22",
"N. c #AF932B",
"B. c #B19429",
"V. c #B99F2C",
"C. c #B89E2E",
"Z. c #AB833A",
"A. c #BA9033",
"S. c #B5A026",
"D. c #B6A524",
"F. c #B8A525",
"G. c #B8A128",
"H. c #C29D2D",
"J. c #C0A226",
"K. c #C6AA27",
"L. c #C3A729",
"P. c #C7A828",
"I. c #C3AF2B",
"U. c #CAAB28",
"Y. c #CFAA2C",
"T. c #CDAC2D",
"R. c #CEB62F",
"E. c #D1A338",
"W. c #D4B835",
"Q. c #E1BE32",
"!. c #E0B439",
"~. c #E0B73C",
"^. c #D8C531",
"/. c #E1C72E",
"(. c #E7CB37",
"). c #E5CC35",
"_. c #E1D531",
"`. c #E5D733",
"'. c #E9DC32",
"]. c #E8D834",
"[. c #F5D93A",
"{. c #F4E336",
"}. c #F9E637",
"|. c #F7EA36",
" X c #F7EC35",
".X c #F9EF36",
"XX c #FCE439",
"oX c #FFE739",
"OX c #FFE03D",
"+X c #FAEC39",
"@X c None",
/* pixels */
"@X@X@X@X@X@X@X@X@X@X@X@X@XU.Q.Y.@X@X@X@X@X@X@X@X@X@X@X@X@X@X@X@X",
"@X@X@X@X@X@X@X@X@X@X@X!.E.~.XXoXOX/.@X@X@X@X  @X@X@X@X@X@X@X@X@X",
"@X@X@X@X@X@X@X@X@X@X@XA.Z.x...z.v.k.@X@X@XK x @ @X@X@X@X@X@X@X@X",
"@X@X@X@X@X@X@X@X@X@Xj.R _ ;.X.Q ! D n @XV ] Y . @X@X@X@X@X@X@X@X",
"@X@X@X@X@X@X@X@X@X@XE t.i.9.2.<.,.>.~ ; r &.K     @X@X@X@X@X@X@X",
"@X@X@X@X@X@X@X@X@Xa p.6.4.+.I P H L g X 3 o.A .   @X@X@X@X@X@X@X",
"@X@X@X@X@X@X@X@X% q.e.&.` J N m b i #   # ~ A X   @X@X@X@X@X@X@X",
"@X@X@X@X@X@X@Xo j a.w.' Y C m t 5 * .   . M h X o @X@X@X@X@X@X@X",
"@X@X@X@X@X@X@X5 I s.q./ K C a o           m j > : @X@X@X@X@X@X@X",
"@X@X@X@X@X@X@Xp +.f.0.^ J b e $ .         3 b > < @X@X@X@X@X@X@X",
"@X@X@X@X@X@X@X, l d.w.( L H p : $         @ 4 4 e : @X@X@X@X@X@X",
"@X@X@X@X@X@X@X  - e.u.%./ ~ m * X           % f x @X@X@X@X@X@X@X",
"@X@X@X@X@X@X@X. 5 r.y.2.&.^ f #           X X c B @X@X@X@X@X@X@X",
"@X@X@X@X@X] 0 - h y.8.,.:.] 9               # K L @X@X@X@X@X@X@X",
"@X@X@X@XS &.( 7 j q.:./ Y K 8 $ X           = S Z @X@X@X@X@X@X@X",
"@X@X@X@X3 %.1.x B 5.o.~ J h 0 ; @           k +.~ @X@X@X@X@X@X@X",
"@X@X@X@X@XT 7.:.,.<.#.' P M p < %         X / +.~ @X@X@X@X@X@X@X",
"@X@X@X@X@XP 2.$.#.*.&.o.~ H m ; X         3 O.] +.@X@X@X@X@X@X@X",
"@X@X@X@X@X@X6.' ~ ] o.] ( Y b : o       @ c o.#.@X@X@X@X@X@X@X@X",
"@X@X@X@X@X@X@X=.U H K J J B k 4 %     # 7 J H @X@X@X@X@X@X@X@X@X",
"@X@X@X@X@X@X@Xc. .d j w 2 7 b y >     < x L f @X@X@X@X@X@X@X@X@X",
"@X@X@X@X@X@X@Xn.V.g.s 1 & + v N u @   9 b B @X@X@X@X@X@X@X@X@X@X",
"@X@X@X@X@X@X@Xb.S.D.G.l.{ O z ) P q : 3 @X@X@X@X@X@X@X@X@X@X@X@X",
"@X@X@X@X@X@X@XM.F.'.).R.L.h.6 | @.K t $ @X@X@X@X@X@X@X@X@X@X@X@X",
"@X@X@X@X@X@X@XB.I..X}.[.(.T.[ G -.$.k @X@X@X@X@X@X@X@X@X@X@X@X@X",
"@X@X@X@X@X@X@X@XH._. X|.{.+XP.} W 3.~ @X@X@X@X@X@X@X@X@X@X@X@X@X",
"@X@X@X@X@X@X@X@X@XW.^.`.].K.J.N.@XF @X@X@X@X@X@X@X@X@X@X@X@X@X@X",
"@X@X@X@X@X@X@X@X@X@X@XC.m.@X@X@X@X@X@X@X@X@X@X@X@X@X@X@X@X@X@X@X",
"@X@X@X@X@X@X@X@X@X@X@X@X@X@X@X@X@X@X@X@X@X@X@X@X@X@X@X@X@X@X@X@X",
"@X@X@X@X@X@X@X@X@X@X@X@X@X@X@X@X@X@X@X@X@X@X@X@X@X@X@X@X@X@X@X@X",
"@X@X@X@X@X@X@X@X@X@X@X@X@X@X@X@X@X@X@X@X@X@X@X@X@X@X@X@X@X@X@X@X",
"@X@X@X@X@X@X@X@X@X@X@X@X@X@X@X@X@X@X@X@X@X@X@X@X@X@X@X@X@X@X@X@X"
};
