/* XPM */
static char *result[] = {
/* columns rows colors chars-per-pixel */
"49 48 104 2 ",
"   c #010101",
".  c #0E0A04",
"X  c #0C0C0C",
"o  c #171600",
"O  c #181700",
"+  c #131313",
"@  c #181513",
"#  c #1C1C1C",
"$  c #211D05",
"%  c #23190C",
"&  c #2B1F0F",
"*  c #3B3209",
"=  c #23211F",
"-  c #382911",
";  c #232323",
":  c #2C2C2C",
">  c #333333",
",  c #3C3C3C",
"<  c #412E19",
"1  c #4F4A03",
"2  c #655F04",
"3  c #7B7304",
"4  c #7E5931",
"5  c #434343",
"6  c #4B4B4B",
"7  c #535353",
"8  c #5A5A5A",
"9  c #6F6742",
"0  c #626262",
"q  c #6A6A6A",
"w  c #747272",
"e  c #7B7B7B",
"r  c #867E05",
"t  c #977F21",
"y  c #A1723F",
"u  c #AB7B42",
"i  c #928905",
"p  c #9D861F",
"a  c #9E881F",
"s  c #A28C1D",
"d  c #A7911D",
"f  c #AB941C",
"g  c #AE991B",
"h  c #B4A117",
"j  c #B5A119",
"k  c #B8A419",
"l  c #9A8220",
"z  c #B29622",
"x  c #BA8A3E",
"c  c #C7BB07",
"v  c #C5AA20",
"b  c #C9AE21",
"n  c #CFAD2A",
"m  c #CEB122",
"M  c #D6B22D",
"N  c #D3A33F",
"B  c #E7BB37",
"V  c #E9BC37",
"C  c #E3B53A",
"Z  c #E7BA39",
"A  c #D4C708",
"S  c #D7CA08",
"D  c #D8CB08",
"F  c #EDDF09",
"G  c #EFE009",
"H  c #F4E509",
"J  c #F7E80B",
"K  c #FAEB0A",
"L  c #EAC62A",
"P  c #F5D328",
"I  c #F9D62A",
"U  c #FBD82A",
"Y  c #EDC234",
"T  c #F0C730",
"R  c #F4CD30",
"E  c #BF8C43",
"W  c #B7804A",
"Q  c #BA8449",
"!  c #BF8948",
"~  c #C08949",
"^  c #CD9A43",
"/  c #CB9249",
"(  c #D39D45",
")  c #D1984A",
"_  c #D6A144",
"`  c #DAA742",
"'  c #DDAA41",
"]  c #848484",
"[  c #8D8D8D",
"{  c gray58",
"}  c #9E9E9E",
"|  c #A2A2A2",
" . c #ABABAB",
".. c #B4B4B4",
"X. c gray72",
"o. c #C4C4C4",
"O. c #CBCBCB",
"+. c #D4D4D4",
"@. c #DBDBDB",
"#. c #E3E3E3",
"$. c #EBEBEB",
"%. c #F3F3F3",
"&. c #FEFEFE",
"*. c None",
/* pixels */
"*.*.*.*.*.*.*.*.*.*.*.*.*.*.*.*.*.*.*.*.*.*.*.*.*.*.*.*.*.*.*.*.*.*.*.*.*.*.*.*.*.*.*.*.*.*.*.*.*.",
"*.*.*.*.*.*.*.*.*.*.*.*.*.*.*.*.*.*.*.*.*.*.*.*.*.*.*.*.*.*.*.*.*.*.*.*.*.*.*.*.*.*.*.*.*.*.*.*.*.",
"*.*.*.*.*.*.*.*.*.*.*.*.*.*.*.*.*.*.*.*.*.*.*.*.*.*.*.*.*.*.*.*.*.*.*.*.*.*.*.*.*.*.*.*.*.*.*.*.*.",
"*.*.*.*.*.*.*.*.*.*.*.*.*.*.*.*.*.*.*.*.*.*.*.*.*.*.*.*.*.*.*.*.*.*.*.*.*.*.*.*.*.*.*.*.*.*.*.*.*.",
"*.*.*.*.*.*.*.*.*.*.*.*.*.*.*.*.*.*.*.*.*.*.*.*.*.*.*.*.*.*.*.*.*.*.*.*.*.*.*.*.*.*.*.*.*.*.*.*.*.",
"*.*.*.*.*.*.*.*.*.*.*.*.*.*.*.*.*.*.*.*.*.*.*.*.*.*.*.*.*.*.*.*.*.*.*.*.*.*.*.*.*.*.*.*.*.*.*.*.*.",
"*.*.*.*.*.*.*.*.*.*.*.*.*.*.*.*.*.*.*.*.*.*.*.*.*.*.*.*.*.*.*.*.*.*.*.*.*.*.*.*.*.*.*.*.*.*.*.*.*.",
"*.*.*.*.*.*.*.*.*.*.*.*.*.*.*.*.*.*.*.*.*.*.*.*.*.*.*.*.*.*.*.*.*.*.*.*.*.*.*.*.*.*.*.*.*.*.*.*.*.",
"*.*.*.*.*.*.*.*.*.*.*.*.*.*.*.*.*.*.*.*.*.*.*.*.*.*.*.*.*.*.*.*.*.*.*.*.*.*.*.*.*.*.*.*.*.*.*.*.*.",
"*.*.*.*.*.*.*.*.*.*.*.*.*.*.*.*.*.*.*.*.*.*.*.*.*.*.*.*.*.*.*.*.*.*.*.*.*.*.*.*.*.*.*.*.*.*.*.*.*.",
"*.*.*.*.*.*.*.*.*.*.*.*.*.*.*.*.*.*.*.*.*.*.6 > > ;     *.*.*.*.*.*.*.*.*.*.*.*.*.*.*.*.*.*.*.*.*.",
"*.*.*.*.*.*.*.*.*.*.*.*.*.*.*.*.*.*.*.5 7 7 6 5 , ;           *.*.*.*.*.*.*.*.*.*.*.*.*.*.*.*.*.*.",
"*.*.*.*.*.*.*.*.*.*.*.*.*.*.*.*.*.; 5 7 8 7 6 5 , :               *.*.*.*.*.*.*.*.*.*.*.*.*.*.*.*.",
"*.*.*.*.*.*.*.*.*.*.*.*.*.*.*.*.*.6 8 8 8 7 5 , : # X     X         *.*.*.*.*.*.*.*.*.*.*.*.*.*.*.",
"*.*.*.*.*.*.*.*.*.*.*.*.*.*.*.*., 6 8 8 6 5 , : @     ; , # X       *.*.*.*.*.*.*.*.*.*.*.*.*.*.*.",
"*.*.*.*.*.*.*.*.*.*.*.*.*.*.*.> 5 7 8 7 6 , > = X   X | +.+.} >     *.*.*.*.*.*.*.*.*.*.*.*.*.*.*.",
"*.*.*.*.*.*.*.*.*.*.*.*.*.*.; , 5 7 8 6 5 , : # X + } &.&.w w > @     *.*.*.*.*.*.*.*.*.*.*.*.*.*.",
"*.*.*.*.*.*.*.*.*.*.*.*.*.*.; , 5 8 7 6 5 , > ; X : @.&.w X   #     $ *.*.*.*.*.*.*.*.*.*.*.*.*.*.",
"*.*.*.*.*.*.*.*.*.*.*.*.*.*.X > 6 8 7 5 5 5 > ; X , +.&.w         * b U U *.*.*.*.*.*.*.*.*.*.*.*.",
"*.*.*.*.*.*.*.*.*.*.*.*.*.    > 6 8 7 6 5 5 , ; X X | +.w   9 s v m P U U U U U U *.*.*.*.*.*.*.*.",
"*.*.*.*.*.*.*.*.*.*.*.*.*.    > 5 8 7 5 5 5 > ; X     > # > z M n L P U U U U U U U I U *.*.*.*.*.",
"*.*.*.*.*.*.*.*.*.*.*.*.*.    > 5 6 5 , 5 , > # X       # % y ~ x _ ' V U U I R Y Z Z B T *.*.*.*.",
"*.*.*.*.*.*.*.*.*.*.*.*.    X > 5 5 : @ ; : ; +             y ~ ~ ( _ _ ` _ ) / ^ _ C Z *.*.*.*.*.",
"*.*.*.*.*.*.*.*.*.*.*.*.    @ > , , : # + + X X             . x W Q ~ ~ Q Q Q *.*.*.*.*.*.*.*.*.*.",
"*.*.*.*.*.*.*.*.*.*.*.*.  X ; > , , > ; @                       - - - y *.*.*.*.*.*.*.*.*.*.*.*.*.",
"*.*.*.*.*.*.*.*.*.*.*.  X # , 5 5 > : ; +                       X = # - *.*.*.*.*.*.*.*.*.*.*.*.*.",
"*.*.*.*.*.*.*.*.*.*.    ; > 5 5 , > # X                     # 8 [ [ e 6 + *.*.*.*.*.*.*.*.*.*.*.*.",
"*.*.*.*.*.*.*.*.*.  X : > 5 5 5 , : : > X                   6 [  .$.&.%.O.8 *.*.*.*.*.*.*.*.*.*.*.",
"*.*.*.*.*.*.*.*.*.  ; , 5 6 5 5 , 5 7 , +       @         # ] +.&.&.&.&.&.%.*.*.*.*.*.*.*.*.*.*.*.",
"*.*.*.*.*.*.*.*.  X , 5 6 5 5 , 5 6 8 , +     + >       , e X.&.&.&.&.&.&.&.%.*.*.*.*.*.*.*.*.*.*.",
"*.*.*.*.*.*.*.*.  ; , 6 6 5 5 , , 8 8 , X     # , X   X 6 { #.&.&.&.&.&.&.&.&. .*.*.*.*.*.*.*.*.*.",
"*.*.*.*.*.*.*.*.X : 5 6 7 6 5 5 , 8 0 :   X X # , X   = w +.%.&.&.&.&.&.&.&.&.%.*.*.*.*.*.*.*.*.*.",
"*.*.*.*.*.*.*.*.  > 5 7 7 6 6 5 > 8 0 ; X X X # , X X 6 ..#.%.&.&.&.&.&.&.&.&.&.[ *.*.*.*.*.*.*.*.",
"*.*.*.*.*.*.*.*.  > 5 8 7 5 5 : , 8 0 = X X X ; , + + 7  .$.$.%.&.&.&.&.&.&.&.&. .*.*.*.*.*.*.*.*.",
"*.*.*.*.*.*.*.*.  ; 5 8 8 5 , > 5 0 8 # X X = > : + # 8 { #.%.&.&.&.&.&.&.&.&.&.o.*.*.*.*.*.*.*.*.",
"*.*.*.*.*.*.*.*.  ; 5 7 8 6 , > 5 0 7 # + X # > ; + X 7 ] @.#.%.&.&.&.&.&.&.&.&.+.*.*.*.*.*.*.*.*.",
"*.*.*.*.*.*.*.*.  # > 7 7 5 , , 6 7 6 # @ X # : : X   6 w @.@.$.&.&.&.&.&.&.&.&.O.*.*.*.*.*.*.*.*.",
"*.*.*.*.*.*.*.*.  @ : 7 8 6 5 5 7 7 , # + # ; > X     , 8 o.@.#.$.%.&.&.&.&.&.%.X.6 *.*.*.*.*.*.*.",
"*.*.*.*.*.*.*.*.  X : 5 7 6 , 5 6 7 ; # # # : #       > 0 ..O.#.#.#.&.&.&.&.&.#.] *.*.*.*.*.*.*.*.",
"*.*.*.*.*.*.*.*.*.  ; 5 7 6 5 , , 6 ; ; : : #         + 8 [ o.@.#.@.$.&.%.%.$.O.e *.*.*.*.*.*.*.*.",
"*.*.*.*.*.*.*.*.*.X , , 6 6 5 , , , 7 5 5 >             8 0 ..O.+.@.@.$.#.$.#.O.[ *.*.*.*.*.*.*.*.",
"*.*.*.*.*.*.*.X X : , 5 5 6 5 , , , : ; X               5 0 [ o.O.o.+.@.@.$.#. .*.*.*.*.*.*.*.*.*.",
"*.*.*.*.*.*.*.  # > , 5 5 , , , 5 , ; @ X                 8 q X.o.+.O.O.+.@.+.] *.*.*.*.*.*.*.*.*.",
"*.*.*.*.*.*.    # > , , , > ; # ; : @ X X                   q | o.O.+.+.+.+.} *.*.*.*.*.*.*.*.*.*.",
"*.*.*.*.*.*.  X ; > > > : X X                                 e  . .+.o.O.} *.*.*.*.*.*.*.*.*.*.*.",
"*.*.*.*.*.*.      X + + X               O o 1 3 r i c S D G F H H J K K K J *.*.*.*.*.*.*.*.*.*.*.",
"*.*.*.*.*.*.              *.            2 A K K K K K K K K K K K K K K K K K K *.*.*.*.*.*.*.*.*.",
"*.*.*.*.*.*.*.*.*.*.*.*.*.*.*.*.*.      h d g f s p l p l t l t p p a d j k l k *.*.*.*.*.*.*.*.*."
};
