/* XPM */
static char *result[] = {
/* columns rows colors chars-per-pixel */
"32 32 50 1 ",
"  c #010101",
". c #000E0F",
"X c #111515",
"o c #181E1E",
"O c #1E2525",
"+ c #1D2728",
"@ c #1F2B2B",
"# c #202727",
"$ c #222827",
"% c #222B2B",
"& c #263131",
"* c #2A3534",
"= c #2C3837",
"- c #2E3A3A",
"; c #313D3D",
": c #32403F",
"> c #354343",
", c #384646",
"< c #374947",
"1 c #3C4B4B",
"2 c #3F514F",
"3 c #3D5151",
"4 c #414F4E",
"5 c #435454",
"6 c #485655",
"7 c #4A5857",
"8 c #455758",
"9 c #465959",
"0 c #4C5D5D",
"q c #505E5E",
"w c #4C5F60",
"e c #4E6161",
"r c #536565",
"t c #566867",
"y c #546768",
"u c #56696A",
"i c #5B6D6C",
"p c #5E706F",
"a c #5B6F70",
"s c #5E7170",
"d c #606F6F",
"f c #61706F",
"g c #647473",
"h c #687775",
"j c #677877",
"k c #697876",
"l c #6C7B79",
"z c #768583",
"x c #7F8E8E",
"c c None",
/* pixels */
"cccOOOOO##Occccc&*****==*ccccccc",
"ccO#O##O+#%occcc*=***=====*%%ccc",
"cOO%*=->>,<%Occ00051414144;&%#cc",
"cO#=>5yuiaar1ccggggdiidddir6>*##",
"cO%>5yasggjjqcczllkjjghhggdi0,&#",
"OO&1wuasjkji-cxjjkhkkkhghlhfy4;%",
"O#*3wuaagjgggggsaiituiidhllhi4;;",
"##&1wyyuiassgigsiiityytidllhd6;>",
"#%&>0yyuaussiiipddidditidhlhd7;,",
"%&%>9yuuauauiipittdddddtghhhi0;,",
"%&&>eyuaaauaiiiiittdddttdhhgde>;",
"c+&1euuaasuuiiiuttiddtrighhfie<*",
"c+-3wyuauuuussuutddtiqtdhhgdtq,%",
"c&>50yuauaauasiyrtdtqetdhgddtq>%",
"c-19euaasuaaasuyttrqrryahgdauw<%",
"&>59euaaaauaussurrrq0righgddie<%",
"-239eyaasuiuiidtrrrqrriggfffiq1%",
"<899eyauaiuitiiyrqqquipgjfiftr4%",
"2889eyaauaiuttireqqrpffgffffir6&",
"2533eyaaauititiirqrigkkgfgggiy4*",
"1238eyuuuauyyupittiphffffhhgir4;",
":<259yiuyuuyrtupiipffptipghftq4;",
"&*138euueyryrrripiifgpruigkftq1;",
"%=118eyyyreyrrrippfffpttiffpt7,-",
"&;>16eyuurruuuuipgpgpiitupfir5:*",
"c*;,9euuyeeyauuipsgfpiiyiggir4:*",
"c%&>9yuuyrrrissasggiiiuuiggi0>*=",
"cc$*3eyayrrisgggjggpiiiiipiy1&%-",
"ccO#:39eryytghgggd7ccyiiptr5-&-*",
"ccc#%*>3890rrttir%ccc3tyr02:*--c",
"ccccO##%&*;45566X ccc.=>--*&&=cc",
"ccccc###%OO#%*;*  cccc$;*&*=:ccc"
};
