/* XPM */
static char *result[] = {
/* columns rows colors chars-per-pixel */
"32 32 166 2 ",
"   c #1E150A",
".  c #21170B",
"X  c #24190D",
"o  c #291D0F",
"O  c #261C12",
"+  c #2A1E10",
"@  c #2D2112",
"#  c #332515",
"$  c #382715",
"%  c #352817",
"&  c #3A2A17",
"*  c #33271A",
"=  c #372A1A",
"-  c #3C2C19",
";  c #3F301D",
":  c #372F25",
">  c #392F23",
",  c #3E3225",
"<  c #402F1B",
"1  c #44321D",
"2  c #4B361E",
"3  c #4F381D",
"4  c #533A1E",
"5  c #433524",
"6  c #4A3720",
"7  c #473821",
"8  c #4D3A23",
"9  c #403528",
"0  c #40382F",
"q  c #533C22",
"w  c #493E30",
"e  c #574124",
"r  c #5B4325",
"t  c #5F4827",
"y  c #57422A",
"u  c #5C452A",
"i  c #5F4829",
"p  c #4D4234",
"a  c #4C4239",
"s  c #5B4731",
"d  c #5E4A30",
"f  c #614626",
"g  c #644826",
"h  c #624629",
"j  c #654B2B",
"k  c #6A4D2D",
"l  c #714E2C",
"z  c #6C512F",
"x  c #72512F",
"c  c #644D33",
"v  c #6A4F31",
"b  c #675032",
"n  c #6C5233",
"m  c #6F5836",
"M  c #615039",
"N  c #6D563A",
"B  c #735534",
"V  c #765936",
"C  c #795A37",
"Z  c #705738",
"A  c #755A3A",
"S  c #7B5D3B",
"D  c #7E613E",
"F  c #544D43",
"G  c #5D5246",
"H  c #5A5249",
"J  c #645546",
"K  c #665A49",
"L  c #6A5B4B",
"P  c #745D44",
"I  c #7A5F43",
"U  c #645C53",
"Y  c #655F58",
"T  c #7E6242",
"R  c #7F6844",
"E  c #7C664B",
"W  c #6A6055",
"Q  c #6C655C",
"!  c #726659",
"~  c #766B5F",
"^  c #7B6C5B",
"/  c #766F68",
"(  c #726A63",
")  c #7B746D",
"_  c #7B7266",
"`  c #7F7973",
"'  c #805C37",
"]  c #815E3A",
"[  c #83633E",
"{  c #8B673F",
"}  c #8C683E",
"|  c #836542",
" . c #8B6743",
".. c #866845",
"X. c #8B6B45",
"o. c #876A48",
"O. c #8B6D49",
"+. c #926C41",
"@. c #906F4A",
"#. c #8F714D",
"$. c #997247",
"%. c #92734C",
"&. c #9B764A",
"*. c #9E794A",
"=. c #806C56",
"-. c #886E50",
";. c #857156",
":. c #8E7354",
">. c #8C745A",
",. c #917552",
"<. c #937952",
"1. c #9E7B50",
"2. c #977C5C",
"3. c #9B7E5C",
"4. c #A17648",
"5. c #A57C4C",
"6. c #A97F4D",
"7. c #807465",
"8. c #877B6E",
"9. c #837D76",
"0. c #867F78",
"q. c #AF814F",
"w. c #AD8352",
"e. c #BC8C55",
"r. c #BE8F58",
"t. c #9B8366",
"y. c #97846C",
"u. c #9D8569",
"i. c #89837D",
"p. c #898279",
"a. c #948472",
"s. c #9A8A77",
"d. c #918678",
"f. c #938A7F",
"g. c #9C8C7A",
"h. c #A58969",
"j. c #A58F76",
"k. c #AE967F",
"l. c #B3977A",
"z. c #CBA57C",
"x. c #9D8F81",
"c. c #9C9186",
"v. c #9A938B",
"b. c #AC9780",
"n. c #A59886",
"m. c #AB9A86",
"M. c #A59889",
"N. c #AB9C8A",
"B. c #B29F88",
"V. c #A09991",
"C. c #BBA78E",
"Z. c #BDAD9C",
"A. c #B6AEA3",
"S. c #BCAFA1",
"D. c #BEB7AF",
"F. c #BEBAB5",
"G. c #C0B09D",
"H. c #D8BC9E",
"J. c #C1B4A6",
"K. c #CBBCAC",
"L. c #C3BAAE",
"P. c #CDC1B3",
"I. c #CEC7BB",
"U. c #D8CFC2",
"Y. c #E1D9D0",
"T. c None",
/* pixels */
"T.+ # # # # # @ # # # % # # % # # # # # * # # # # # # # $ # + T.",
"@ | @.%.%.%.%.%.@.X.O.%.@.%.,.@.@.@.O.I ] C B l B l l g g k x . ",
"9 #.X.X.X.X.[ [ [ [  . .....O.O.O.#.<.@.| C l k h h h f g j j . ",
"@ a.V V C C C C B B l k k B V B v P | | | B v l k h h h g f 3 . ",
"X > F X H @ X   . X . . X X X X X X X X X X X X . X . o . . . T.",
"T.. H.v , l.C h O . . X 4 x l l l l l l l l h h x 1 = k k =   T.",
"T.  z.>.3 f.4.' h $ B q @ 4 f q q 4 r 4 < .   + o f C n -.%   T.",
"T.  r.Z.P p.u *.] q < ' 2 o l g f $ # +       $ C | S >.V #   T.",
"T.  e.J.N.K.V.u.1.| h j C = % k k v 8 % X o 1 O.....-.u.V o   T.",
"T.  B K L K 9.Y h.[ | c m V o # 1 1 8 1 @ y ..:.,.,.m.# X .   T.",
"T.. e. .b.O.b.Z ( 5.X.#.d C y + k ' q - V X.:.C.,.^ H O 1 %   T.",
"T.. r.] Z.S N.>.d.8 *.%.O.| S 6 + 1 6 | S O.u.x.  0.O q k -   T.",
"T.  5.' b.>.D.Z.C.# j $.X.O.<.| = @ V B S | N.Y i.F.I v z & . T.",
"T.  +.z E =.` ( c q $ @.C O.3.<.D o 8 C -.P L.) Q Y - c n <   T.",
"T.  k 2 5 Q ` 9.@ o % @ q.| O.O.:.y o c N.v.F.O Q F + # 1 @   T.",
"T.  [ %.&.C.P.K.] [ ' 6 - $.S | | S @ + L.p N.C B.2.@.@.<.<   T.",
"T.  &...| Z.U.j.V C e - $ u  .C C | b   i.N N.;.I.t.R D R 1   T.",
"T.  &.| | G.Y.o.V 1 -  .S $ { l V D | 1 , _ F.g.A.m m D D %   T.",
"T.  &.C D Z.P.n < u ..O.,.n @ 6.V V V Z O / A.N n.i i t r -   T.",
"T.  i 2 1 c.p X v O.X.O.O.C @ # C h Z S > . x.K f.1 - & < @   T.",
"T.  *.O.D Q   y O.X.O...S @ . X q  .n C D ; = _ N.Z C T D ;   T.",
"T.  5.n + * 8 #.O.| [ j     .   o ' z B D Z b a 9.5 7 y m ;   T.",
"T.  V - Z X.o.#...D 8 X           . $.x m v k 7 U d i N m 1   T.",
"T.  % [ | o...[ V G > X             $ } k v k k < , r j k -   T.",
"T.  q.T | ..D T O i.6 - # # # % # # @ 7 } j k k i # o & & @   T.",
"T.  r.[ D C 7 / J s.:.l k l | O.O.O.| - D b j j j u X 8 x $   T.",
"T.  5.n N # o M m.a.M.P q u c B b b b u + } j i u y q o 8 $   T.",
"T.  % % # @ # # = G 9 G L w @ @ @ @ X       + @ + + + X   o   T.",
"o I o.O.| | I B b m k r q 4 4 u k #   - e i t t r e q 4 4 4 e   ",
"X S | [ C Z B B k h j r t i b m 7 @ N j b z j e 4 3 3 3 4 q r   ",
"+ u m b k f f r t f h j b b 7 @ @ m m b m n z e e y e e e q y   ",
"+ .   X   .   X                                   .   . . .   T."
};
