/* XPM */
static char *result[] = {
/* columns rows colors chars-per-pixel */
"32 32 185 2 ",
"   c #010401",
".  c #030B02",
"X  c #080D07",
"o  c #090E08",
"O  c #051303",
"+  c #091406",
"@  c #061B03",
"#  c #091C06",
"$  c #0D140B",
"%  c #0D1C0A",
"&  c #11170F",
"*  c #101A0E",
"=  c #101410",
"-  c #141C13",
";  c #181E17",
":  c #0A2405",
">  c #0A2B05",
",  c #0D2409",
"<  c #0E2B0A",
"1  c #062401",
"2  c #11250D",
"3  c #122A0D",
"4  c #0C3406",
"5  c #0D3A04",
"6  c #0E3208",
"7  c #12330C",
"8  c #133A0C",
"9  c #172116",
"0  c #1A2717",
"q  c #152D11",
"w  c #182B15",
"e  c #1D241C",
"r  c #1D2B1B",
"t  c #163311",
"y  c #193315",
"u  c #173D10",
"i  c #1B3A16",
"p  c #1C3718",
"a  c #1F3D1B",
"s  c #20261F",
"d  c #212A1F",
"f  c #243F1F",
"g  c #20321C",
"h  c #222C20",
"j  c #282D26",
"k  c #2A2F29",
"l  c #293327",
"z  c #253C21",
"x  c #2A3E27",
"c  c #2C342B",
"v  c #2F3D2D",
"b  c #253024",
"n  c #313630",
"m  c #333A32",
"M  c #0E4104",
"N  c #0F4805",
"B  c #104607",
"V  c #114C06",
"C  c #14440C",
"Z  c #154B0B",
"A  c #125107",
"S  c #16530B",
"D  c #18530E",
"F  c #1A5E0F",
"G  c #175C0B",
"H  c #1A4412",
"J  c #194C11",
"K  c #1E4319",
"L  c #1C5412",
"P  c #1E5A14",
"I  c #21421C",
"U  c #214C1A",
"Y  c #215C16",
"T  c #245C1B",
"R  c #225419",
"E  c #1A650D",
"W  c #1D6412",
"Q  c #1F6C12",
"!  c #1F7511",
"~  c #216716",
"^  c #216A15",
"/  c #246419",
"(  c #246B19",
")  c #28681E",
"_  c #29651E",
"`  c #227614",
"'  c #247B16",
"]  c #2B751F",
"[  c #2A7C1C",
"{  c #274023",
"}  c #2A4425",
"|  c #2D422A",
" . c #2D4E28",
".. c #31442E",
"X. c #314C2D",
"o. c #2C5226",
"O. c #2D5D25",
"+. c #34532E",
"@. c #335C2C",
"#. c #354433",
"$. c #3B463A",
"%. c #3E4D3B",
"&. c #374933",
"*. c #375033",
"=. c #3A5536",
"-. c #3A5B35",
";. c #3F523B",
":. c #2C6423",
">. c #2E6C23",
",. c #306227",
"<. c #306A27",
"1. c #32622A",
"2. c #366C2D",
"3. c #307E24",
"4. c #3A7D2E",
"5. c #376130",
"6. c #3E6F35",
"7. c #3B7232",
"8. c #3F7835",
"9. c #40533D",
"0. c #407837",
"q. c #43733B",
"w. c #447D3A",
"e. c #497E3F",
"r. c #444D42",
"t. c #445442",
"y. c #495747",
"u. c #465B43",
"i. c #495A45",
"p. c #4F564E",
"a. c #4C5D48",
"s. c #50594E",
"d. c #476741",
"f. c #4F664C",
"g. c #536C4F",
"h. c #477440",
"j. c #4A7941",
"k. c #55764F",
"l. c #566C52",
"z. c #567E50",
"x. c #5A7655",
"c. c #647D5F",
"v. c #6C7969",
"b. c #677265",
"n. c #29801A",
"m. c #288819",
"M. c #358328",
"N. c #508846",
"B. c #54834B",
"V. c #5B8654",
"C. c #5D8955",
"Z. c #5D9154",
"A. c #61845B",
"S. c #618F5A",
"D. c #66955E",
"F. c #62A956",
"G. c #688B63",
"H. c #6D8968",
"J. c #6E9168",
"K. c #6D9964",
"L. c #739C6C",
"P. c #759170",
"I. c #779D70",
"U. c #7DA575",
"Y. c #7FA379",
"T. c #80987B",
"R. c #82A77C",
"E. c #87A481",
"W. c #89A284",
"Q. c #86AA80",
"!. c #8EAD89",
"~. c #94AF8F",
"^. c #8FB189",
"/. c #90B58A",
"(. c #95B391",
"). c #9DB999",
"_. c #99B794",
"`. c #A1BB9D",
"'. c #A4BBA0",
"]. c #98C291",
"[. c #A4C0A0",
"{. c #ADC3A9",
"}. c #B3C8AF",
"|. c #B7CBB3",
" X c #C1D4BE",
/* pixels */
"7./ / _ Y ] ] ' ' } Q.[.~.V.:.D D Z D S Y :.:.2.2.t V._.|.{.~.K.",
") / / Y D P L P (  .W.'._.A.,.D R L Z T 7.7.7.O.1.q I.}. X).j./ ",
"n.3.:._ ~ L C B J { G.Y.A.@.L Y D Z Z R T o.o.u 8 @ U.|.|.U.w.! ",
"M.e.e.7.( H < 1 : : 1.O.H 8 K H 6 > > 4 6 t , : O , C.(.[.L.N.! ",
">.8.7.<.8 , @ @ O . , : @ @ y 3 : @ O O @ # % #   + { z.U.C.2.P ",
"4 ^ O.I % @ O @ . # # O O @ + + # O O . . O O . O 1 > q : W Z D ",
"4 6 u , @ O . O % r c k e @ % @ . . . .     . 2 z X.=.X.q 1 6 < ",
"j.o.K % O O . - k c k j h O O . O   .   + - e r j $.a.l.@.> T w.",
"/.I.*.t @ + q m m k e e = + O O + .   o = = ; e d m %.t.-.8 5.K.",
"{.I.X.q O O d c n e o X . . O . .   . . $ = = - % 0 x *.a C } !.",
"(.H.p @ . O e j k % + . . . .         . o o o + O # : > : < y Y.",
"C.@.1 @ O . % 9 - O O . .     .         .   . . . . . @ @ : % B.",
",.H 4 : @ O O @ + . .                       . . .   . O , O O a ",
": : 6 O . . + + O .               .             . . . + > @ C > ",
"D L + . O @ . . . .                           . . o + . O D P A ",
"L 5 : x | r .   . .           .               o $ ; l v y Z W V ",
"M > O.a.$.l % . O                             X = s c #. .3 P V ",
"B > A.b.r.l # @ O                               . = e r I L , V ",
"M @ J.v.p.l + . .                                   . + 1 M > 4 ",
"5 1 9.v.p.l +                             X   X .     O 1 > > 5 ",
"5 > 3 *.#.e + .                             X   . . O . O # , , ",
"N 4 4 O % + O               X           X       . . . . q =.h.L ",
"E G A 5 . O   + $ . .   o             X         .   . q #.f.L.] ",
"E Z 6 > @ . - ; ; = o     o             X     . . . q x %.d.K.M.",
"! F > 1 @ 9 c d e - + .   o   .           . . O O @ x %.y.u.8.[ ",
"A W 4 O < =.$.v e & . .   o o     .         . .   + x 9.u.d.P A ",
"5 D > O J q.i...* O . .   . . . . O   . + * e #.v & $ } =.8.~ B ",
": > # 4 + i  .I < # @ O . + = ; # . % e x #.r.t.%.} 2 , % ' Q H ",
"4 F.U.k.R : O 5 5 > . + ; #.%.9.a O 9 =.9.i.i.i.;.z y H : 8 8 7 ",
"Z.].).W.@.J @ O . . @ I g.P.E.L.<.7 p 1.-.-.X.a i t 8 J p 8 M.V.",
"Q.).).!.:.J L 5 > 3 g v z.G.c.S.i # , 7 > , t 7 p q 1 + { V.R.(.",
"L.S.Z.q.P ( n.m.4 <.C.x.l.X.K 2 > B Z Z C : 5 8 I K 8 =.^.'.)._."
};
